<?xml version="1.0" encoding="utf-8"?>
<!-- Generator: Adobe Illustrator 17.0.2, SVG Export Plug-In . SVG Version: 6.00 Build 0)  -->
<!DOCTYPE svg PUBLIC "-//W3C//DTD SVG 1.1//EN" "http://www.w3.org/Graphics/SVG/1.1/DTD/svg11.dtd">
<svg version="1.1" id="Layer_1" xmlns="http://www.w3.org/2000/svg" xmlns:xlink="http://www.w3.org/1999/xlink" x="0px" y="0px"
	 width="754px" height="435px" viewBox="0 0 754 435" enable-background="new 0 0 754 435" xml:space="preserve">
<g>
	<g>
		<polygon points="500.742,78.969 501.871,82.277 518.355,76.655 517.227,73.347 515.82,73.827 513.325,66.512 499.654,71.174 
			502.149,78.488 		"/>
	</g>
	<g>
		<polygon points="501.145,71.377 493.645,52.46 502.479,45.71 504.729,50.46 525.146,29.043 536.979,35.46 508.979,61.46 
			510.646,68.293 		"/>
	</g>
	<g>
		<path d="M536.312,36.127c7.667-7.333,2.167-19.833-5.333-20.167c-1.167,1.5,0.287,5.407-0.479,6.915
			c-2.297,4.523-5.354,6.168-5.354,6.168l1.5,5.75L536.312,36.127z"/>
	</g>
	<g>
		<polygon points="529.146,10.293 548.286,12.293 548.979,16.46 533.168,22.293 		"/>
	</g>
	<g>
		<polygon points="533.045,16.555 553.14,27.921 552.168,32.058 532.461,29.479 		"/>
	</g>
	<g>
		<path d="M523.146,7.751c-5.822,0-10.542,4.72-10.542,10.542s4.72,10.542,10.542,10.542s10.542-4.72,10.542-10.542
			S528.968,7.751,523.146,7.751z M523.146,25.961c-4.234,0-7.668-3.433-7.668-7.667c0-4.235,3.433-7.668,7.668-7.668
			c4.235,0,7.667,3.433,7.667,7.668C530.813,22.528,527.381,25.961,523.146,25.961z"/>
	</g>
	<g>
		<circle cx="523.146" cy="18.293" r="4.983"/>
	</g>
	<g>
		<path d="M536.521,18.521c0,0,16.608-1.848,19.155-0.348s2.278,6.25-1.34,4.75s-13.135,0.25-15.413,2
			C536.643,26.673,536.521,18.521,536.521,18.521z"/>
	</g>
</g>
<g>
	<g>
		<path d="M314.69,221.426c-0.179,0-0.277-0.045-0.39-0.098l-0.403-0.188l-0.143-0.438c-1.019-2.829-22.407-48.776-33.777-51.92
			c-1.176-0.324-2.12-0.153-2.969,0.541l-1.267-1.548c1.401-1.146,3.063-1.438,4.939-0.871
			c12.253,3.712,31.686,45.766,34.612,52.351c2.846-0.975,13.882-5.658,26.478-11.003c33.164-14.074,88.67-37.63,112.965-44.292
			c24.684-6.768,42.012-32.116,57.3-54.481c6.025-8.814,11.717-17.14,17.224-23.226c19.05-21.056,22.458-44.311,8.893-60.691
			l1.541-1.275c14.246,17.203,10.816,41.461-8.951,63.309c-5.415,5.985-11.068,14.256-17.055,23.012
			c-15.482,22.649-33.03,48.319-58.422,55.281c-24.166,6.626-79.595,30.15-112.713,44.204
			C319.271,219.972,315.697,221.426,314.69,221.426z"/>
	</g>
	<g>
		<path d="M551.669,164.653c-0.292-4.61-4.402-14.697-9.16-26.376c-7.875-19.327-17.675-43.38-16.84-58.409
			c0.979-17.64,5.699-33.012,9.864-46.573c1.54-5.017,2.995-9.755,4.165-14.288l1.938,0.5c-1.182,4.577-2.644,9.336-4.19,14.375
			c-4.131,13.453-8.813,28.7-9.78,46.098c-0.81,14.579,8.896,38.401,16.695,57.542c5.023,12.33,8.991,22.069,9.305,27.004
			L551.669,164.653z"/>
	</g>
	<g>
		<path d="M360.088,274.499l-0.106-1.998c0.235-0.012,23.617-1.323,30.001-7.307c19.108-17.907,73.976-82.573,106.758-121.21
			c6.391-7.532,11.815-13.926,15.783-18.564c23.591-27.583,27.68-83.374,24.818-97.672l1.961-0.393
			c2.911,14.543-1.253,71.297-25.26,99.364c-3.966,4.638-9.389,11.029-15.778,18.559c-32.81,38.669-87.723,103.391-106.915,121.375
			C384.437,273.133,361.079,274.446,360.088,274.499z"/>
	</g>
</g>
<g>
	<rect x="252.5" y="159.903" transform="matrix(0.6321 0.7749 -0.7749 0.6321 236.8938 -130.1335)" width="6" height="49.041"/>
</g>
<g>
	
		<rect x="530.568" y="153.716" transform="matrix(0.3695 0.9292 -0.9292 0.3695 492.7439 -412.7873)" width="39.986" height="6.001"/>
</g>
<g>
	<circle cx="274.5" cy="168.923" r="3.375"/>
</g>
<g>
	<circle cx="542.833" cy="137.173" r="3.375"/>
</g>
</svg>
