<?xml version="1.0" encoding="utf-8"?>
<!-- Generator: Adobe Illustrator 17.0.2, SVG Export Plug-In . SVG Version: 6.00 Build 0)  -->
<!DOCTYPE svg PUBLIC "-//W3C//DTD SVG 1.1//EN" "http://www.w3.org/Graphics/SVG/1.1/DTD/svg11.dtd">
<svg version="1.1" id="Layer_1" xmlns="http://www.w3.org/2000/svg" xmlns:xlink="http://www.w3.org/1999/xlink" x="0px" y="0px"
	 width="754px" height="435px" viewBox="0 0 754 435" enable-background="new 0 0 754 435" xml:space="preserve">
<g>
	<path fill="#FFFFFF" d="M389.666,366.267c0-1.103-0.896-2-2-2c-1.105,0-2,0.896-2,2h-6.222v2c0,0.303-0.072,0.588-0.193,0.845
		l0.3,0.899c0.029,0.086,0.038,0.17,0.063,0.256h-0.001c0.08,0.271,0.132,0.539,0.185,0.808c-0.053-0.269-0.104-0.538-0.185-0.808h0
		c-0.025-0.086-0.035-0.17-0.063-0.256l-0.3-0.899c-0.159,0.34-0.411,0.629-0.722,0.833c0.312-0.204,0.563-0.492,0.722-0.833
		c0.121-0.257,0.193-0.542,0.193-0.845v-2c0-1.036-0.792-1.88-1.803-1.98c-0.066-0.007-0.13-0.02-0.197-0.02c0,0,0,0,0,0
		c0.068,0,0.131,0.013,0.197,0.02l-9.164-27.468c0.569-0.386,1.263-0.568,1.977-0.486l-0.002-0.004
		c0.364,0.044,0.754-0.022,1.108-0.222c0.912-0.512,1.186-1.642,0.649-2.458c-0.074-0.111-0.158-0.21-0.249-0.301
		c0.039,0.013,0.079,0.029,0.118,0.04c0.038,0.088,0.078,0.176,0.131,0.26c0.52,0.831,1.659,1.048,2.505,0.433
		c0.328-0.238,0.553-0.562,0.663-0.916l0.003,0.004c0.34-1.049,1.221-1.807,2.308-1.991l-0.003-0.004
		c0.36-0.06,0.719-0.229,1.001-0.522c0.687-0.7,0.678-1.756,0.061-2.41c0.011-0.006,0.02-0.014,0.03-0.021
		c0.73,0.513,1.776,0.381,2.373-0.392c0.245-0.322,0.373-0.693,0.38-1.061l0.003,0.002c0.037-1.1,0.675-2.07,1.669-2.539
		l-0.004-0.001c0.335-0.153,0.627-0.413,0.825-0.767c0.493-0.894,0.162-1.971-0.691-2.407c-0.001-0.004-0.001-0.007-0.002-0.01
		c0.866,0.411,1.929,0.016,2.332-0.924c0.161-0.366,0.184-0.758,0.103-1.114l0.004,0.002c-0.238-1.068,0.151-2.164,1.011-2.838
		l-0.004-0.003c0.284-0.224,0.518-0.538,0.626-0.923c0.287-0.984-0.293-1.976-1.244-2.203c0.947,0.239,1.919-0.371,2.125-1.37
		c0.077-0.39,0.032-0.772-0.122-1.103h0.005c-0.302-0.685-0.309-1.441-0.05-2.112c0.086-0.117,0.151-0.241,0.181-0.378
		c0.094-0.163,0.2-0.32,0.329-0.464h-0.004c0.24-0.271,0.413-0.616,0.454-1.01c0.111-1.008-0.622-1.886-1.596-1.956
		c-0.651-0.048-1.237,0.253-1.591,0.733c-0.159-0.091-0.309-0.172-0.45-0.246c0.08-0.706,0.144-1.416,0.186-2.133
		c0.067-0.021,0.135-0.044,0.206-0.068c0.03,0.884,0.726,1.636,1.651,1.714c0.976,0.083,1.833-0.67,1.882-1.68
		c0.023-0.392-0.087-0.759-0.286-1.064h0.004c-0.138-0.217-0.238-0.449-0.31-0.688c0.118-0.183,0.186-0.376,0.186-0.578
		c0-0.228-0.092-0.443-0.239-0.646c0.063-0.373,0.177-0.74,0.399-1.072l-0.004,0.002c0.199-0.305,0.311-0.676,0.299-1.074
		c-0.045-1.027-0.906-1.785-1.884-1.696c-0.973,0.092-1.7,0.914-1.659,1.843c0.004,0.137,0.041,0.263,0.078,0.389
		c-0.112-0.039-0.22-0.075-0.322-0.107c-0.042-0.717-0.106-1.427-0.186-2.133c0.23-0.121,0.487-0.263,0.755-0.425
		c0.355,0.301,0.826,0.473,1.333,0.433c0.978-0.074,1.702-0.964,1.575-1.983c-0.055-0.396-0.23-0.746-0.477-1.012l0.004-0.001
		c-0.755-0.796-0.958-1.942-0.564-2.958l-0.004,0.001c0.14-0.341,0.169-0.726,0.072-1.114c-0.253-0.998-1.254-1.561-2.189-1.27
		c0.937-0.277,1.458-1.301,1.12-2.273c-0.139-0.376-0.383-0.679-0.68-0.886l0.004-0.003c-0.904-0.622-1.351-1.696-1.177-2.774
		l-0.003,0.002c0.064-0.361,0.008-0.744-0.167-1.105c-0.334-0.669-1.006-1.024-1.676-0.986c-0.007-0.147-0.037-0.286-0.1-0.412
		c0.321-0.538,0.347-1.24-0.021-1.836c-0.212-0.34-0.509-0.588-0.851-0.725l0.004-0.002c-1.003-0.423-1.682-1.369-1.73-2.463
		l-0.004,0.002c-0.02-0.36-0.139-0.735-0.392-1.044c-0.559-0.704-1.507-0.867-2.223-0.467c-0.031-0.002-0.064-0.003-0.096-0.004
		c0.538-0.655,0.528-1.647-0.108-2.316c-0.274-0.291-0.626-0.463-0.981-0.532l0.003-0.004c-1.075-0.2-1.921-0.999-2.196-2.056
		l-0.003,0.004c-0.088-0.357-0.292-0.685-0.595-0.944c-0.791-0.653-1.929-0.522-2.517,0.258c0.597-0.774,0.423-1.908-0.42-2.493
		c-0.324-0.233-0.703-0.332-1.066-0.326l0.002-0.004c-1.093,0.018-2.081-0.597-2.564-1.573l-0.002,0.004
		c-0.157-0.332-0.422-0.614-0.773-0.805c-0.903-0.483-1.99-0.128-2.411,0.752c0.424-0.877,0.026-1.951-0.917-2.353
		c-0.366-0.159-0.756-0.183-1.112-0.101l0.001-0.005c-1.067,0.238-2.16-0.158-2.837-1.014l-0.002,0.005
		c-0.222-0.292-0.541-0.514-0.927-0.628c-0.991-0.284-1.985,0.3-2.203,1.254c-0.218,0.954,0.334,1.897,1.223,2.153
		c0.207,0.062,0.416,0.066,0.621,0.045c-0.231,0.26-0.439,0.514-0.615,0.741c-0.683-0.203-1.374-0.385-2.072-0.552
		c-0.046-0.336-0.112-0.731-0.203-1.139c0.498-0.221,0.899-0.666,1.044-1.248c0.234-0.949-0.388-1.921-1.405-2.109
		c-0.089-0.018-0.174-0.004-0.262-0.008c0.133-0.37,0.219-0.764,0.219-1.18c0-1.933-1.567-3.5-3.5-3.5
		c-7.635,0-16.806,0.834-25.435,5.183c-0.279-0.068-0.549-0.179-0.798-0.344v0.004c-0.296-0.197-0.653-0.311-1.037-0.299
		c-0.979,0.03-1.747,0.851-1.714,1.829c0.008,0.256,0.073,0.497,0.178,0.713c-0.149,0.094-0.298,0.185-0.446,0.281
		c0.179-0.288,0.279-0.63,0.267-0.993c-0.032-0.978-0.852-1.746-1.831-1.714c-0.383,0.015-0.732,0.151-1.016,0.368v-0.005
		c-0.85,0.648-2.015,0.69-2.909,0.104v0.003c-0.298-0.196-0.655-0.309-1.038-0.294c-0.978,0.035-1.741,0.855-1.706,1.832
		c-0.04-0.976-0.86-1.735-1.837-1.698c-0.383,0.015-0.731,0.152-1.013,0.371l-0.001-0.006c-0.846,0.653-2.013,0.698-2.908,0.115
		v0.005c-0.298-0.195-0.656-0.306-1.039-0.291c-0.975,0.039-1.732,0.859-1.698,1.833c-0.046-0.973-0.868-1.729-1.843-1.688
		c-0.383,0.016-0.731,0.154-1.012,0.374l-0.001-0.004c-0.845,0.655-2.011,0.704-2.908,0.124v0.004
		c-0.299-0.195-0.656-0.305-1.04-0.287c-0.978,0.042-1.736,0.869-1.693,1.847c0.043,0.977,0.87,1.735,1.848,1.695
		c0.382-0.018,0.729-0.157,1.01-0.377v0.005c0.843-0.656,2.01-0.706,2.905-0.124l-0.001-0.005c0.299,0.195,0.656,0.306,1.039,0.29
		c0.973-0.042,1.73-0.86,1.696-1.833c0.046,0.971,0.868,1.727,1.842,1.688c0.382-0.015,0.73-0.154,1.011-0.373v0.004
		c0.846-0.652,2.011-0.698,2.904-0.113v-0.005c0.298,0.196,0.654,0.308,1.037,0.293c0.976-0.037,1.737-0.858,1.703-1.835
		c0.042,0.977,0.861,1.738,1.836,1.7c0.383-0.014,0.73-0.15,1.012-0.368v0.004c0.848-0.649,2.014-0.69,2.905-0.101v-0.005
		c0.296,0.197,0.653,0.31,1.035,0.297c0.09-0.003,0.175-0.019,0.261-0.035c-6.983,4.888-13.299,12.613-17.723,24.776
		c-0.661,1.816,0.276,3.824,2.093,4.485c0.395,0.144,0.799,0.212,1.196,0.212c0.659,0,1.296-0.195,1.845-0.536
		c-0.11,0.404-0.212,0.811-0.31,1.22c-1.29,0.175-3.49,0.635-3.687,1.748c-0.197,1.114,1.717,2.299,2.87,2.905
		c-0.08,0.706-0.144,1.417-0.186,2.134c-1.24,0.396-3.33,1.231-3.331,2.363c-0.001,1.13,2.09,1.964,3.331,2.361
		c0.042,0.717,0.106,1.429,0.187,2.135c-1.152,0.605-3.066,1.79-2.87,2.904c0.196,1.113,2.396,1.573,3.687,1.748
		c0.166,0.699,0.349,1.391,0.552,2.075c-1.03,0.797-2.703,2.293-2.317,3.355c0.386,1.061,2.628,1.132,3.93,1.081
		c0.286,0.658,0.591,1.305,0.911,1.944c-0.875,0.964-2.265,2.73-1.702,3.71c0.566,0.979,2.792,0.657,4.065,0.38
		c0.395,0.597,0.802,1.185,1.228,1.758c-0.695,1.101-1.757,3.081-1.03,3.948c0.728,0.868,2.872,0.159,4.076-0.335
		c0.49,0.517,0.994,1.021,1.511,1.511c-0.493,1.202-1.202,3.348-0.335,4.076c0.866,0.727,2.847-0.335,3.948-1.03
		c0.573,0.426,1.161,0.833,1.757,1.227c-0.276,1.272-0.597,3.497,0.381,4.064c0.979,0.566,2.745-0.824,3.709-1.7
		c0.639,0.32,1.286,0.625,1.944,0.911c-0.051,1.301,0.021,3.544,1.081,3.931c1.062,0.386,2.558-1.287,3.356-2.318
		c0.683,0.203,1.374,0.385,2.071,0.552c0.059,0.431,0.151,0.96,0.287,1.487c-0.025,0.003-0.049,0.001-0.075,0.005
		c-0.377,0.065-0.705,0.245-0.956,0.497v-0.004c-0.757,0.753-1.909,0.943-2.867,0.473v0.004c-0.319-0.157-0.687-0.224-1.065-0.161
		c-0.965,0.158-1.62,1.069-1.462,2.033c0.156,0.967,1.067,1.624,2.034,1.466c0.379-0.062,0.707-0.244,0.96-0.495v0.005
		c0.759-0.751,1.911-0.942,2.872-0.475v-0.004c0.32,0.156,0.689,0.221,1.068,0.158c0.728-0.122,1.277-0.672,1.434-1.348
		c0.081-0.025,0.161-0.058,0.241-0.1c0.361,0.62,1.075,0.986,1.824,0.859c0.379-0.063,0.706-0.247,0.957-0.5l0.001,0.005
		c0.669-0.67,1.649-0.898,2.534-0.622c0.383,0.603,0.841,1.054,1.364,1.054c0.777,0,1.414-0.992,1.866-2.015
		c0.393,0.476,1.019,0.738,1.672,0.623c0.377-0.066,0.704-0.25,0.953-0.508l0.001,0.005c0.199-0.202,0.428-0.363,0.672-0.485
		c0.27,0.41,0.576,0.806,0.899,1.121l9.797,24.256H359c0-1.103-0.896-2-2-2s-2,0.896-2,2h-1.917v13.75H355c0,1.106,0.895,2,2,2
		c1.104,0,2-0.894,2-2h6.222v-2c0-0.782,0.454-1.453,1.109-1.782c0.135-0.068,0.277-0.122,0.426-0.16
		c0.149-0.038,0.304-0.058,0.465-0.058h0c-0.161,0-0.317,0.021-0.465,0.058c-0.149,0.038-0.291,0.092-0.426,0.16
		c-0.655,0.329-1.109,1-1.109,1.782v2h0c0,1.106,0.895,2,2,2c1.104,0,2-0.894,2-2h0v0.001h6.221c0.001,1.106,0.896,1.999,2,1.999
		c1.104,0,2-0.894,2-2h0v-2c0-0.676-0.338-1.272-0.853-1.634c0.099-0.112,0.181-0.243,0.27-0.366
		c0.146-0.201,0.282-0.41,0.405-0.631c-0.122,0.221-0.259,0.43-0.405,0.631h0.001c-0.089,0.123-0.171,0.253-0.27,0.366
		c0.515,0.362,0.853,0.958,0.853,1.634v2h6.222v-2c0-1.104,0.895-2,2-2l0,0c-1.105,0-2,0.896-2,2v2c0,1.106,0.895,2,2,2
		c1.104,0,2-0.894,2-2h1.917v-13.75H389.666z M376.895,376.017h-2.869c-0.199,0.117-0.412,0.209-0.632,0.286
		c0.219-0.077,0.432-0.169,0.629-0.286c0.988-0.583,1.659-1.647,1.659-2.875c0-1.228-0.671-2.292-1.659-2.875
		c-0.498-0.294-1.072-0.475-1.691-0.475c0.619,0,1.193,0.18,1.691,0.475h2.872c0.527,0.834,0.837,1.818,0.837,2.875
		S377.422,375.183,376.895,376.017z M375.522,377.493c-0.176,0.129-0.366,0.24-0.556,0.347
		C375.156,377.732,375.346,377.622,375.522,377.493C375.522,377.492,375.522,377.492,375.522,377.493z M373.916,378.295
		c0.04-0.013,0.084-0.017,0.124-0.031C374,378.277,373.956,378.282,373.916,378.295z M374.479,378.077
		c0.112-0.049,0.229-0.087,0.337-0.144C374.708,377.99,374.591,378.028,374.479,378.077z M376.815,376.129
		c-0.026,0.009-0.048,0.025-0.073,0.035C376.767,376.154,376.789,376.137,376.815,376.129
		C376.815,376.129,376.815,376.129,376.815,376.129z M367.77,376.017c-0.527-0.834-0.837-1.818-0.837-2.875s0.31-2.041,0.837-2.875
		h2.871c-0.987,0.583-1.659,1.647-1.659,2.875c0,1.228,0.671,2.292,1.659,2.875H367.77z M372.447,274.905
		c-2.206-0.179-4.431-0.135-6.649,0.105c-0.077-0.257-0.199-0.473-0.394-0.615c-0.946-0.687-2.942,0.613-3.966,1.377
		c-0.367-0.223-0.74-0.437-1.118-0.644c0.149-1.268,0.277-3.65-0.789-4.125c-1.069-0.476-2.754,1.215-3.596,2.175
		c-0.405-0.142-0.813-0.276-1.226-0.4c-0.118-1.272-0.488-3.628-1.63-3.871c-1.146-0.242-2.445,1.768-3.067,2.881
		c-0.423-0.053-0.849-0.098-1.277-0.133c-0.199-0.643-0.532-1.563-0.974-2.297v-5.351
		C357.413,264.378,366.108,268.474,372.447,274.905z M385.739,287.859c0.066-0.012,0.133-0.019,0.199-0.038
		c-0.09,0.028-0.173,0.067-0.255,0.107C385.703,287.905,385.72,287.882,385.739,287.859z M366.602,331.202l-1.403-4.207
		c0.071-0.029,0.142-0.058,0.204-0.103c0.948-0.689,0.321-3.002-0.09-4.21c0.324-0.279,0.641-0.565,0.953-0.858
		c1.157,0.534,3.393,1.4,4.177,0.53c0.783-0.87-0.308-2.999-0.961-4.096c0.26-0.341,0.511-0.689,0.756-1.041
		c0.657,0.149,1.619,0.32,2.474,0.305l4.636,2.676C374.58,324.58,370.914,328.336,366.602,331.202z M334.844,324.183
		c-0.214-1.384-0.314-2.773-0.269-4.148c0.054-1.797,0.359-3.561,0.908-5.229c0.621,0.476,1.271,0.914,1.952,1.307
		c-0.093,1.317-0.07,3.369,0.923,3.781c0.994,0.41,2.463-1.027,3.329-2.024c0.355,0.095,0.706,0.199,1.069,0.272l2.623,6.495v2.172
		C341.61,326.675,338.044,325.748,334.844,324.183z M324.402,314.953l7.233-4.176c0.178,0.257,0.37,0.502,0.56,0.75
		c-0.59,1.181-1.357,3.09-0.597,3.85c0.021,0.021,0.05,0.034,0.073,0.053c-0.265,1.536-0.372,3.091-0.31,4.622
		c0.028,0.744,0.097,1.48,0.191,2.211C328.716,320.32,326.284,317.833,324.402,314.953z M357.673,277.03
		c-0.682,0.284-1.356,0.594-2.016,0.943c-2.387,1.251-4.585,2.977-6.38,5.073c-0.214-0.036-0.429-0.071-0.645-0.099
		c-0.203-0.608-0.498-1.36-0.871-1.98v-6.473C351.296,274.684,354.646,275.574,357.673,277.03z M378.562,283.136
		c0.862,1.584,1.611,3.239,2.235,4.954c-1.281,2.669-2.925,5.168-4.854,7.378c-0.375-0.103-0.73-0.183-1.028-0.242
		c-0.08-0.423-0.169-0.841-0.267-1.257c1.042-0.737,2.902-2.237,2.541-3.349c-0.361-1.112-2.739-1.234-4.017-1.218
		c-0.167-0.398-0.344-0.79-0.528-1.179c0.609-0.66,1.523-1.766,1.817-2.72L378.562,283.136z M383.004,300.642
		c0,6.171-1.531,11.981-4.223,17.084l-4.643-2.681c-0.413-0.744-1.038-1.486-1.494-1.979c0.184-0.389,0.362-0.782,0.529-1.18
		c1.278,0.016,3.656-0.107,4.017-1.217c0.362-1.113-1.499-2.613-2.542-3.349c0.098-0.416,0.187-0.835,0.267-1.258
		c1.252-0.249,3.563-0.864,3.685-2.026c0.122-1.166-2.019-2.248-3.189-2.751c0.005-0.215,0.016-0.428,0.016-0.643
		c0-0.214-0.012-0.426-0.016-0.639c1.171-0.503,3.311-1.585,3.189-2.751c-0.025-0.241-0.152-0.455-0.336-0.65
		c1.318-1.802,2.47-3.708,3.419-5.711C382.538,293.997,383.004,297.264,383.004,300.642z M336.953,311.563
		c0.581-1,1.26-1.93,2.012-2.806l2.141,5.299C339.577,313.46,338.176,312.615,336.953,311.563z M320.225,302.628
		c0.585,0.446,1.183,0.88,1.812,1.276c1.787,1.132,3.768,2.022,5.85,2.597c-0.611,0.719-1.057,1.507-0.805,2.115
		c0.172,0.414,0.634,0.656,1.204,0.795l-5.315,3.069C321.449,309.481,320.489,306.153,320.225,302.628z M315.483,281.18l6.118-4.178
		c1.834,0.05,3.66,0.235,5.444,0.586c0.099,0.379,0.208,0.727,0.306,1.015c-0.324,0.279-0.642,0.565-0.953,0.858
		c-1.158-0.534-3.392-1.398-4.175-0.529c-0.782,0.869,0.308,2.996,0.96,4.093c-0.26,0.341-0.511,0.689-0.756,1.042
		c-0.656-0.148-1.615-0.32-2.47-0.305L315.483,281.18z M344.903,274.494v6.474c-0.373,0.62-0.667,1.371-0.87,1.979
		c-0.217,0.028-0.432,0.063-0.646,0.099c-1.795-2.095-3.992-3.822-6.379-5.072c-0.66-0.349-1.335-0.659-2.017-0.943
		C338.018,275.574,341.367,274.684,344.903,274.494z M358.304,292.63l-4.469,2.58c-0.65-0.913-1.363-1.711-2.116-2.348
		c-0.788-0.666-1.614-1.153-2.441-1.454c0.433-1.526,1.029-2.981,1.815-4.35C354.057,288.098,356.584,290.066,358.304,292.63z
		 M331.685,278.93c1.306,0.507,2.563,1.11,3.732,1.836c0.78,0.482,1.515,1.021,2.209,1.602c-0.26,0.823-0.249,1.961-0.19,2.804
		c-0.694,0.4-1.356,0.846-1.987,1.333c-1.181-0.59-3.089-1.357-3.85-0.596c-0.761,0.76,0.006,2.669,0.596,3.85
		c-0.19,0.246-0.382,0.491-0.559,0.748l-7.233-4.176C326.316,283.407,328.792,280.885,331.685,278.93z M331.926,300.642
		c0-2.115,0.467-4.117,1.286-5.926l3.997,2.308c-0.13,0.412-0.242,0.842-0.317,1.3c-0.193,1.172-0.202,2.48-0.019,3.847
		c0.023,0.17,0.057,0.344,0.086,0.516c-1.571,0.404-3.163,0.623-4.776,0.627C332.021,302.447,331.926,301.556,331.926,300.642z
		 M360.739,300.642c0,0.914-0.095,1.805-0.257,2.671c-1.105-0.003-2.199-0.107-3.285-0.302l-1.112-3.333
		c-0.339-1.017-0.761-1.97-1.24-2.851l4.401-2.541C360.193,296.206,360.739,298.358,360.739,300.642z M343.604,292.235l-3.418,1.259
		c-0.599,0.221-1.118,0.583-1.568,1.044l-3.974-2.295c1.709-2.373,4.117-4.2,6.928-5.186
		C342.498,288.672,343.161,290.405,343.604,292.235z M364.777,306.499c2.081-0.575,4.063-1.466,5.85-2.597
		c0.63-0.396,1.228-0.829,1.814-1.276c-0.264,3.525-1.224,6.855-2.747,9.853l-5.316-3.069c0.571-0.139,1.033-0.38,1.205-0.795
		C365.836,308.007,365.389,307.218,364.777,306.499z M372.453,298.821c-1.089,0.875-2.237,1.66-3.447,2.307
		c-1.583,0.852-3.262,1.47-4.981,1.828c0.001-0.004,0.002-0.009,0.002-0.013c1.253-0.418,3.142-1.226,3.143-2.301
		c-0.001-1.074-1.89-1.881-3.142-2.299c-0.103-0.8-0.262-1.582-0.467-2.345c0.997-0.865,2.434-2.335,2.023-3.328
		c-0.242-0.583-1.053-0.83-1.948-0.917l5.84-3.371C371.149,291.534,372.195,295.068,372.453,298.821z M322.973,288.805l5.318,3.07
		c-0.572,0.139-1.035,0.38-1.207,0.795c-0.411,0.993,1.025,2.462,2.022,3.327c-0.206,0.764-0.364,1.545-0.467,2.346
		c-1.252,0.417-3.142,1.224-3.143,2.299c0,1.076,1.89,1.883,3.143,2.302c0.001,0.005,0.002,0.009,0.002,0.014
		c-1.719-0.358-3.398-0.976-4.981-1.828c-1.21-0.648-2.358-1.433-3.447-2.308C320.459,295.236,321.426,291.849,322.973,288.805z
		 M363.114,320.747l-1.873-5.614c0.443-0.87-0.237-2.537-0.771-3.607c0.19-0.247,0.383-0.492,0.56-0.749l7.234,4.176
		C366.84,317.131,365.104,319.085,363.114,320.747z M368.519,286.733l-7.227,4.172c-0.257-0.395-0.535-0.773-0.822-1.146
		c0.59-1.181,1.357-3.089,0.596-3.85c-0.761-0.761-2.669,0.006-3.85,0.596c-0.631-0.487-1.293-0.933-1.987-1.333
		c0.06-0.842,0.07-1.981-0.19-2.804c0.693-0.581,1.428-1.12,2.208-1.602c1.169-0.727,2.426-1.33,3.732-1.836
		C364.005,280.974,366.574,283.637,368.519,286.733z M344.903,269.359c-0.441,0.734-0.773,1.653-0.973,2.295
		c-0.428,0.035-0.854,0.08-1.277,0.133c-0.623-1.114-1.922-3.124-3.067-2.881c-1.142,0.243-1.512,2.597-1.629,3.87
		c-0.414,0.124-0.823,0.259-1.228,0.401c-0.842-0.96-2.527-2.651-3.595-2.176c-1.067,0.475-0.938,2.856-0.788,4.125
		c-0.378,0.208-0.752,0.421-1.119,0.645c-1.024-0.764-3.021-2.064-3.966-1.378c-0.196,0.142-0.318,0.36-0.395,0.617
		c-0.699-0.076-1.398-0.138-2.097-0.172l15.054-10.281c1.658-0.297,3.353-0.485,5.08-0.552V269.359z M313.884,283.557l4.64,2.679
		c0.413,0.746,1.039,1.49,1.496,1.984c-0.184,0.389-0.362,0.782-0.529,1.181c-1.279-0.016-3.656,0.107-4.017,1.216
		c-0.362,1.113,1.499,2.613,2.542,3.349c-0.098,0.417-0.188,0.836-0.267,1.259c-0.299,0.059-0.653,0.139-1.029,0.242
		c-1.929-2.21-3.573-4.71-4.854-7.379C312.437,286.525,313.116,285.014,313.884,283.557z M347.285,332.576
		c0.303-0.326,0.571-0.77,0.798-1.245l2.324,5.753c-1.028,0.114-2.07,0.18-3.122,0.207V332.576z M365.808,364.853
		c-0.038,0.038-0.069,0.084-0.104,0.126C365.739,364.938,365.769,364.892,365.808,364.853z M366.104,364.609
		c-0.057,0.039-0.106,0.087-0.158,0.131C365.998,364.695,366.047,364.647,366.104,364.609z M366.819,364.308
		c-0.052,0.011-0.1,0.032-0.151,0.047C366.719,364.34,366.767,364.318,366.819,364.308z M366.443,364.424
		c-0.066,0.028-0.125,0.067-0.187,0.102C366.318,364.491,366.378,364.452,366.443,364.424z M373.51,283.852
		c-0.976-0.223-2.396,0.019-3.271,0.217c-0.245-0.352-0.496-0.7-0.755-1.04c0.652-1.096,1.743-3.225,0.961-4.094
		c-0.785-0.87-3.019-0.005-4.177,0.529c-0.311-0.293-0.63-0.579-0.954-0.859c0.098-0.289,0.207-0.637,0.305-1.016
		c2.872-0.565,5.853-0.739,8.798-0.517c1.167,1.389,2.234,2.863,3.187,4.416L373.51,283.852z M310.981,290.891
		c0.949,2.003,2.101,3.909,3.419,5.711c-0.183,0.195-0.31,0.409-0.335,0.649c-0.122,1.167,2.019,2.249,3.189,2.751
		c-0.005,0.213-0.016,0.425-0.016,0.64c0,0.216,0.012,0.429,0.016,0.643c-1.171,0.502-3.311,1.584-3.189,2.75
		c0.122,1.163,2.433,1.778,3.685,2.027c0.08,0.423,0.169,0.842,0.267,1.258c-1.042,0.737-2.904,2.237-2.542,3.35
		c0.361,1.109,2.74,1.232,4.018,1.217c0.167,0.398,0.344,0.789,0.528,1.178c-0.456,0.494-1.081,1.236-1.494,1.981l-4.643,2.681
		c-2.692-5.103-4.223-10.914-4.223-17.085C309.66,297.264,310.126,293.997,310.981,290.891z M319.951,317.523
		c0.856,0.016,1.818-0.156,2.475-0.305c0.245,0.352,0.496,0.7,0.755,1.04c-0.652,1.097-1.744,3.226-0.961,4.095
		c0.784,0.871,3.02,0.005,4.178-0.529c0.311,0.293,0.629,0.578,0.952,0.857c-0.41,1.207-1.037,3.521-0.09,4.21
		c0.944,0.686,2.942-0.615,3.966-1.379c0.367,0.224,0.742,0.437,1.12,0.645c-0.15,1.268-0.278,3.65,0.788,4.127
		c0.221,0.098,0.471,0.095,0.732,0.033c0.903,2.047,1.979,4.001,3.242,5.826c-9.136-2.367-16.882-8.171-21.794-15.945
		L319.951,317.523z M339.962,336.752c-1.666-2.439-3.007-5.109-3.953-7.879c0.276-0.272,0.521-0.538,0.721-0.766
		c0.405,0.142,0.814,0.276,1.227,0.4c0.117,1.272,0.487,3.629,1.629,3.873c1.146,0.243,2.446-1.771,3.069-2.883
		c0.422,0.053,0.847,0.098,1.275,0.133c0.266,0.856,0.767,2.209,1.449,2.944v4.716C343.536,337.244,341.728,337.062,339.962,336.752
		z M367.221,370.267c-1.104,0-2-0.894-2-2v-2h-0.001c0.001-0.414,0.127-0.798,0.342-1.118c-0.216,0.319-0.341,0.704-0.341,1.118h0v2
		C365.222,369.373,366.118,370.267,367.221,370.267L367.221,370.267z M372.333,367.542c1.166,0,2.24,0.368,3.136,0.98
		c0,0,0,0,0,0.001l0,0c0.012,0.092,0.029,0.182,0.053,0.269c0.21,0.155,0.4,0.335,0.584,0.518c-0.185-0.184-0.374-0.363-0.584-0.518
		c0.176,0.645,0.663,1.155,1.294,1.364c0.094,0.031,0.189,0.059,0.289,0.076l0,0c0.007,0.012,0.016,0.022,0.024,0.034h-0.001
		c-0.007-0.012-0.016-0.022-0.024-0.034c-0.1-0.017-0.195-0.045-0.289-0.076l0,0c-0.631-0.209-1.118-0.719-1.294-1.364l0,0
		c-0.024-0.088-0.041-0.177-0.053-0.269c-0.896-0.613-1.971-0.981-3.137-0.981c-1.166,0-2.239,0.367-3.135,0.98
		C370.092,367.91,371.167,367.542,372.333,367.542z M369.143,368.793c0.011-0.008,0.023-0.013,0.033-0.021
		C369.166,368.78,369.154,368.785,369.143,368.793c-0.044,0.161-0.107,0.314-0.188,0.456
		C369.036,369.107,369.099,368.954,369.143,368.793z M368.932,369.28c-0.076,0.129-0.163,0.251-0.266,0.358
		C368.769,369.531,368.856,369.409,368.932,369.28z M375.486,368.771c-0.881-0.639-1.96-1.021-3.128-1.027
		C373.527,367.75,374.606,368.131,375.486,368.771z M372.332,367.742c-0.009,0-0.017,0.002-0.025,0.002
		C372.315,367.744,372.323,367.742,372.332,367.742L372.332,367.742z M367.849,370.157
		C367.849,370.157,367.849,370.157,367.849,370.157c-0.094,0.031-0.189,0.059-0.289,0.076c0,0,0,0,0,0
		C367.66,370.216,367.754,370.188,367.849,370.157z M373.607,370.267c1.102,0.491,1.874,1.593,1.874,2.875
		c0,1.282-0.773,2.384-1.874,2.875h-2.55c0.391,0.174,0.821,0.275,1.276,0.275c0,0,0,0,0,0c-0.454,0-0.885-0.101-1.275-0.275
		c-1.102-0.491-1.874-1.593-1.874-2.875c0-1.282,0.772-2.384,1.874-2.875c0.391-0.174,0.821-0.275,1.275-0.275c0,0,0,0,0,0
		c-0.455,0-0.885,0.101-1.274,0.275H373.607z M371.377,376.342c-0.118-0.037-0.236-0.077-0.348-0.126
		C371.142,376.265,371.259,376.305,371.377,376.342z M372.158,376.479c-0.094-0.005-0.189-0.007-0.281-0.02
		C371.969,376.472,372.064,376.474,372.158,376.479z M371.805,376.444c-0.123-0.021-0.245-0.045-0.364-0.079
		C371.559,376.399,371.682,376.423,371.805,376.444z M372.499,376.48c-0.056,0.003-0.11,0.012-0.166,0.012c0,0,0,0,0,0
		C372.389,376.492,372.443,376.483,372.499,376.48z M372.792,376.458c-0.001,0-0.003,0.001-0.004,0.001
		C372.79,376.459,372.791,376.458,372.792,376.458z M369.222,366.267c0-1.103-0.896-2-2-2
		C368.326,364.267,369.222,365.163,369.222,366.267z M369.821,333.017c-0.314,0.18-0.548,0.443-0.698,0.756l-0.002-0.004
		c-0.195,0.407-0.512,0.723-0.886,0.936c-0.055-0.441-0.134-0.861-0.21-1.212c0.597-0.395,1.184-0.802,1.758-1.228
		c0.27,0.17,0.591,0.36,0.938,0.543C370.412,332.797,370.101,332.861,369.821,333.017z M375.697,329.089l-0.003-0.004
		c-0.149,0.904-0.863,1.605-1.742,1.77c-0.152-0.597-0.368-1.182-0.554-1.637c0.517-0.49,1.02-0.993,1.51-1.51
		c0.359,0.147,0.797,0.311,1.261,0.449c-0.004,0.004-0.009,0.007-0.013,0.011C375.904,328.428,375.752,328.744,375.697,329.089z
		 M379.194,325.076l0.004,0.002c-0.193,0.061-0.371,0.162-0.534,0.284c-0.228-0.47-0.486-0.913-0.709-1.268
		c0.426-0.573,0.833-1.161,1.228-1.758c0.44,0.095,0.989,0.193,1.55,0.244c0,0.058-0.013,0.117-0.007,0.175l-0.004-0.002
		C380.83,323.786,380.185,324.77,379.194,325.076z M383.085,317.941l0.004,0.002c-0.296,0.184-0.537,0.445-0.683,0.779
		c-0.058,0.136-0.091,0.277-0.112,0.419c-0.256-0.335-0.519-0.642-0.749-0.895c0.32-0.638,0.625-1.285,0.91-1.942
		c0.477,0.018,1.077,0.02,1.671-0.038C384.053,316.941,383.687,317.57,383.085,317.941z M385.679,309.609
		c-0.1,0.156-0.213,0.306-0.354,0.436l0.004,0.001c-0.25,0.242-0.445,0.548-0.516,0.91c-0.19,0.916,0.396,1.845,1.342,2.088
		c-0.262-0.063-0.522-0.061-0.769-0.015c-0.433-0.449-0.921-0.857-1.317-1.163c0.203-0.683,0.386-1.374,0.552-2.072
		C384.935,309.751,385.299,309.69,385.679,309.609z M384.07,289.42c0.231-0.179,0.491-0.392,0.757-0.629
		c-0.172,0.36-0.23,0.771-0.128,1.173c0.09,0.355,0.295,0.651,0.554,0.879h-0.004c0.285,0.242,0.49,0.545,0.62,0.876
		c-0.446-0.104-0.881-0.176-1.247-0.226C384.456,290.795,384.273,290.103,384.07,289.42z M383.764,284.992
		c-0.471-0.028-0.927-0.023-1.307-0.008c-0.286-0.658-0.591-1.305-0.911-1.944c0.139-0.153,0.288-0.325,0.443-0.512
		c0.16,0.241,0.365,0.441,0.609,0.578l-0.004,0.001C383.304,283.489,383.73,284.219,383.764,284.992z M379.976,278.397l0.004-0.003
		c-0.007,0.133,0.013,0.266,0.034,0.398c-0.302,0.047-0.583,0.102-0.831,0.156c-0.395-0.596-0.802-1.184-1.227-1.757
		c0.184-0.291,0.39-0.642,0.585-1.02C379.441,276.523,380.041,277.415,379.976,278.397z M374.82,272.031l0.004-0.004
		c0.048,0.349,0.197,0.673,0.449,0.939c0.124,0.131,0.269,0.231,0.421,0.315c-0.287,0.099-0.552,0.201-0.786,0.297
		c-0.49-0.517-0.993-1.021-1.51-1.51c0.174-0.425,0.371-0.963,0.52-1.518C374.391,270.898,374.729,271.423,374.82,272.031z
		 M368.479,266.836c0.119,0.327,0.331,0.615,0.629,0.83c0.763,0.528,1.843,0.363,2.443-0.407c-0.224,0.3-0.342,0.644-0.364,0.988
		c-0.52,0.242-1.015,0.529-1.403,0.774c-0.573-0.426-1.161-0.833-1.758-1.227c0.086-0.397,0.174-0.884,0.228-1.388
		c0.087,0.136,0.164,0.279,0.221,0.435L368.479,266.836z M362.002,263.709c0.002,0.001,0.003,0.003,0.006,0.004
		c0.851,0.362,1.874-0.016,2.306-0.889c-0.326,0.703-0.172,1.496,0.314,2.014c-0.257,0.205-0.491,0.408-0.692,0.591
		c-0.638-0.32-1.285-0.625-1.943-0.91C362.003,264.275,362.007,264.001,362.002,263.709z M348.695,261.35
		c-0.107-0.335-0.246-0.728-0.414-1.13c0.036-0.001,0.072-0.003,0.107-0.004c0.307,0.334,0.731,0.549,1.198,0.57
		c0.363,0.021,0.704-0.085,0.997-0.27l-0.001,0.004c0.326-0.207,0.692-0.317,1.06-0.336c-0.324,0.464-0.604,0.952-0.814,1.352
		C350.122,261.456,349.412,261.392,348.695,261.35z M341.949,339.99l0.001,0.004c-0.066-0.032-0.14-0.042-0.209-0.066
		c0.033-0.061,0.065-0.12,0.095-0.178c0.706,0.08,1.416,0.144,2.133,0.186c0.011,0.034,0.02,0.065,0.032,0.101
		C343.354,340.308,342.608,340.307,341.949,339.99z M357,376.017c1.104,0,2,0.896,2,2C359,376.914,358.104,376.017,357,376.017z
		 M366.221,376.017c-0.167-0.296-0.33-0.597-0.462-0.924l-1.949-4.826l-1.616-3.999h0.001l1.616,3.999h-0.001l1.949,4.826
		C365.891,375.42,366.054,375.721,366.221,376.017L366.221,376.017z M366.733,373.142c0-1.052,0.297-2.033,0.803-2.875h-0.001
		c0.008-0.012,0.017-0.022,0.024-0.034c0,0,0.001,0,0.001,0c-0.007,0.012-0.016,0.022-0.023,0.034
		C367.03,371.109,366.734,372.09,366.733,373.142c0.001,1.052,0.298,2.033,0.804,2.875c0.007,0.012,0.016,0.022,0.024,0.034
		c0.1,0.017,0.195,0.045,0.289,0.076c0,0,0,0,0,0c0.63,0.21,1.117,0.72,1.294,1.364c0.894,0.659,1.996,1.051,3.19,1.051c0,0,0,0,0,0
		c-1.194,0-2.296-0.392-3.19-1.051c0.024,0.088,0.041,0.177,0.053,0.27c0.896,0.613,1.971,0.981,3.136,0.981c0,0,0,0,0,0
		c-1.166,0-2.24-0.368-3.136-0.98c0,0,0,0,0-0.001c-0.001,0-0.001-0.001-0.001-0.001c-0.012-0.091-0.029-0.181-0.053-0.268
		c-0.209-0.154-0.397-0.333-0.581-0.515c0.184,0.183,0.372,0.361,0.582,0.515c-0.177-0.645-0.664-1.155-1.294-1.364
		c-0.093-0.031-0.189-0.058-0.288-0.075c0-0.001-0.001-0.001-0.001-0.002h0c-0.007-0.012-0.016-0.022-0.024-0.034
		C367.029,375.175,366.733,374.194,366.733,373.142z M369.221,378.879c-0.153-0.071-0.308-0.124-0.456-0.21
		c-0.045-0.026-0.085-0.064-0.129-0.091c0.044,0.027,0.085,0.065,0.129,0.09C368.913,378.755,369.069,378.808,369.221,378.879
		L369.221,378.879z M370.712,379.34c-0.505-0.061-1.004-0.234-1.49-0.46v-0.001c0.487,0.226,0.984,0.399,1.489,0.46
		c0.663,0.082,1.329,0.017,1.965-0.219l2.767-1.019v-0.084c0-0.088,0.015-0.171,0.026-0.255c0,0,0,0,0,0
		c-0.011,0.085-0.026,0.168-0.026,0.255v0.084v0.001l-2.766,1.019C372.041,379.356,371.375,379.422,370.712,379.34z
		 M377.105,376.051c-0.417,0.681-0.977,1.259-1.635,1.709v0C376.127,377.31,376.688,376.732,377.105,376.051
		c-0.099,0.017-0.193,0.045-0.287,0.075c0,0,0,0,0,0c0.093-0.031,0.187-0.058,0.285-0.075c0.111-0.019,0.223-0.034,0.339-0.034
		C377.327,376.017,377.215,376.032,377.105,376.051z M379.955,372.462c0-0.355-0.03-0.719-0.088-1.086
		C379.925,371.743,379.955,372.106,379.955,372.462c0.001,0.791-0.129,1.543-0.372,2.223
		C379.826,374.005,379.955,373.253,379.955,372.462z M387.583,376.017L387.583,376.017l-0.001-5.75h0.001V376.017z M389.625,377.614
		c-0.184-0.897-0.971-1.574-1.919-1.593C388.654,376.04,389.441,376.716,389.625,377.614z"/>
	<circle fill="#FFFFFF" cx="372.333" cy="373.142" r="2.062"/>
	<path fill="#FFFFFF" d="M273.269,263.406c0.383-0.018,0.729-0.16,1.008-0.382v0.005c0.84-0.66,2.005-0.717,2.905-0.139v-0.006
		c0.299,0.193,0.658,0.303,1.04,0.283c0.975-0.047,1.728-0.874,1.686-1.847c0.051,0.974,0.878,1.724,1.854,1.68
		c0.382-0.018,0.729-0.159,1.009-0.38v0.005c0.841-0.659,2.006-0.715,2.904-0.136v-0.005c0.3,0.193,0.657,0.302,1.04,0.285
		c0.973-0.046,1.726-0.869,1.687-1.841c0.052,0.971,0.878,1.722,1.851,1.679c0.383-0.017,0.729-0.158,1.01-0.379v0.004
		c0.841-0.657,2.007-0.709,2.904-0.13l-0.001-0.005c0.299,0.193,0.657,0.305,1.04,0.287c0.977-0.044,1.734-0.871,1.692-1.849
		c-0.043-0.978-0.87-1.736-1.848-1.692c-0.384,0.018-0.731,0.156-1.011,0.377l-0.001-0.005c-0.843,0.657-2.008,0.709-2.907,0.13
		v0.005c-0.299-0.194-0.657-0.302-1.041-0.285c-0.974,0.045-1.727,0.868-1.688,1.842c-0.05-0.973-0.876-1.725-1.85-1.679
		c-0.384,0.016-0.73,0.158-1.011,0.379l-0.001-0.004c-0.841,0.657-2.007,0.712-2.906,0.135v0.004
		c-0.3-0.193-0.658-0.301-1.042-0.284c-0.975,0.048-1.728,0.876-1.685,1.851c-0.049-0.976-0.877-1.729-1.853-1.683
		c-0.383,0.018-0.729,0.16-1.009,0.381l-0.001-0.005c-0.839,0.661-2.005,0.716-2.905,0.141v0.005
		c-0.3-0.193-0.659-0.301-1.042-0.282c-0.977,0.048-1.731,0.878-1.683,1.856C271.461,262.699,272.292,263.453,273.269,263.406z"/>
	<path fill="#FFFFFF" d="M264.776,263.822c0.383-0.019,0.729-0.161,1.008-0.382v0.005c0.84-0.662,2.006-0.719,2.905-0.144
		l-0.001-0.005c0.3,0.193,0.658,0.301,1.042,0.282c0.977-0.048,1.73-0.88,1.683-1.856c-0.048-0.978-0.879-1.731-1.856-1.685
		c-0.383,0.019-0.729,0.161-1.009,0.382v-0.004c-0.839,0.66-2.005,0.717-2.906,0.142v0.005c-0.299-0.193-0.658-0.299-1.041-0.281
		c-0.977,0.049-1.73,0.88-1.682,1.858C262.967,263.117,263.8,263.87,264.776,263.822z"/>
	<path fill="#FFFFFF" d="M256.284,264.244c0.383-0.02,0.729-0.161,1.008-0.383v0.005c0.839-0.662,2.005-0.72,2.905-0.145
		l-0.001-0.005c0.301,0.193,0.66,0.299,1.042,0.281c0.977-0.049,1.729-0.881,1.681-1.858c-0.048-0.979-0.88-1.732-1.857-1.683
		c-0.382,0.02-0.729,0.161-1.008,0.383v-0.005c-0.839,0.661-2.004,0.719-2.906,0.146l0.001,0.004c-0.3-0.192-0.658-0.299-1.041-0.28
		c-0.978,0.048-1.73,0.88-1.681,1.858C254.475,263.539,255.307,264.293,256.284,264.244z"/>
	<path fill="#FFFFFF" d="M247.791,264.669c0.383-0.02,0.729-0.162,1.008-0.384v0.005c0.838-0.662,2.004-0.721,2.905-0.145v-0.006
		c0.3,0.192,0.659,0.3,1.042,0.281c0.977-0.05,1.729-0.883,1.681-1.86c-0.049-0.978-0.881-1.73-1.858-1.681
		c-0.383,0.019-0.729,0.162-1.009,0.383v-0.004c-0.838,0.661-2.004,0.72-2.905,0.145v0.006c-0.3-0.193-0.658-0.301-1.042-0.281
		c-0.977,0.05-1.729,0.881-1.681,1.859C245.981,263.964,246.813,264.718,247.791,264.669z"/>
	<path fill="#FFFFFF" d="M230.803,265.516c0.383-0.018,0.728-0.16,1.007-0.382l0.001,0.005c0.84-0.661,2.005-0.72,2.906-0.145
		v-0.004c0.3,0.191,0.658,0.3,1.041,0.28c0.975-0.049,1.726-0.878,1.681-1.853c0.053,0.976,0.883,1.727,1.858,1.677
		c0.383-0.019,0.729-0.161,1.008-0.383v0.004c0.839-0.662,2.005-0.72,2.906-0.145l-0.001-0.004c0.3,0.192,0.658,0.3,1.04,0.28
		c0.979-0.049,1.73-0.882,1.681-1.858c-0.048-0.979-0.881-1.73-1.858-1.682c-0.382,0.02-0.729,0.161-1.008,0.383v-0.006
		c-0.839,0.662-2.004,0.723-2.904,0.147v0.004c-0.3-0.192-0.659-0.299-1.042-0.28c-0.975,0.05-1.725,0.879-1.681,1.852
		c-0.051-0.974-0.881-1.725-1.856-1.677c-0.383,0.02-0.729,0.161-1.008,0.383v-0.004c-0.839,0.662-2.005,0.719-2.905,0.143v0.006
		c-0.3-0.192-0.658-0.3-1.041-0.281c-0.977,0.048-1.73,0.881-1.682,1.857C228.994,264.811,229.825,265.565,230.803,265.516z"/>
	<path fill="#FFFFFF" d="M222.307,265.932c0.384-0.017,0.73-0.16,1.009-0.38v0.004c0.84-0.66,2.006-0.718,2.906-0.143l-0.001-0.004
		c0.3,0.193,0.659,0.301,1.042,0.281c0.977-0.049,1.731-0.88,1.683-1.857c-0.048-0.977-0.879-1.73-1.856-1.684
		c-0.383,0.02-0.729,0.161-1.008,0.383v-0.005c-0.839,0.661-2.005,0.717-2.904,0.142v0.004c-0.3-0.192-0.658-0.3-1.041-0.281
		c-0.977,0.048-1.731,0.879-1.684,1.855C220.498,265.226,221.329,265.98,222.307,265.932z"/>
	<path fill="#FFFFFF" d="M213.809,266.337c0.384-0.018,0.729-0.158,1.01-0.379v0.004c0.841-0.658,2.006-0.714,2.906-0.137
		l-0.001-0.006c0.301,0.193,0.659,0.301,1.042,0.283c0.977-0.047,1.731-0.877,1.685-1.855c-0.048-0.977-0.878-1.732-1.855-1.685
		c-0.382,0.018-0.729,0.159-1.009,0.38v-0.004c-0.839,0.659-2.005,0.715-2.904,0.137v0.006c-0.3-0.193-0.657-0.302-1.04-0.283
		c-0.977,0.044-1.732,0.874-1.687,1.852C212.002,265.628,212.831,266.384,213.809,266.337z"/>
	<path fill="#FFFFFF" d="M205.31,266.728c0.383-0.018,0.73-0.158,1.011-0.379v0.006c0.843-0.658,2.008-0.711,2.907-0.133v-0.004
		c0.3,0.193,0.657,0.302,1.04,0.284c0.978-0.045,1.734-0.875,1.688-1.853c-0.045-0.977-0.875-1.732-1.852-1.688
		c-0.383,0.019-0.729,0.159-1.009,0.38v-0.005c-0.841,0.657-2.007,0.711-2.904,0.132v0.004c-0.299-0.194-0.656-0.303-1.039-0.287
		c-0.978,0.045-1.734,0.873-1.691,1.851C203.504,266.013,204.333,266.771,205.31,266.728z"/>
	<path fill="#FFFFFF" d="M196.809,267.095c0.383-0.017,0.73-0.155,1.011-0.375v0.005c0.846-0.655,2.012-0.706,2.908-0.124
		l-0.001-0.006c0.298,0.195,0.656,0.305,1.04,0.289c0.978-0.043,1.736-0.871,1.693-1.849c-0.044-0.978-0.871-1.736-1.847-1.692
		c-0.383,0.017-0.73,0.155-1.01,0.375l-0.001-0.004c-0.842,0.655-2.009,0.705-2.905,0.123l0.001,0.005
		c-0.298-0.194-0.655-0.305-1.039-0.289c-0.976,0.04-1.735,0.866-1.696,1.844C195.003,266.375,195.83,267.134,196.809,267.095z"/>
	<path fill="#FFFFFF" d="M171.271,267.931c0.384-0.008,0.735-0.141,1.022-0.353v0.005c0.859-0.637,2.026-0.664,2.914-0.067v-0.005
		c0.296,0.2,0.652,0.317,1.037,0.307c0.979-0.026,1.749-0.84,1.724-1.816c0.03,0.977,0.845,1.744,1.823,1.715
		c0.384-0.013,0.733-0.147,1.017-0.364l0.001,0.005c0.852-0.646,2.018-0.684,2.91-0.094v-0.005c0.297,0.197,0.654,0.311,1.039,0.297
		c0.977-0.033,1.741-0.852,1.709-1.829c0.038,0.977,0.859,1.739,1.835,1.702c0.383-0.014,0.732-0.151,1.015-0.369v0.005
		c0.847-0.651,2.013-0.696,2.908-0.112v-0.004c0.297,0.195,0.656,0.307,1.039,0.291c0.979-0.04,1.74-0.865,1.699-1.843
		c-0.039-0.978-0.864-1.739-1.84-1.7c-0.383,0.016-0.73,0.154-1.011,0.373v-0.005c-0.845,0.652-2.012,0.697-2.905,0.112v0.004
		c-0.296-0.197-0.654-0.309-1.036-0.294c-0.975,0.037-1.737,0.854-1.705,1.83c-0.038-0.976-0.856-1.737-1.831-1.704
		c-0.383,0.014-0.73,0.15-1.012,0.367v-0.005c-0.849,0.648-2.016,0.686-2.904,0.094v0.005c-0.295-0.197-0.651-0.312-1.034-0.3
		c-0.976,0.028-1.742,0.844-1.718,1.819c-0.031-0.977-0.843-1.744-1.817-1.719c-0.382,0.011-0.73,0.144-1.016,0.358v-0.005
		c-0.852,0.64-2.019,0.667-2.902,0.067v0.004c-0.293-0.201-0.647-0.318-1.029-0.31c-0.975,0.018-1.752,0.823-1.738,1.803
		C169.48,267.169,170.288,267.951,171.271,267.931z"/>
	<path fill="#FFFFFF" d="M160.346,357.277c-0.378-0.031-0.733,0.06-1.039,0.242l0.001-0.004c-0.913,0.538-2.076,0.42-2.855-0.297
		l-0.001,0.005c-0.26-0.237-0.588-0.405-0.961-0.452c-0.95-0.119-1.833,0.547-1.98,1.515c0.141-0.968-0.512-1.865-1.447-2.027
		c-0.368-0.064-0.727-0.002-1.043,0.147l0.001-0.004c-0.95,0.454-2.096,0.207-2.765-0.599l-0.001,0.003
		c-0.224-0.268-0.518-0.474-0.872-0.569c-0.192-0.052-0.386-0.063-0.577-0.048c0.2-0.411,0.364-0.844,0.489-1.217
		c0.849,0.75,2.244,1.789,3.036,1.332c0.792-0.458,0.59-2.186,0.365-3.296c1.111,0.225,2.837,0.427,3.295-0.366
		c0.457-0.793-0.582-2.187-1.332-3.036c1.074-0.361,2.671-1.049,2.671-1.964c-0.001-0.834-1.326-1.479-2.375-1.86
		c5.878-4.147,14.009-10.129,17.724-14.186c2.697-0.333,4.786-2.627,4.786-5.414c0-0.638-0.115-1.247-0.316-1.816
		c3.596-3.153,4.034-10.326-4.412-20.862c0.123-0.125,0.234-0.262,0.354-0.39c1.06,0.385,3.772,1.24,4.527,0.2
		c0.75-1.034-0.878-3.328-1.578-4.227c0.209-0.379,0.392-0.773,0.577-1.167c1.13,0.039,3.967,0.012,4.364-1.209
		c0.395-1.216-1.869-2.897-2.811-3.534c0.081-0.424,0.143-0.855,0.197-1.289c1.088-0.313,3.773-1.215,3.773-2.498
		c0-1.281-2.685-2.181-3.773-2.493c-0.054-0.433-0.116-0.864-0.197-1.288c0.942-0.637,3.205-2.319,2.81-3.537
		c-0.397-1.219-3.231-1.245-4.362-1.206c-0.185-0.394-0.369-0.79-0.579-1.17c0.701-0.9,2.326-3.193,1.575-4.227
		c-0.755-1.038-3.462-0.185-4.523,0.201c-0.296-0.315-0.6-0.62-0.915-0.915c0.385-1.061,1.238-3.771,0.198-4.526
		c-1.033-0.749-3.325,0.876-4.225,1.577c-0.38-0.21-0.775-0.393-1.169-0.578c0.023-0.673,0.02-1.946-0.242-2.956
		c0.661-0.131,1.362-0.003,1.94,0.398v-0.004c0.293,0.203,0.649,0.326,1.034,0.32c0.982-0.012,1.766-0.819,1.749-1.797
		c-0.016-0.979-0.82-1.76-1.793-1.748c-0.382,0.006-0.731,0.134-1.018,0.344v-0.004c-0.861,0.627-2.03,0.636-2.896,0.017v0.005
		c-0.29-0.206-0.641-0.332-1.021-0.333c-0.97-0.001-1.765,0.784-1.774,1.765c-0.005,0.393,0.125,0.754,0.341,1.05
		c-0.448,0.512-0.826,1.04-1.063,1.391c-0.424-0.081-0.854-0.143-1.287-0.196c-0.046-0.159-0.103-0.35-0.174-0.564
		c0.123,0.03,0.244,0.065,0.377,0.068c0.99,0.018,1.797-0.771,1.804-1.748c0.007-0.98-0.772-1.779-1.739-1.796
		c-0.377-0.009-0.727,0.108-1.046,0.316v-0.005c-0.268,0.175-0.559,0.29-0.857,0.372c-0.263-0.255-0.551-0.416-0.862-0.416
		c-0.296,0-0.571,0.145-0.825,0.379c-0.176-0.055-0.355-0.103-0.523-0.19l0.001,0.006c-0.328-0.183-0.717-0.25-1.125-0.195
		c-1.052,0.156-1.71,1.125-1.485,2.074c0.185,0.788,0.825,1.333,1.541,1.428c-0.03,0.099-0.057,0.189-0.081,0.272
		c-0.433,0.054-0.863,0.115-1.287,0.196c-0.104-0.154-0.235-0.34-0.388-0.547c0.224-0.387,0.315-0.864,0.214-1.347
		c-0.2-0.959-1.205-1.553-2.228-1.25c-0.225,0.073-0.419,0.187-0.593,0.321c-0.187-0.039-0.369-0.043-0.541,0.013
		c-0.445,0.145-0.728,0.618-0.91,1.212c-0.53,0.262-1.125,0.386-1.739,0.312l0.002,0.004c-0.372-0.054-0.762,0.026-1.127,0.218
		c-0.674,0.382-0.997,1.084-0.915,1.75c-0.732-0.322-1.45-0.468-1.914-0.131c-0.172,0.125-0.29,0.307-0.369,0.523
		c-0.315,0.251-0.521,0.585-0.617,0.934l-0.003-0.004c-0.299,1.073-1.124,1.889-2.202,2.175l0.003,0.003
		c-0.362,0.092-0.706,0.301-0.965,0.624c-0.137,0.169-0.229,0.353-0.298,0.541c-0.337,0.068-0.615,0.205-0.788,0.444
		c-0.249,0.343-0.232,0.826-0.078,1.349c-0.396,0.133-0.757,0.404-0.996,0.816c-0.204,0.36-0.281,0.754-0.234,1.125l-0.003-0.002
		c0.095,0.885-0.197,1.734-0.772,2.382c-0.627,0.181-1.132,0.47-1.282,0.933c-0.084,0.258-0.041,0.538,0.077,0.824
		c-0.095,0.884,0.465,1.689,1.306,1.869c0.118,0.026,0.235,0.039,0.351,0.043c0.408,0.333,0.799,0.611,1.078,0.799
		c-0.027,0.143-0.042,0.291-0.066,0.435c-0.18-0.6-0.676-1.108-1.361-1.275c-0.949-0.233-1.928,0.421-2.083,1.475
		c-0.067,0.407,0.023,0.804,0.187,1.128h-0.004c0.126,0.24,0.215,0.492,0.274,0.747c-0.533,0.364-0.917,0.792-0.917,1.274
		c0,0.359,0.217,0.686,0.544,0.981c-0.015,0.025-0.021,0.054-0.037,0.078h0.004c-0.204,0.308-0.319,0.693-0.292,1.103
		c0.049,0.935,0.761,1.62,1.595,1.674c-0.566,0.37-0.896,1.074-0.744,1.83c0.043,0.235,0.142,0.44,0.263,0.627
		c-0.19,0.356-0.276,0.707-0.172,1.026c0.155,0.478,0.685,0.773,1.341,0.952c0.085,0.431,0.098,0.88-0.016,1.325l0.004-0.003
		c-0.098,0.357-0.077,0.749,0.065,1.132c0.368,0.927,1.362,1.35,2.221,1.024c-0.022,0.045-0.047,0.09-0.068,0.135
		c-0.554,0.513-0.73,1.37-0.331,2.114c0.186,0.359,0.478,0.623,0.811,0.782l-0.003,0.003c0.981,0.484,1.608,1.464,1.616,2.562
		l0.003-0.004c0.011,0.371,0.095,0.726,0.365,1.084c0.595,0.789,1.56,0.935,2.244,0.53c-0.276,0.674-0.077,1.526,0.618,2.048
		c0.341,0.258,0.736,0.376,1.111,0.379l-0.003,0.004c1.124,0.008,2.14,0.566,2.708,1.518l0.001-0.004
		c0.187,0.317,0.477,0.593,0.851,0.753c0.959,0.416,2.014-0.046,2.348-0.963c-0.347,0.912,0.155,1.951,1.129,2.264
		c0.379,0.124,0.766,0.112,1.11-0.001l-0.001,0.006c1.035-0.334,2.158-0.029,2.869,0.785l0.001-0.004
		c0.235,0.272,0.556,0.48,0.936,0.569c0.178,0.043,0.353,0.049,0.526,0.038c2.727,4.518,5.457,7.461,8.348,9.04
		c-0.119,0.448-0.188,0.916-0.188,1.401c0,0.603,0.102,1.182,0.282,1.725c-4.234,0.723-11.192,2.488-19.472,6.804
		c-5.261,2.742-7.973,5.223-8.28,7.573c-0.174,0.086-0.316,0.202-0.406,0.358c-0.287,0.497,0.018,1.232,0.468,1.921
		c-0.58,0.173-1.081,0.676-1.219,1.408c-0.049,0.25-0.042,0.493,0.002,0.721c-0.353,0.28-0.591,0.598-0.591,0.95
		c0,0.506,0.49,0.942,1.107,1.293c-0.022,0.488-0.134,0.972-0.368,1.422h0.005c-0.176,0.346-0.263,0.703-0.188,1.178
		c0.109,0.664,0.513,1.189,0.97,1.416c0.14,0.072,0.283,0.109,0.427,0.132c0.177,0.057,0.377,0.092,0.591,0.109
		c-0.215,0.232-0.359,0.526-0.381,0.864c-0.039,0.501,0.176,1.079,0.611,1.496c0.338,0.329,0.749,0.5,1.138,0.536l-0.003,0.004
		c1.161,0.119,2.17,0.674,2.767,1.635l0.002-0.005c0.194,0.319,0.497,0.589,0.881,0.745c0.921,0.374,1.885-0.044,2.253-0.856
		c0.012,0.003,0.024,0.003,0.035,0.006c-0.193,0.877,0.339,1.783,1.27,2.039c0.386,0.105,0.774,0.076,1.115-0.053l-0.001,0.004
		c1.021-0.381,2.158-0.139,2.921,0.634v-0.005c0.253,0.262,0.587,0.446,0.975,0.516c0.994,0.173,1.913-0.498,2.053-1.466
		c-0.148,0.967,0.537,1.875,1.529,2.003c0.388,0.047,0.76-0.031,1.076-0.205v0.006c0.948-0.512,2.109-0.393,2.93,0.305v-0.006
		c0.273,0.231,0.619,0.39,1.006,0.42c0.99,0.084,1.847-0.654,1.913-1.63C162.032,358.201,161.306,357.357,160.346,357.277z
		 M149.288,336.367c0.33,0.107,0.688,0.12,1.039,0.014c0.888-0.275,1.424-1.236,1.179-2.182c0.262,0.942,1.205,1.504,2.124,1.288
		c0.362-0.085,0.669-0.283,0.903-0.547l0.001,0.005c0.372-0.421,0.871-0.678,1.401-0.762c-1.862,1.324-3.722,2.626-5.482,3.898
		c-0.039-0.034-0.075-0.072-0.121-0.099c-0.793-0.457-2.186,0.58-3.035,1.33c-0.179-0.532-0.438-1.188-0.766-1.719
		c0.057-0.074,0.123-0.141,0.168-0.224l0.002,0.004c0.5-0.904,1.597-1.324,2.588-1.002L149.288,336.367z M143.633,337.338
		c0.108,0.173,0.242,0.317,0.388,0.443c-0.049,0.089-0.096,0.181-0.142,0.273C143.844,337.81,143.766,337.567,143.633,337.338
		c-0.266-0.455-0.728-0.729-1.234-0.787c0.35-0.229,0.726-0.462,1.118-0.696C143.325,336.335,143.345,336.882,143.633,337.338z
		 M149.933,310.853c-0.04,0.073-0.081,0.146-0.112,0.226c0.024-0.068,0.036-0.136,0.053-0.204
		C149.894,310.867,149.914,310.86,149.933,310.853z M147.779,269.969l0.003,0.005c0.04-0.082,0.09-0.155,0.139-0.23
		c0.001,0.183,0.004,0.346,0.009,0.486c-0.2,0.094-0.401,0.187-0.598,0.288C147.515,270.362,147.672,270.18,147.779,269.969z
		 M142.531,273.156c0.074,0.232,0.144,0.435,0.204,0.6c-0.315,0.295-0.619,0.599-0.914,0.914c-0.084-0.031-0.178-0.064-0.282-0.099
		C141.648,273.969,142.019,273.457,142.531,273.156z M138.553,279.086l-0.004-0.002c0.065-0.032,0.119-0.081,0.18-0.119
		c-0.156,0.294-0.292,0.6-0.434,0.902c-0.169-0.006-0.372-0.01-0.603-0.009C137.895,279.532,138.187,279.258,138.553,279.086z
		 M136.547,290.891c0.054,0.433,0.115,0.863,0.196,1.286c-0.05,0.034-0.101,0.068-0.158,0.108c-0.271-0.186-0.595-0.302-0.944-0.324
		c0.414-0.249,0.709-0.643,0.828-1.093C136.495,290.876,136.522,290.884,136.547,290.891z M138.627,297.824
		c-0.124-0.338-0.364-0.6-0.648-0.793l0.004-0.002c-0.045-0.029-0.081-0.066-0.123-0.098c0.163-0.001,0.311-0.004,0.437-0.008
		c0.185,0.393,0.367,0.786,0.577,1.165c-0.045,0.058-0.092,0.119-0.145,0.189C138.713,298.123,138.685,297.971,138.627,297.824z
		 M140.51,302.526c0.524-0.137,0.992-0.295,1.312-0.412c0.295,0.315,0.599,0.619,0.914,0.914c-0.113,0.312-0.266,0.763-0.401,1.27
		c-0.123-0.081-0.252-0.157-0.39-0.2l0.004-0.002C141.221,303.85,140.686,303.244,140.51,302.526z M145.505,307.369l-0.002,0.004
		c-0.047-0.142-0.116-0.272-0.195-0.395c0.59-0.35,1.118-0.739,1.455-1.001c0.379,0.21,0.774,0.393,1.168,0.578
		c-0.017,0.498-0.02,1.326,0.085,2.135c-0.05,0.006-0.1-0.001-0.15,0.009l0.002-0.004
		C146.859,308.905,145.828,308.333,145.505,307.369z M152.889,310.585l-0.001,0.004c-0.21-0.281-0.499-0.5-0.85-0.613
		c-0.276-0.089-0.559-0.096-0.831-0.048c0.619-0.622,1.162-1.37,1.467-1.821c0.081,0.015,0.164,0.023,0.244,0.037
		c0.553,1.183,1.104,2.299,1.653,3.35C153.919,311.444,153.3,311.129,152.889,310.585z M163.976,328.051
		c-0.991,0.85-2.047,1.698-3.149,2.543c-0.232,0.109-0.433,0.263-0.594,0.453c-0.263,0.198-0.525,0.397-0.791,0.595
		c-0.392-0.47-1.015-0.73-1.669-0.614c-0.383,0.067-0.714,0.255-0.963,0.514l-0.001-0.005c-0.755,0.771-1.898,0.997-2.898,0.587
		l0.001,0.005c-0.333-0.141-0.713-0.181-1.097-0.089c-0.982,0.23-1.568,1.21-1.311,2.151c-0.251-0.943-1.248-1.5-2.225-1.196
		c-0.381,0.118-0.694,0.351-0.913,0.645l-0.001-0.004c-0.661,0.875-1.747,1.286-2.835,1.098l0.002,0.005
		c-0.008-0.001-0.016,0.001-0.024-0.001c0.102-0.054,0.198-0.107,0.302-0.161C153.356,330.642,159.773,328.859,163.976,328.051z
		 M139.968,338.402c-0.091,0.188-0.145,0.416-0.174,0.665c-0.341,0.446-0.778,0.811-1.295,1.08
		C138.825,339.587,139.313,339.005,139.968,338.402z M143.21,354.11c0.056-0.048,0.107-0.093,0.159-0.139
		c0.014,0.041,0.028,0.082,0.042,0.125c-0.062,0.007-0.124,0.001-0.186,0.015l0.002-0.003
		C143.221,354.109,143.215,354.109,143.21,354.11z"/>
	<path fill="#FFFFFF" d="M185.649,357.736c-0.383,0.01-0.729,0.143-1.014,0.357v-0.004c-0.852,0.639-2.02,0.663-2.896,0.059v0.004
		c-0.292-0.203-0.646-0.323-1.027-0.316c-0.97,0.012-1.752,0.809-1.749,1.785c-0.011-0.976-0.803-1.763-1.773-1.76
		c-0.381,0-0.732,0.125-1.021,0.332v-0.003c-0.868,0.616-2.035,0.608-2.893-0.022l-0.001,0.006
		c-0.286-0.213-0.635-0.341-1.015-0.348c-0.967-0.016-1.773,0.755-1.8,1.731c0.02-0.976-0.746-1.783-1.713-1.815
		c-0.38-0.011-0.733,0.1-1.028,0.297l-0.001-0.004c-0.887,0.586-2.054,0.535-2.883-0.129l-0.001,0.004
		c-0.276-0.223-0.618-0.365-0.996-0.389c-0.964-0.055-1.801,0.68-1.872,1.657c-0.07,0.976,0.675,1.825,1.664,1.882
		c0.387,0.025,0.75-0.082,1.053-0.273v0.004c0.909-0.57,2.074-0.52,2.928,0.133v-0.006c0.285,0.217,0.636,0.354,1.022,0.367
		c0.985,0.031,1.802-0.741,1.826-1.718c-0.021,0.977,0.758,1.788,1.743,1.804c0.386,0.006,0.743-0.115,1.038-0.317v0.005
		c0.882-0.607,2.049-0.6,2.924,0.02v-0.004c0.291,0.207,0.645,0.332,1.031,0.332c0.984-0.003,1.774-0.801,1.769-1.777
		c0.009,0.976,0.811,1.761,1.794,1.749c0.385-0.006,0.737-0.135,1.025-0.348v0.005c0.865-0.63,2.031-0.655,2.92-0.058l-0.001-0.004
		c0.296,0.199,0.653,0.316,1.039,0.307c0.983-0.027,1.754-0.846,1.724-1.824C187.436,358.478,186.622,357.711,185.649,357.736z"/>
	<path fill="#FFFFFF" d="M194.114,357.429c-0.381,0.018-0.726,0.158-1.007,0.377l-0.001-0.004c-0.84,0.655-2.006,0.703-2.897,0.115
		v0.006c-0.297-0.197-0.652-0.309-1.034-0.296c-0.973,0.033-1.738,0.853-1.709,1.829c0.029,0.979,0.85,1.748,1.833,1.714
		c0.385-0.014,0.734-0.149,1.017-0.367v0.003c0.851-0.65,2.016-0.698,2.916-0.116l-0.001-0.005c0.299,0.193,0.659,0.302,1.043,0.285
		c0.982-0.045,1.738-0.876,1.689-1.854C195.916,358.14,195.087,357.384,194.114,357.429z"/>
	<path fill="#FFFFFF" d="M211.042,356.412c-0.381,0.029-0.723,0.178-0.997,0.404l-0.001-0.004c-0.822,0.68-1.987,0.762-2.896,0.201
		l0.001,0.006c-0.303-0.188-0.663-0.288-1.044-0.264c-0.973,0.064-1.711,0.904-1.651,1.879c-0.066-0.974-0.903-1.715-1.874-1.653
		c-0.382,0.021-0.725,0.168-1.002,0.392v-0.006c-0.831,0.67-1.997,0.736-2.898,0.164l0.001,0.004c-0.3-0.191-0.658-0.297-1.04-0.277
		c-0.973,0.051-1.724,0.881-1.677,1.859c0.047,0.978,0.881,1.732,1.861,1.68c0.384-0.02,0.731-0.162,1.011-0.385v0.004
		c0.838-0.664,2.003-0.729,2.912-0.164v-0.004c0.302,0.189,0.663,0.293,1.047,0.27c0.979-0.059,1.721-0.899,1.66-1.875
		c0.064,0.976,0.907,1.714,1.884,1.649c0.383-0.025,0.728-0.174,1.004-0.398v0.005c0.829-0.679,1.993-0.759,2.908-0.204
		l-0.001-0.005c0.304,0.187,0.667,0.284,1.05,0.257c0.978-0.07,1.711-0.923,1.637-1.898
		C212.864,357.072,212.016,356.34,211.042,356.412z"/>
	<path fill="#FFFFFF" d="M227.956,354.998c-0.381,0.035-0.72,0.192-0.989,0.426l-0.001-0.004c-0.81,0.695-1.971,0.8-2.892,0.26
		v0.006c-0.306-0.182-0.668-0.275-1.049-0.24c-0.971,0.086-1.689,0.94-1.61,1.912c-0.088-0.972-0.943-1.692-1.914-1.61
		c-0.381,0.03-0.721,0.184-0.993,0.414v-0.004c-0.815,0.689-1.979,0.782-2.894,0.234v0.006c-0.305-0.186-0.665-0.282-1.046-0.251
		c-0.974,0.075-1.703,0.925-1.629,1.901c0.073,0.976,0.926,1.707,1.904,1.631c0.383-0.03,0.726-0.182,0.999-0.41v0.005
		c0.821-0.687,1.984-0.78,2.905-0.235v-0.006c0.306,0.183,0.669,0.278,1.052,0.246c0.976-0.082,1.697-0.938,1.617-1.91
		c0.086,0.972,0.944,1.693,1.919,1.608c0.383-0.035,0.724-0.19,0.994-0.423l0.001,0.005c0.814-0.692,1.977-0.799,2.902-0.263
		l-0.001-0.005c0.308,0.18,0.671,0.271,1.054,0.236c0.977-0.092,1.692-0.957,1.6-1.93
		C229.792,355.623,228.929,354.907,227.956,354.998z"/>
	<path fill="#FFFFFF" d="M244.851,353.287c-0.38,0.042-0.717,0.204-0.982,0.441l-0.001-0.005c-0.799,0.708-1.959,0.833-2.889,0.308
		l0.001,0.006c-0.311-0.176-0.673-0.263-1.054-0.225c-0.969,0.102-1.673,0.968-1.578,1.939c-0.108-0.971-0.973-1.673-1.942-1.576
		c-0.381,0.039-0.718,0.197-0.986,0.434l-0.001-0.006c-0.804,0.703-1.965,0.818-2.891,0.287l0.001,0.004
		c-0.308-0.178-0.671-0.268-1.051-0.23c-0.973,0.094-1.685,0.957-1.593,1.934c0.092,0.973,0.958,1.689,1.934,1.594
		c0.382-0.037,0.722-0.193,0.992-0.43l0.001,0.004c0.807-0.7,1.969-0.815,2.898-0.287v-0.004c0.309,0.178,0.673,0.267,1.056,0.227
		c0.972-0.098,1.679-0.964,1.584-1.933c0.105,0.968,0.972,1.671,1.944,1.568c0.381-0.039,0.72-0.201,0.987-0.435l0.001,0.004
		c0.802-0.707,1.961-0.832,2.895-0.309l-0.001-0.006c0.312,0.174,0.675,0.262,1.058,0.22c0.975-0.105,1.677-0.982,1.569-1.954
		C246.696,353.884,245.822,353.181,244.851,353.287z"/>
	<path fill="#FFFFFF" d="M261.725,351.343c-0.38,0.047-0.714,0.213-0.978,0.453v-0.004c-0.79,0.719-1.948,0.856-2.885,0.344v0.005
		c-0.313-0.171-0.677-0.255-1.057-0.209c-0.97,0.114-1.661,0.992-1.553,1.961c-0.115-0.97-0.993-1.662-1.962-1.552
		c-0.38,0.045-0.716,0.209-0.979,0.447l-0.001-0.004c-0.794,0.713-1.954,0.846-2.887,0.326l0.001,0.006
		c-0.311-0.174-0.675-0.259-1.056-0.217c-0.971,0.109-1.671,0.984-1.565,1.957c0.107,0.973,0.984,1.675,1.957,1.566
		c0.382-0.043,0.719-0.205,0.984-0.443v0.003c0.798-0.712,1.957-0.843,2.894-0.327l-0.001-0.006
		c0.312,0.174,0.678,0.257,1.059,0.213c0.973-0.111,1.667-0.99,1.557-1.958c0.115,0.968,0.995,1.662,1.967,1.549
		c0.381-0.046,0.717-0.211,0.98-0.451l0.001,0.006c0.793-0.719,1.951-0.857,2.891-0.348l-0.001-0.004
		c0.314,0.172,0.679,0.254,1.06,0.207c0.973-0.119,1.665-1.004,1.545-1.975C263.578,351.918,262.695,351.226,261.725,351.343z"/>
	<path fill="#FFFFFF" d="M278.579,349.204c-0.379,0.05-0.713,0.22-0.973,0.464l-0.001-0.006c-0.781,0.729-1.938,0.879-2.881,0.377
		v0.004c-0.314-0.166-0.68-0.246-1.06-0.195c-0.964,0.124-1.645,1.003-1.529,1.969c-0.134-0.965-1.015-1.643-1.98-1.521
		c-0.38,0.048-0.714,0.217-0.975,0.457l-0.001-0.004c-0.785,0.724-1.943,0.869-2.883,0.361l0.001,0.005
		c-0.313-0.171-0.679-0.25-1.059-0.202c-0.97,0.119-1.66,1.004-1.541,1.975s1.004,1.662,1.977,1.543
		c0.38-0.047,0.715-0.215,0.978-0.457l0.001,0.006c0.789-0.723,1.946-0.868,2.889-0.363v-0.005c0.314,0.169,0.68,0.249,1.061,0.2
		c0.967-0.121,1.649-1.003,1.535-1.965c0.13,0.961,1.015,1.641,1.981,1.514c0.38-0.047,0.714-0.217,0.975-0.461l0.001,0.006
		c0.784-0.727,1.941-0.878,2.886-0.379l-0.001-0.003c0.315,0.167,0.681,0.245,1.062,0.194c0.972-0.129,1.653-1.022,1.524-1.99
		C280.439,349.757,279.547,349.076,278.579,349.204z"/>
	<path fill="#FFFFFF" d="M286.999,348.07c-0.379,0.051-0.711,0.223-0.971,0.467v-0.004c-0.778,0.73-1.935,0.888-2.88,0.391
		l0.001,0.005c-0.315-0.167-0.681-0.243-1.061-0.192c-0.968,0.131-1.649,1.021-1.52,1.992c0.128,0.969,1.021,1.652,1.991,1.521
		c0.381-0.05,0.713-0.222,0.974-0.466l0.001,0.006c0.78-0.73,1.937-0.889,2.884-0.393l-0.001-0.006
		c0.315,0.166,0.682,0.242,1.062,0.191c0.971-0.135,1.648-1.028,1.514-1.999C288.86,348.615,287.967,347.935,286.999,348.07z"/>
	<path fill="#FFFFFF" d="M295.413,346.894c-0.38,0.053-0.711,0.225-0.968,0.472l-0.001-0.005c-0.775,0.736-1.931,0.898-2.879,0.404
		l0.001,0.006c-0.315-0.165-0.681-0.24-1.06-0.188c-0.969,0.135-1.646,1.031-1.511,1.999c0.134,0.971,1.029,1.648,1.999,1.512
		c0.379-0.052,0.712-0.226,0.971-0.471l0.001,0.005c0.777-0.732,1.933-0.897,2.883-0.406l-0.001-0.004
		c0.316,0.164,0.683,0.238,1.062,0.184c0.97-0.137,1.644-1.035,1.505-2.004C297.278,347.429,296.38,346.755,295.413,346.894z"/>
	<path fill="#FFFFFF" d="M303.822,345.678c-0.379,0.056-0.71,0.229-0.967,0.478v-0.004c-0.772,0.738-1.927,0.904-2.877,0.418
		l0.001,0.004c-0.316-0.164-0.683-0.236-1.062-0.183c-0.968,0.14-1.639,1.038-1.501,2.007c0.139,0.969,1.037,1.643,2.006,1.502
		c0.38-0.055,0.711-0.228,0.969-0.476l0.001,0.005c0.773-0.738,1.929-0.905,2.881-0.42l-0.001-0.004
		c0.317,0.164,0.685,0.236,1.064,0.18c0.969-0.143,1.638-1.043,1.495-2.012C305.689,346.207,304.789,345.537,303.822,345.678z"/>
	<path fill="#FFFFFF" d="M312.225,344.425c-0.378,0.057-0.708,0.234-0.965,0.48l-0.001-0.004c-0.767,0.742-1.921,0.916-2.874,0.432
		l0.001,0.004c-0.318-0.162-0.685-0.231-1.062-0.178c-0.967,0.145-1.635,1.047-1.492,2.014c0.143,0.969,1.044,1.638,2.013,1.494
		c0.379-0.057,0.71-0.232,0.967-0.48v0.004c0.77-0.74,1.924-0.913,2.879-0.432l-0.001-0.004c0.318,0.162,0.686,0.232,1.065,0.174
		c0.968-0.146,1.634-1.051,1.486-2.018C314.094,344.943,313.191,344.279,312.225,344.425z"/>
	<path fill="#FFFFFF" d="M329.012,341.8c-0.378,0.061-0.707,0.24-0.96,0.492l-0.001-0.007c-0.761,0.75-1.914,0.934-2.87,0.46
		l0.001,0.006c-0.319-0.161-0.687-0.228-1.065-0.169c-0.962,0.153-1.62,1.055-1.473,2.018c-0.157-0.962-1.06-1.617-2.023-1.468
		c-0.378,0.061-0.707,0.237-0.961,0.486l-0.001-0.003c-0.765,0.745-1.918,0.923-2.872,0.442l0.001,0.007
		c-0.318-0.161-0.686-0.231-1.063-0.173c-0.967,0.148-1.631,1.051-1.483,2.02c0.147,0.967,1.052,1.633,2.02,1.485
		c0.38-0.061,0.71-0.237,0.965-0.485v0.004c0.768-0.744,1.921-0.924,2.877-0.445l-0.001-0.006c0.319,0.16,0.686,0.23,1.066,0.17
		c0.965-0.15,1.624-1.054,1.477-2.017c0.156,0.962,1.061,1.618,2.025,1.466c0.378-0.06,0.707-0.238,0.961-0.488l0.001,0.004
		c0.763-0.748,1.916-0.932,2.874-0.459v-0.004c0.319,0.158,0.688,0.225,1.067,0.163c0.967-0.155,1.624-1.066,1.467-2.033
		C330.886,342.302,329.977,341.646,329.012,341.8z"/>
</g>
</svg>
