<?xml version="1.0" encoding="utf-8"?>
<!-- Generator: Adobe Illustrator 17.0.2, SVG Export Plug-In . SVG Version: 6.00 Build 0)  -->
<!DOCTYPE svg PUBLIC "-//W3C//DTD SVG 1.1//EN" "http://www.w3.org/Graphics/SVG/1.1/DTD/svg11.dtd">
<svg version="1.1" id="Layer_1" xmlns="http://www.w3.org/2000/svg" xmlns:xlink="http://www.w3.org/1999/xlink" x="0px" y="0px"
	 width="754px" height="435px" viewBox="0 0 754 435" enable-background="new 0 0 754 435" xml:space="preserve">
<g>
	<path fill="#FFFFFF" d="M530.854,138.168c4.438-1.938,9.125,6.125,10.792,10.792c1.667,4.667,46.034,109.303,67.583,134.333
		c4.125,4.793,2.807,7.426,0.5,10c-2.378,2.656-7.542,2.125-12.125-5c-18.455-28.691-61.333-119.166-70.375-140.875
		C525.372,142.958,526.689,139.987,530.854,138.168z"/>
	<polygon fill="#FFFFFF" points="524.104,137.752 536.729,133.168 543.646,147.293 541.312,157.793 534.146,160.46 	"/>
	
		<rect x="520.201" y="130.074" transform="matrix(0.9465 -0.3228 0.3228 0.9465 -14.4016 177.7997)" fill="#FFFFFF" width="17.417" height="4.5"/>
	
		<rect x="513.421" y="77.988" transform="matrix(0.9465 -0.3227 0.3227 0.9465 -5.834 173.1663)" fill="#FFFFFF" width="11.835" height="52.38"/>
	<path fill="#FFFFFF" d="M511.479,85.293l-51.024,59.657l-142.053,57.631l-19.299-64.332l-10.5,4l5.234,16.9
		c-26.18,19.494-104.625,86.886-132.607,120.812c-1.78-0.234-5.008-0.488-7.857,0.363c-5.583,1.666-6.893,6.219-5.643,10.969
		c1.279,4.86,8.667,6.084,13.521,2.992l180.869,11.756l1.193,1.92l12.854-3.17l169.05-197.65L511.479,85.293z M296.924,169.228
		l38.319,125.083l-165.288-10.743C200.793,248.476,272.292,187.477,296.924,169.228z M342.429,282.943l-20.686-69.186
		l122.298-49.617L342.429,282.943z"/>
</g>
</svg>
