<?xml version="1.0" encoding="utf-8"?>
<!-- Generator: Adobe Illustrator 17.0.2, SVG Export Plug-In . SVG Version: 6.00 Build 0)  -->
<!DOCTYPE svg PUBLIC "-//W3C//DTD SVG 1.1//EN" "http://www.w3.org/Graphics/SVG/1.1/DTD/svg11.dtd">
<svg version="1.1" id="Layer_1" xmlns="http://www.w3.org/2000/svg" xmlns:xlink="http://www.w3.org/1999/xlink" x="0px" y="0px"
	 width="754px" height="435px" viewBox="0 0 754 435" enable-background="new 0 0 754 435" xml:space="preserve">
<g>
	<polygon points="712.585,308.748 712.489,309.141 711.2,308.824 711.313,308.358 708.961,307.781 708.179,310.957 710.531,311.535 
		710.646,311.071 711.935,311.389 711.837,311.783 720.032,313.8 720.779,310.767 	"/>
	<polygon points="119.844,184.827 120.227,184.7 120.648,185.958 120.195,186.11 120.964,188.407 124.066,187.371 123.298,185.073 
		122.844,185.224 122.424,183.965 122.809,183.837 120.133,175.833 117.168,176.824 	"/>
	<path d="M605.063,147.793c-17.934,0-35.078,3.373-50.841,9.51l-1.658-4.168c15.819-6.029,32.979-9.341,50.915-9.341
		c3.612,0,7.193,0.134,10.739,0.397l7.839-6.762c-6.087-0.75-12.288-1.135-18.578-1.135c-18.915,0-37.01,3.5-53.687,9.87
		l-1.238-3.113c0.392,0.151,0.813,0.243,1.258,0.243c1.933,0,3.5-1.567,3.5-3.5c0-0.367-0.072-0.714-0.177-1.047l15.111-25.337
		c2.11,3.232,5.434,5.71,9.732,6.923V88.588c-6.674,1.882-11.002,6.814-12.068,12.891l-14.371,35.287
		c-0.511-0.292-1.095-0.473-1.727-0.473c-1.394,0-2.587,0.821-3.15,2l-0.492-1.238c0.014-0.127,0.039-0.251,0.039-0.382
		c0-1.86-1.505-3.367-3.364-3.374c-4.768-11.745-9.932-24.837-12.854-36.323c1.628-4.572,3.029-9.262,4.224-13.955
		c14.442-17.994,18.007-37.197,9.974-52.507l7.979,1.044l0.972-4.137l-8.693-4.917c3.549-0.714,7.748-0.968,9.888-0.081
		c3.619,1.5,3.887-3.25,1.34-4.75c-1.245-0.734-5.854-0.666-10.239-0.406l3.543-1.307l-0.693-4.167l-18.175-1.899
		c-1.858-1.64-4.292-2.643-6.965-2.643c-5.822,0-10.542,4.72-10.542,10.542c0,5.822,4.72,10.542,10.542,10.542
		c1.013,0,1.989-0.151,2.916-0.418c-0.557,0.429-0.916,0.626-0.916,0.626l-20.417,21.417l-2.25-4.75l-8.833,6.75l7.251,18.29
		l-1.243,0.424l2.495,7.314l-1.407,0.481l1.128,3.308l16.484-5.622l-1.128-3.308l-1.407,0.48l-2.495-7.315l-2.874,0.98l-1.471-6.031
		l25.058-23.268c-3.734,12.339-7.505,26.125-8.369,41.675c-0.164,2.96,0.089,6.274,0.654,9.83c-1.34,1.639-2.692,3.384-4.059,5.221
		l-5.777-16.938L505.283,81.3l2.74,8.034l-47.569,55.616l-142.053,57.631l-19.299-64.332l-10.5,4l1.081,3.489l-1.87,0.689
		c-0.596-0.399-1.312-0.633-2.084-0.633c-2.071,0-3.75,1.679-3.75,3.75c0,1.701,1.139,3.12,2.691,3.58l1.828,5.857
		c0.214,0.689,1.243,0.98,2.298,0.651c1.054-0.329,1.735-1.154,1.52-1.842l-1.798-5.761c0.394-0.443,0.685-0.975,0.834-1.568
		l1.625-0.542l2.859,9.231c-2.972,2.213-6.622,5.048-10.791,8.376c-0.813-0.511-1.604-0.891-2.367-1.122
		c-1.258-0.381-2.417-0.365-3.469,0.026c-0.615-0.834-1.595-1.381-2.71-1.381c-1.382,0-2.567,0.833-3.089,2.023l-12.526,10.218
		c-1.207-1.125-2.426-2.236-3.668-3.321l0.013-0.002c-0.107-0.092-0.217-0.181-0.324-0.273c-1.053-0.914-2.118-1.815-3.196-2.699
		c-0.008-0.006-0.016-0.013-0.023-0.019c-1.152-0.944-2.322-1.867-3.501-2.777c-0.094-0.072-0.189-0.145-0.284-0.217
		c-9.477-7.28-19.815-13.439-30.805-18.311c-0.018-0.008-0.037-0.016-0.056-0.024c-1.103-0.488-2.212-0.964-3.328-1.426
		c-0.081-0.033-0.161-0.066-0.241-0.099c-1.056-0.435-2.118-0.859-3.185-1.271c-0.117-0.045-0.233-0.089-0.35-0.134
		c-1.037-0.397-2.078-0.783-3.125-1.157c-0.128-0.046-0.255-0.09-0.383-0.136c-1.042-0.369-2.087-0.728-3.139-1.074
		c-0.119-0.039-0.237-0.078-0.356-0.116c-1.066-0.349-2.136-0.686-3.211-1.011c-0.092-0.028-0.184-0.055-0.276-0.082
		c-1.102-0.331-2.209-0.65-3.321-0.956c-0.058-0.016-0.116-0.031-0.173-0.047c-1.148-0.315-2.3-0.615-3.457-0.903
		c-0.013-0.003-0.025-0.006-0.038-0.009c-17.287-4.289-35.629-5.572-54.362-3.298l0.001,0.009
		c-35.706,4.348-69.689,21.413-94.671,49.767l-7.114-2.576l-18.167,36l2.558,0.752c-0.979,2.024-1.913,4.061-2.795,6.111
		l-9.951,9.404c-0.206,0.195-0.24,0.517-0.069,0.752c0.171,0.234,0.487,0.301,0.736,0.164l17.03-9.339
		c3.335-7.438,7.355-14.692,12.074-21.679c35.222-52.14,98.805-73.666,156.297-57.907c0.022,0.006,0.044,0.012,0.066,0.018
		c1.086,0.298,2.171,0.611,3.253,0.936c0.056,0.017,0.112,0.034,0.169,0.051c1.051,0.317,2.1,0.648,3.147,0.991
		c0.081,0.026,0.162,0.053,0.243,0.079c1.03,0.339,2.058,0.691,3.083,1.056c0.087,0.031,0.175,0.062,0.263,0.093
		c1.027,0.367,2.052,0.747,3.074,1.139c0.076,0.029,0.153,0.058,0.229,0.087c1.045,0.403,2.088,0.819,3.127,1.248
		c0.045,0.019,0.09,0.037,0.135,0.055c8.763,3.629,17.293,8.188,25.458,13.704c2.984,2.016,5.868,4.125,8.65,6.32
		c2.784,2.201,5.484,4.508,8.099,6.911l-2.625,2.141c-24.898-22.629-57.972-36.421-94.268-36.421
		c-77.43,0-140.201,62.771-140.201,140.201c0,77.431,62.771,140.201,140.201,140.201c54.357,0,101.486-30.935,124.749-76.158
		c0.363,0.284,0.834,0.429,1.327,0.362c0.381-0.05,0.713-0.222,0.974-0.466l0.001,0.006c0.78-0.73,1.937-0.889,2.884-0.393
		l-0.001-0.006c0.315,0.166,0.682,0.242,1.062,0.191c0.971-0.135,1.648-1.028,1.514-1.999c-0.135-0.968-1.028-1.647-1.997-1.513
		c-0.379,0.051-0.711,0.223-0.971,0.467l0-0.004c-0.778,0.73-1.935,0.888-2.88,0.391l0.001,0.005
		c-0.117-0.062-0.246-0.097-0.374-0.132c6.548-13.542,10.977-28.298,12.868-43.837l11.502-0.575
		c0.024,0.253,0.053,0.504,0.082,0.756c-1.152,0.605-3.067,1.79-2.871,2.904c0.196,1.114,2.397,1.573,3.688,1.748
		c0.166,0.699,0.349,1.391,0.552,2.074c-1.03,0.797-2.703,2.294-2.317,3.356c0.386,1.061,2.628,1.132,3.93,1.081
		c0.286,0.658,0.591,1.305,0.911,1.944c-0.875,0.964-2.265,2.73-1.701,3.71c0.565,0.978,2.792,0.657,4.064,0.38
		c0.395,0.597,0.802,1.185,1.228,1.758c-0.695,1.101-1.757,3.081-1.03,3.948c0.728,0.868,2.872,0.16,4.076-0.334
		c0.49,0.517,0.994,1.021,1.511,1.511c-0.493,1.202-1.202,3.347-0.334,4.076c0.866,0.727,2.847-0.335,3.948-1.03
		c0.573,0.426,1.161,0.833,1.757,1.227c-0.276,1.272-0.597,3.498,0.381,4.064c0.979,0.566,2.745-0.824,3.709-1.701
		c0.639,0.32,1.286,0.625,1.944,0.911c-0.051,1.301,0.021,3.544,1.081,3.931c1.061,0.386,2.558-1.287,3.356-2.318
		c0.683,0.203,1.374,0.386,2.073,0.552c0.059,0.431,0.151,0.96,0.287,1.487c-0.025,0.003-0.05,0.001-0.075,0.005
		c-0.377,0.065-0.705,0.245-0.956,0.497l0-0.004c-0.757,0.753-1.909,0.943-2.867,0.473v0.004c-0.319-0.157-0.687-0.224-1.065-0.161
		c-0.965,0.158-1.62,1.069-1.462,2.033c0.156,0.967,1.067,1.624,2.034,1.466c0.379-0.062,0.708-0.244,0.961-0.495l0,0.005
		c0.759-0.751,1.911-0.942,2.872-0.475l0-0.004c0.32,0.156,0.689,0.221,1.068,0.158c0.728-0.122,1.276-0.672,1.433-1.347
		c0.081-0.025,0.161-0.058,0.241-0.1c0.361,0.619,1.074,0.985,1.824,0.858c0.379-0.063,0.706-0.247,0.957-0.5l0.001,0.005
		c0.67-0.67,1.649-0.899,2.535-0.622c0.383,0.603,0.841,1.053,1.364,1.054c0.777,0,1.414-0.991,1.866-2.014
		c0.393,0.475,1.018,0.737,1.671,0.621c0.377-0.066,0.704-0.25,0.953-0.508l0.001,0.005c0.199-0.202,0.427-0.363,0.672-0.485
		c0.271,0.41,0.577,0.808,0.901,1.123l9.797,24.255h-3.195c0-1.104-0.896-2-2-2s-2,0.896-2,2h-1.917v13.75h1.917
		c0,1.106,0.896,2,2,2s2-0.894,2-2h6.222c0,1.106,0.896,2,2,2c1.104,0,2-0.894,2-2h6.222c0,1.106,0.896,2,2,2s2-0.894,2-2h6.222
		c0,1.106,0.895,2,2,2c1.104,0,2-0.894,2-2h1.917v-13.75h-1.917c0-1.104-0.896-2-2-2c-1.105,0-2,0.896-2,2h-6.222
		c0-1.036-0.792-1.88-1.803-1.98l-9.164-27.468c0.569-0.386,1.263-0.568,1.976-0.487l-0.002-0.004
		c0.364,0.044,0.754-0.022,1.108-0.222c0.912-0.512,1.186-1.642,0.649-2.458c-0.074-0.112-0.158-0.211-0.249-0.301
		c0.039,0.013,0.079,0.028,0.117,0.04c0.038,0.088,0.079,0.177,0.132,0.261c0.519,0.831,1.659,1.048,2.505,0.433
		c0.328-0.238,0.553-0.562,0.663-0.916l0.003,0.004c0.34-1.049,1.221-1.807,2.308-1.991l-0.003-0.004
		c0.36-0.06,0.719-0.229,1.001-0.522c0.687-0.699,0.678-1.755,0.062-2.409c0.011-0.006,0.02-0.014,0.03-0.021
		c0.73,0.513,1.776,0.38,2.373-0.392c0.245-0.322,0.373-0.693,0.38-1.06l0.003,0.002c0.037-1.1,0.675-2.07,1.669-2.539l-0.004-0.001
		c0.334-0.153,0.627-0.413,0.825-0.767c0.494-0.894,0.161-1.971-0.692-2.407c-0.001-0.003-0.001-0.006-0.001-0.01
		c0.866,0.41,1.928,0.015,2.331-0.924c0.161-0.366,0.184-0.758,0.104-1.114l0.004,0.002c-0.238-1.068,0.151-2.164,1.011-2.838
		l-0.004-0.003c0.284-0.224,0.518-0.538,0.626-0.923c0.287-0.984-0.293-1.977-1.245-2.203c-0.263-0.063-0.523-0.062-0.771-0.015
		c-0.433-0.449-0.92-0.856-1.316-1.163c0.203-0.683,0.386-1.375,0.552-2.073c0.313-0.043,0.678-0.103,1.057-0.185
		c-0.1,0.156-0.214,0.306-0.354,0.437l0.004,0.001c-0.25,0.242-0.445,0.548-0.516,0.91c-0.19,0.916,0.396,1.846,1.343,2.088
		c0.948,0.24,1.92-0.37,2.127-1.37c0.077-0.39,0.032-0.772-0.122-1.103h0.005c-0.303-0.686-0.309-1.444-0.048-2.115
		c0.083-0.114,0.146-0.236,0.176-0.368c0.095-0.165,0.201-0.324,0.332-0.47h-0.004c0.24-0.271,0.413-0.616,0.454-1.01
		c0.111-1.008-0.622-1.886-1.596-1.956c-0.652-0.049-1.239,0.252-1.592,0.732c-0.159-0.09-0.308-0.172-0.449-0.246
		c0.08-0.706,0.144-1.417,0.186-2.133c0.066-0.021,0.134-0.044,0.205-0.068c0.031,0.884,0.725,1.636,1.65,1.715
		c0.976,0.083,1.833-0.67,1.882-1.68c0.022-0.392-0.087-0.759-0.286-1.064h0.004c-0.138-0.217-0.238-0.45-0.31-0.688
		c0.118-0.183,0.186-0.376,0.186-0.579c0-0.228-0.092-0.443-0.239-0.647c0.063-0.372,0.177-0.739,0.398-1.07l-0.004,0.002
		c0.199-0.305,0.311-0.676,0.299-1.074c-0.045-1.027-0.906-1.785-1.884-1.696c-0.972,0.091-1.698,0.913-1.658,1.842
		c0.004,0.137,0.041,0.263,0.078,0.389c-0.112-0.039-0.219-0.074-0.322-0.107c-0.042-0.717-0.106-1.427-0.186-2.133
		c0.23-0.121,0.486-0.262,0.754-0.424c0.354,0.301,0.826,0.473,1.334,0.434c0.979-0.074,1.702-0.964,1.575-1.983
		c-0.055-0.396-0.23-0.746-0.477-1.012l0.004-0.001c-0.755-0.796-0.958-1.942-0.564-2.958l-0.004,0.001
		c0.14-0.341,0.169-0.726,0.072-1.114c-0.253-0.999-1.256-1.562-2.192-1.27c-0.091,0.028-0.174,0.068-0.257,0.108
		c0.02-0.023,0.037-0.046,0.056-0.07c0.067-0.012,0.134-0.019,0.201-0.039c0.939-0.275,1.462-1.301,1.125-2.274
		c-0.139-0.376-0.383-0.679-0.68-0.886l0.004-0.003c-0.904-0.622-1.351-1.696-1.177-2.774l-0.003,0.002
		c0.064-0.361,0.008-0.744-0.167-1.105c-0.334-0.669-1.006-1.024-1.676-0.986c-0.008-0.147-0.038-0.285-0.101-0.411
		c0.321-0.538,0.347-1.239-0.021-1.835c-0.212-0.34-0.509-0.588-0.851-0.725l0.004-0.002c-0.507-0.214-0.93-0.562-1.232-0.995
		l6.044-7.066c1.818-0.795,3.374-1.707,4.494-2.757c19.19-17.982,74.099-82.697,106.905-121.363
		c6.394-7.535,11.819-13.931,15.788-18.57c1.596-1.867,3.102-3.863,4.527-5.963l3.621,10.618l11.202-3.819l-7.103-20.826
		c0.883-1.968,1.714-3.979,2.5-6.019c3.019,10.879,7.738,22.844,12.136,33.68c-0.886,0.608-1.468,1.627-1.468,2.782
		c0,0.975,0.42,1.847,1.082,2.463l1.083,2.724l-0.515,0.25l-4.379-8.943l-12.625,4.583l2.352,5.32
		c-0.163,1.258,0.087,2.7,0.773,4.347c0.837,2.01,1.966,4.612,3.337,7.697c-46.267,25.674-77.587,75.015-77.587,131.677
		c0,9.656,0.923,19.095,2.661,28.246l-2.981,13.363c-0.062,0.276,0.09,0.562,0.363,0.662c0.273,0.098,0.572-0.025,0.702-0.277
		l8.884-17.27c-1.4-8.03-2.129-16.292-2.129-24.724c0-53.617,29.514-100.332,73.176-124.811c0.614,1.352,1.257,2.759,1.926,4.217
		c-42.246,24.153-70.719,69.648-70.719,121.795c0,77.431,62.771,140.201,140.201,140.201c77.432,0,140.201-62.77,140.201-140.201
		C745.264,210.564,682.495,147.793,605.063,147.793z M529.147,93.41c-0.27-1.24-0.507-2.455-0.711-3.644
		c0.773-0.929,1.542-1.829,2.305-2.672c0.179-0.197,0.346-0.396,0.522-0.594C530.611,88.818,529.907,91.126,529.147,93.41z
		 M535.38,78.164c4.431-19.646,5.368-38.613,4.369-48.232l1.964,0.257C549.658,43.985,547.336,61.415,535.38,78.164z
		 M515.478,17.794c0-4.235,3.433-7.668,7.668-7.668c3.683,0,6.757,2.598,7.496,6.06c-0.236,0.882-0.113,2.086-0.006,3.237
		c-0.747,3.451-3.815,6.038-7.49,6.038C518.912,25.461,515.478,22.028,515.478,17.794z M527.664,79.479
		c0.929-16.712,5.286-31.435,9.289-44.494l0.026-0.024l-0.013-0.007c0.397-0.44,0.748-0.897,1.062-1.364
		c0.543,10.953-0.846,29.668-5.564,48.414c-1.015,1.256-2.08,2.507-3.204,3.749c-0.405,0.448-0.813,0.932-1.221,1.403
		C527.678,84.398,527.534,81.818,527.664,79.479z M366.249,331.353l-1.403-4.207c0.071-0.029,0.142-0.058,0.205-0.103
		c0.948-0.689,0.321-3.003-0.089-4.21c0.324-0.279,0.641-0.564,0.952-0.857c1.157,0.534,3.394,1.4,4.178,0.53
		c0.783-0.87-0.308-3-0.961-4.097c0.26-0.341,0.511-0.688,0.755-1.04c0.657,0.149,1.618,0.32,2.474,0.305l4.636,2.677
		C374.227,324.732,370.561,328.487,366.249,331.353z M370.288,370.418c-0.988,0.583-1.659,1.647-1.659,2.875
		c0,1.228,0.671,2.292,1.659,2.875h-2.872c-0.527-0.834-0.837-1.818-0.837-2.875s0.31-2.041,0.837-2.875H370.288z M376.542,370.418
		c0.527,0.834,0.837,1.818,0.837,2.875s-0.31,2.041-0.837,2.875h-2.872c0.988-0.583,1.659-1.647,1.659-2.875
		c0-1.228-0.671-2.292-1.659-2.875H376.542z M373.254,370.418c1.102,0.491,1.874,1.593,1.874,2.875s-0.773,2.384-1.874,2.875h-2.551
		c-1.102-0.491-1.874-1.593-1.874-2.875s0.773-2.384,1.874-2.875H373.254z M319.599,317.673c0.856,0.016,1.818-0.156,2.474-0.305
		c0.245,0.352,0.496,0.7,0.755,1.04c-0.652,1.097-1.744,3.226-0.961,4.095c0.784,0.872,3.021,0.006,4.178-0.528
		c0.311,0.293,0.629,0.578,0.952,0.857c-0.41,1.207-1.037,3.521-0.09,4.21c0.945,0.686,2.942-0.615,3.966-1.379
		c0.367,0.224,0.741,0.437,1.119,0.645c-0.15,1.268-0.278,3.65,0.789,4.127c0.221,0.098,0.471,0.095,0.732,0.033
		c0.903,2.047,1.98,4.001,3.243,5.827c-9.136-2.367-16.882-8.171-21.794-15.945L319.599,317.673z M254.9,354.05
		c-0.113-0.974-0.992-1.668-1.963-1.558c-0.38,0.045-0.716,0.209-0.979,0.447l-0.001-0.004c-0.794,0.713-1.954,0.846-2.887,0.326
		l0.001,0.006c-0.311-0.174-0.675-0.259-1.056-0.217c-0.971,0.109-1.671,0.984-1.565,1.957c0.107,0.973,0.984,1.675,1.958,1.567
		c0.382-0.043,0.719-0.205,0.984-0.443v0.003c0.798-0.712,1.957-0.843,2.894-0.327l-0.001-0.006
		c0.312,0.174,0.678,0.257,1.059,0.213c0.239-0.027,0.461-0.102,0.659-0.212c-1.543,2.22-3.158,4.385-4.845,6.493l-6.584-5.861
		c0.428-0.004,0.859,0.095,1.251,0.315l0-0.006c0.312,0.174,0.675,0.262,1.058,0.22c0.975-0.104,1.677-0.982,1.569-1.954
		c-0.107-0.973-0.982-1.676-1.953-1.57c-0.38,0.042-0.717,0.204-0.982,0.441l0-0.005c-0.799,0.708-1.959,0.833-2.889,0.308
		l0.001,0.006c-0.243-0.138-0.523-0.199-0.813-0.211l-51.884-46.182l76.166,30.267l0.084,0.033
		c-2.256,4.847-4.823,9.521-7.686,13.989c-0.013,0.001-0.026-0.003-0.04-0.002C255.481,352.197,254.787,353.078,254.9,354.05
		c0.014,0.118,0.04,0.232,0.075,0.341c-0.031,0.046-0.061,0.094-0.093,0.14C254.907,354.375,254.919,354.215,254.9,354.05z
		 M247.246,197.434c-0.497,0.429-0.994,0.859-1.493,1.292c-0.059-0.059-0.116-0.12-0.175-0.179
		c-0.489-0.489-0.987-0.967-1.483-1.447l1.537-1.254C246.174,196.372,246.714,196.899,247.246,197.434z M296.908,261.683
		c0.503,2.775,0.938,5.578,1.282,8.415c1.163,11.445,0.788,16.07,0.663,19.445c5.539-8.985,7.439-11.824,6.782-20.35
		c-0.308-2.539-0.682-5.055-1.112-7.548c0.336-0.338,0.539-0.805,0.518-1.318c-0.029-0.689-0.45-1.263-1.036-1.532
		c-5.034-26.207-16.717-49.682-33.049-68.877c6.578-5.457,12.559-10.303,17.628-14.292c7.843,9.757,16.695,26.714,21.543,36.705
		l13.962,45.576c-0.111-0.019-0.22-0.047-0.338-0.043c-0.979,0.03-1.747,0.851-1.714,1.829c0.008,0.256,0.073,0.496,0.179,0.713
		c-0.148,0.094-0.298,0.184-0.445,0.28c0.179-0.288,0.279-0.63,0.267-0.993c-0.032-0.978-0.852-1.746-1.831-1.714
		c-0.383,0.015-0.732,0.151-1.016,0.368v-0.005c-0.85,0.648-2.015,0.69-2.909,0.104v0.003c-0.298-0.196-0.655-0.309-1.038-0.294
		c-0.979,0.035-1.743,0.857-1.706,1.836c0.037,0.979,0.859,1.742,1.836,1.705c0.383-0.014,0.73-0.15,1.012-0.368v0.004
		c0.848-0.649,2.014-0.69,2.905-0.101v-0.005c0.296,0.197,0.653,0.31,1.035,0.297c0.09-0.003,0.176-0.02,0.262-0.035
		c-6.983,4.888-13.3,12.614-17.725,24.777c-0.661,1.816,0.276,3.824,2.093,4.485c0.395,0.144,0.799,0.212,1.196,0.212
		c0.659,0,1.296-0.195,1.846-0.537c-0.11,0.404-0.212,0.811-0.31,1.22c-0.773,0.105-1.864,0.314-2.665,0.702l-8.746-0.568
		c0.033-1.258,0.052-2.519,0.052-3.785c0-8.769-0.813-17.348-2.353-25.672c0.265,0.137,0.558,0.227,0.876,0.213
		c0.977-0.044,1.734-0.871,1.692-1.849c-0.043-0.978-0.87-1.736-1.848-1.692c-0.384,0.018-0.731,0.156-1.011,0.377l-0.001-0.005
		c-0.08,0.062-0.164,0.113-0.249,0.165c-4.867-23.602-15.67-45.033-30.775-62.672c0.854-0.72,1.699-1.431,2.538-2.135
		c15.52,18.225,26.622,40.516,31.419,65.402c-0.051,0.179-0.082,0.365-0.074,0.561C296.562,261.063,296.696,261.405,296.908,261.683
		z M264.471,182.766c-0.413-0.427-0.829-0.85-1.247-1.272l4.448-3.629l1.024,1.374C267.313,180.388,265.904,181.565,264.471,182.766
		z M334.491,324.333c-0.214-1.384-0.314-2.773-0.27-4.148c0.054-1.797,0.359-3.56,0.908-5.228c0.621,0.476,1.271,0.914,1.952,1.307
		c-0.093,1.317-0.07,3.368,0.922,3.781c0.994,0.41,2.463-1.027,3.329-2.024c0.355,0.096,0.707,0.199,1.07,0.273l2.623,6.494v2.172
		C341.257,326.825,337.691,325.898,334.491,324.333z M324.048,315.104l7.233-4.176c0.177,0.257,0.37,0.502,0.56,0.749
		c-0.59,1.181-1.357,3.09-0.597,3.85c0.022,0.022,0.05,0.034,0.074,0.053c-0.265,1.536-0.372,3.091-0.31,4.623
		c0.028,0.744,0.097,1.48,0.191,2.211C328.363,320.471,325.931,317.984,324.048,315.104z M369.34,312.631l-5.315-3.069
		c0.571-0.139,1.033-0.38,1.205-0.794c0.252-0.61-0.195-1.398-0.806-2.118c2.082-0.575,4.063-1.466,5.85-2.597
		c0.63-0.396,1.229-0.83,1.815-1.277C371.824,306.302,370.863,309.632,369.34,312.631z M336.599,311.714
		c0.581-1,1.26-1.931,2.012-2.807l2.141,5.301C339.224,313.611,337.823,312.766,336.599,311.714z M327.522,269.11l1.776,5.796
		c-0.885-0.471-1.826-0.771-2.39-0.361c-0.195,0.142-0.318,0.359-0.395,0.616c-2.218-0.24-4.442-0.285-6.649-0.106
		C322.136,272.752,324.711,270.751,327.522,269.11z M343.617,261.501c-0.717,0.042-1.428,0.106-2.134,0.186
		c-0.118-0.224-0.256-0.475-0.413-0.736c0.953-0.136,1.907-0.247,2.861-0.334C343.806,260.933,343.702,261.235,343.617,261.501z
		 M314.964,281.236c0.888-1.405,1.865-2.747,2.93-4.015c2.945-0.222,5.927-0.048,8.798,0.516c0.099,0.379,0.208,0.727,0.306,1.016
		c-0.324,0.279-0.642,0.565-0.953,0.858c-1.158-0.534-3.393-1.399-4.177-0.529c-0.783,0.87,0.308,2.998,0.96,4.095
		c-0.26,0.341-0.511,0.688-0.755,1.04c-0.656-0.149-1.617-0.32-2.471-0.305L314.964,281.236z M330.711,279.52l1.918,6.262
		c-0.567-0.083-1.073-0.032-1.384,0.279c-0.761,0.76,0.006,2.669,0.596,3.85c-0.19,0.246-0.382,0.491-0.559,0.748l-7.234-4.176
		C325.823,283.77,328.084,281.409,330.711,279.52z M334.549,292.049l0.184,0.602l-0.443-0.256
		C334.375,292.278,334.462,292.163,334.549,292.049z M322.619,288.956l5.317,3.07c-0.572,0.139-1.035,0.38-1.207,0.795
		c-0.117,0.283-0.083,0.605,0.047,0.941l-5.916-0.385C321.314,291.839,321.905,290.361,322.619,288.956z M360.386,300.793
		c0,0.914-0.095,1.805-0.257,2.671c-0.892-0.002-1.777-0.07-2.656-0.199l2.869-3.355
		C360.359,300.204,360.386,300.495,360.386,300.793z M342.62,282.72c-0.122-0.134-0.25-0.262-0.375-0.393l-2.111-7.06
		c1.432-0.327,2.906-0.542,4.417-0.623v5.819L342.62,282.72z M344.55,269.51c-0.442,0.734-0.774,1.653-0.973,2.296
		c-0.428,0.035-0.854,0.08-1.277,0.133c-0.623-1.113-1.922-3.125-3.067-2.881c-0.313,0.066-0.565,0.295-0.773,0.613l-1.335-4.466
		c2.391-0.593,4.875-0.949,7.425-1.047V269.51z M336.83,262.504c-0.159,0.038-0.321,0.071-0.479,0.111l-0.208-0.694
		c0.271-0.069,0.542-0.133,0.814-0.197C336.904,262.003,336.862,262.268,336.83,262.504z M313.531,283.709l4.641,2.679
		c0.413,0.746,1.039,1.49,1.496,1.984c-0.184,0.389-0.362,0.782-0.529,1.18c-1.279-0.016-3.656,0.107-4.017,1.216
		c-0.232,0.715,0.454,1.588,1.25,2.317l-2.076-0.135c-1.051-1.49-1.991-3.063-2.782-4.711
		C312.084,286.675,312.763,285.165,313.531,283.709z M368.652,301.278c-1.583,0.852-3.261,1.47-4.98,1.828
		c0.001-0.004,0.001-0.008,0.002-0.013c1.252-0.418,3.142-1.226,3.142-2.301c-0.001-1.074-1.89-1.881-3.142-2.299
		c-0.089-0.691-0.221-1.366-0.386-2.03l6.191-7.238c1.467,2.973,2.382,6.265,2.621,9.744
		C371.01,299.846,369.863,300.631,368.652,301.278z M349.369,274.829l-1.961,2.293v-2.478
		C348.069,274.679,348.722,274.746,349.369,274.829z M324.184,267.434c0.033,0.182,0.068,0.352,0.102,0.51
		c-0.597,0.395-1.185,0.802-1.759,1.228c-0.098-0.062-0.203-0.126-0.314-0.193C322.86,268.431,323.517,267.917,324.184,267.434z
		 M318.9,272.183c0.005,0.012,0.009,0.022,0.014,0.034c-0.098,0.093-0.195,0.185-0.292,0.278
		C318.715,272.391,318.807,272.286,318.9,272.183z M310.629,291.041c0.277,0.586,0.581,1.159,0.891,1.729l-1.302-0.085
		C310.343,292.132,310.479,291.584,310.629,291.041z M322.957,304.796c1.439,0.781,2.977,1.413,4.577,1.855
		c-0.611,0.719-1.058,1.507-0.805,2.116c0.172,0.414,0.634,0.656,1.205,0.795l-5.315,3.069c-1.256-2.475-2.134-5.173-2.55-8.023
		L322.957,304.796z M346.932,332.726c0.303-0.326,0.571-0.77,0.798-1.245l2.324,5.754c-1.028,0.114-2.07,0.18-3.122,0.207V332.726z
		 M362.761,320.898l-1.873-5.614c0.443-0.87-0.236-2.537-0.771-3.606c0.19-0.247,0.383-0.492,0.56-0.749l7.233,4.176
		C366.486,317.282,364.75,319.235,362.761,320.898z M375.589,295.619c-0.375-0.103-0.729-0.183-1.027-0.242
		c-0.08-0.423-0.169-0.842-0.267-1.258c1.042-0.737,2.903-2.237,2.541-3.349c-0.361-1.112-2.738-1.234-4.017-1.218
		c-0.167-0.398-0.344-0.79-0.528-1.179c0.609-0.659,1.523-1.765,1.817-2.719l4.1-2.367c0.862,1.584,1.61,3.238,2.235,4.952
		C379.163,290.908,377.518,293.408,375.589,295.619z M374.717,283.102l1.985-2.321c0.186,0.284,0.372,0.568,0.55,0.858
		L374.717,283.102z M357.064,265.832l-3.451,4.035c-0.227-0.42-0.515-0.729-0.888-0.809c-1.146-0.243-2.445,1.769-3.068,2.881
		c-0.423-0.053-0.848-0.098-1.277-0.133c-0.199-0.643-0.532-1.562-0.973-2.296v-5.352C350.761,264.287,354,264.861,357.064,265.832z
		 M348.342,261.501c-0.107-0.335-0.245-0.728-0.414-1.129c0.036-0.001,0.072-0.003,0.107-0.004c0.307,0.334,0.731,0.549,1.198,0.569
		c0.363,0.021,0.704-0.085,0.997-0.271l0,0.004c0.326-0.207,0.692-0.317,1.06-0.336c-0.324,0.465-0.604,0.952-0.814,1.353
		C349.769,261.607,349.058,261.543,348.342,261.501z M147.916,355.966c-0.004-0.005-0.008-0.008-0.012-0.012l0,0.003
		c-0.224-0.268-0.518-0.474-0.872-0.569c-0.192-0.052-0.387-0.063-0.578-0.048c0.201-0.411,0.364-0.844,0.489-1.217
		c0.33,0.292,0.741,0.623,1.169,0.897L147.916,355.966z M142.855,354.261c0.056-0.048,0.107-0.093,0.159-0.14
		c0.014,0.041,0.028,0.082,0.043,0.125c-0.062,0.007-0.124,0.001-0.186,0.015l0.002-0.003
		C142.867,354.26,142.861,354.26,142.855,354.261z M123.612,292.754l9.283-3.075c-0.177,0.296-0.283,0.648-0.258,1.028
		c0.05,0.935,0.762,1.621,1.596,1.674c-0.251,0.164-0.453,0.394-0.589,0.666L123.612,292.754z M80.076,292.472l37.905,1.107
		l-42.645,14.127c0.19-2.526,0.322-5.333,1.168-7.561C77.648,297.13,79.064,294.785,80.076,292.472z M80.466,291.495
		c0.456-1.197,0.792-2.406,0.881-3.72l0.06-0.887c0.162-2.406-0.492-4.578-1.307-6.967l40.669,1.187l12.108,4.811
		c0.031,0.217,0.095,0.422,0.187,0.604h-0.004c0.126,0.241,0.216,0.492,0.274,0.748c-0.532,0.364-0.916,0.791-0.916,1.274
		c0,0.081,0.018,0.16,0.038,0.238l-11.734,3.887L80.466,291.495z M37.016,287.994c0-3.137,0.124-6.245,0.363-9.321l28.567,0.834
		c-0.197,2.174-0.376,4.437-0.532,6.749c-0.11,1.624-0.204,3.224-0.284,4.791l-28.085-0.82
		C37.031,289.483,37.016,288.741,37.016,287.994z M78.27,273.982c-0.697-3.005-0.082-6.806-0.057-9.787l40.651,16.154l-39.006-1.139
		C79.309,277.622,78.719,275.921,78.27,273.982z M166.772,264.69c-0.17,0.059-0.329,0.143-0.472,0.248v-0.004
		c-0.806,0.587-1.879,0.625-2.724,0.12l4.692-7.605L166.772,264.69z M172.212,267.564c0.028-0.016,0.054-0.033,0.082-0.048
		c-0.684,0.728-1.357,1.448-2.014,2.159c-0.069-0.114-0.149-0.217-0.255-0.294c-0.021-0.015-0.046-0.021-0.068-0.034
		L172.212,267.564z M272.716,263.546c1.45,6.923,2.302,14.064,2.488,21.368l-82.056-2.396l53.678-17.781
		c0.193,0.06,0.398,0.094,0.611,0.083c0.383-0.019,0.729-0.162,1.008-0.384v0.005c0.838-0.662,2.004-0.721,2.905-0.145v-0.006
		c0.3,0.192,0.659,0.3,1.042,0.281c0.977-0.05,1.729-0.883,1.681-1.86c-0.006-0.123-0.025-0.242-0.055-0.357l0.079-0.026
		c-0.021,0.124-0.031,0.252-0.024,0.383c0.049,0.977,0.881,1.731,1.857,1.683c0.383-0.02,0.729-0.161,1.008-0.383l0,0.005
		c0.839-0.662,2.005-0.72,2.905-0.145l-0.001-0.005c0.301,0.193,0.66,0.299,1.042,0.281c0.977-0.049,1.729-0.881,1.681-1.858
		c-0.048-0.979-0.88-1.732-1.857-1.683c-0.382,0.019-0.729,0.161-1.008,0.383l0-0.005c-0.733,0.577-1.714,0.694-2.552,0.333
		l13.804-4.573l0.113-0.037c0.319,1.172,0.622,2.35,0.906,3.536c-0.57,0.318-0.946,0.933-0.912,1.629
		C271.104,262.782,271.829,263.489,272.716,263.546z M256.175,260.901c-0.137-0.027-0.275-0.054-0.421-0.047
		c-0.496,0.024-0.933,0.252-1.238,0.596l-0.812,0.269c-0.343-0.443-0.888-0.718-1.49-0.688c-0.383,0.019-0.729,0.162-1.009,0.383
		v-0.004c-0.838,0.661-2.004,0.72-2.905,0.145v0.006c-0.3-0.193-0.658-0.301-1.042-0.281c-0.977,0.05-1.729,0.881-1.681,1.859
		c0.022,0.434,0.204,0.819,0.479,1.114l-1.186,0.393c0.455-0.342,0.738-0.896,0.707-1.507c-0.048-0.979-0.881-1.73-1.858-1.682
		c-0.382,0.019-0.729,0.161-1.008,0.383v-0.006c-0.839,0.662-2.004,0.723-2.904,0.146v0.004c-0.3-0.192-0.659-0.299-1.042-0.28
		c-0.977,0.05-1.729,0.882-1.681,1.858c0.049,0.979,0.882,1.732,1.858,1.683c0.383-0.019,0.729-0.161,1.008-0.383v0.004
		c0.839-0.662,2.005-0.72,2.906-0.145l-0.001-0.004c0.283,0.181,0.618,0.277,0.975,0.273l-52.734,17.469l-12.562-0.367
		c0.133-0.302,0.182-0.597,0.094-0.869c-0.191-0.586-0.946-0.895-1.803-1.055l10.978-8.678l13.491-4.469
		c0.041,0.001,0.078,0.016,0.12,0.014c0.394-0.017,0.748-0.166,1.032-0.396l1.106-0.366c0.342,0.389,0.846,0.631,1.404,0.606
		c0.383-0.018,0.73-0.158,1.011-0.379v0.006c0.843-0.658,2.008-0.711,2.907-0.133v-0.004c0.3,0.193,0.657,0.302,1.04,0.284
		c0.978-0.045,1.734-0.875,1.689-1.853c-0.019-0.405-0.178-0.768-0.421-1.055l1.005-0.333c-0.377,0.343-0.609,0.839-0.584,1.388
		c0.045,0.978,0.874,1.734,1.852,1.688c0.384-0.018,0.729-0.158,1.01-0.379v0.004c0.841-0.658,2.006-0.714,2.906-0.137l0-0.006
		c0.301,0.193,0.659,0.301,1.042,0.283c0.977-0.047,1.731-0.877,1.685-1.855c-0.048-0.977-0.878-1.732-1.855-1.685
		c-0.382,0.018-0.729,0.159-1.009,0.38v-0.004c-0.839,0.659-2.005,0.715-2.904,0.137v0.006c-0.24-0.155-0.523-0.234-0.82-0.258
		l53.763-17.81c1.37,3.544,2.577,7.168,3.608,10.865L256.175,260.901z M159.879,331.197c-0.263,0.198-0.525,0.397-0.791,0.595
		c-0.392-0.47-1.014-0.729-1.669-0.614c-0.262,0.046-0.487,0.163-0.691,0.306l-0.21-1.431c2.766-0.899,5.171-1.48,7.105-1.852
		c-0.992,0.85-2.048,1.699-3.15,2.544C160.241,330.853,160.04,331.008,159.879,331.197z M143.278,337.488
		c0.109,0.173,0.243,0.318,0.389,0.443c-0.05,0.089-0.097,0.182-0.143,0.275C143.49,337.962,143.412,337.718,143.278,337.488
		c-0.265-0.455-0.727-0.729-1.234-0.787c0.35-0.229,0.726-0.462,1.117-0.696C142.971,336.486,142.991,337.032,143.278,337.488z
		 M139.441,339.219c-0.082,0.107-0.157,0.217-0.25,0.315l0.148-0.716c0.09-0.088,0.18-0.176,0.276-0.265
		C139.524,338.74,139.47,338.969,139.441,339.219z M150.1,338.231c-0.039-0.034-0.075-0.072-0.121-0.098
		c-0.793-0.457-2.187,0.581-3.036,1.331c-0.179-0.532-0.438-1.188-0.766-1.719c0.057-0.074,0.123-0.142,0.169-0.224l0.002,0.004
		c0.5-0.904,1.597-1.324,2.588-1.002l-0.001-0.004c0.33,0.107,0.688,0.12,1.039,0.014c0.889-0.275,1.426-1.239,1.178-2.186
		c-0.249-0.946-1.248-1.505-2.227-1.201c-0.381,0.118-0.694,0.351-0.913,0.644l-0.002-0.004c-0.661,0.875-1.747,1.286-2.835,1.098
		l0.002,0.005c-0.007-0.001-0.015,0.001-0.023,0c0.101-0.054,0.197-0.107,0.301-0.161c2.678-1.396,5.211-2.518,7.557-3.425
		l-0.177,0.859c-0.124,0.003-0.247-0.002-0.373,0.028c-0.984,0.231-1.57,1.213-1.31,2.156c0.148,0.542,0.525,0.951,0.991,1.167
		l-0.304,1.473C151.248,337.404,150.67,337.819,150.1,338.231z M154.106,330.889c0.496-0.182,0.983-0.355,1.46-0.518l0.262,1.788
		c-0.613,0.331-1.34,0.401-2.024,0.195L154.106,330.889z M145.645,308.292l0.388-1.879c0.143-0.105,0.268-0.2,0.376-0.284
		c0.379,0.21,0.774,0.393,1.168,0.578c-0.017,0.499-0.02,1.326,0.085,2.134c-0.05,0.006-0.101-0.001-0.15,0.009l0.002-0.004
		C146.82,308.991,146.122,308.76,145.645,308.292z M138.196,279.235c0.064-0.031,0.117-0.08,0.178-0.118
		c-0.086,0.162-0.158,0.333-0.24,0.498l-0.229-0.204c0.093-0.065,0.19-0.125,0.296-0.174L138.196,279.235z M191.805,267.067
		l-4.478,3.54l-7.817,2.589c1.752-1.83,3.574-3.702,5.458-5.61c0.483-0.183,0.864-0.565,1.039-1.048
		c0.065-0.065,0.13-0.131,0.195-0.197c0.234,0.741,0.933,1.269,1.747,1.238c0.383-0.014,0.732-0.151,1.015-0.369v0.005
		C189.79,266.58,190.919,266.527,191.805,267.067z M194.515,266.184l0.192-0.152c0.243,0.73,0.94,1.246,1.748,1.213
		c0.383-0.017,0.73-0.155,1.011-0.375l0,0.005c0.671-0.52,1.542-0.653,2.322-0.397l-9.718,3.219l2.935-2.321
		C193.718,267.309,194.297,266.83,194.515,266.184z M174.268,280.017c-0.128-0.272-0.251-0.547-0.391-0.812
		c1.34-1.462,2.734-2.958,4.184-4.488l6.999-2.318l-9.641,7.622C174.967,280.003,174.561,280.007,174.268,280.017z M152.146,268.575
		c-0.065-0.093-0.137-0.191-0.214-0.295c0.01-0.017,0.017-0.035,0.027-0.052L152.146,268.575z M142.178,273.308
		c0.074,0.231,0.144,0.434,0.204,0.599c-0.177,0.166-0.363,0.324-0.534,0.496l-0.293-0.543
		C141.722,273.636,141.935,273.45,142.178,273.308z M136.115,291.019c0.026,0.008,0.053,0.016,0.077,0.023
		c0.054,0.433,0.115,0.863,0.196,1.286c-0.05,0.034-0.101,0.068-0.158,0.108c-0.271-0.185-0.595-0.302-0.944-0.324
		C135.701,291.863,135.997,291.469,136.115,291.019z M138.273,297.975c-0.124-0.338-0.364-0.6-0.648-0.793l0.004-0.002
		c-0.045-0.03-0.082-0.067-0.124-0.099c0.163-0.001,0.31-0.004,0.436-0.008c0.185,0.394,0.368,0.788,0.578,1.167
		c-0.045,0.058-0.092,0.119-0.144,0.188C138.36,298.274,138.332,298.122,138.273,297.975z M152.32,308.259
		c0.003,0.001,0.006,0.001,0.009,0.001l0.393,2.684c-0.064-0.067-0.13-0.133-0.187-0.208l-0.001,0.004
		c-0.21-0.281-0.499-0.5-0.85-0.613c-0.276-0.089-0.559-0.096-0.831-0.048C151.473,309.458,152.015,308.71,152.32,308.259z
		 M153.666,310.569c0.184,0.366,0.368,0.725,0.551,1.076c-0.136-0.01-0.271-0.031-0.403-0.065L153.666,310.569z M154.573,314.289
		l0.002-0.004c0.235,0.273,0.556,0.481,0.936,0.569c0.177,0.043,0.352,0.049,0.524,0.038c0.091,0.151,0.183,0.296,0.274,0.444
		l-1.138,5.511l-1.015-6.936C154.305,314.023,154.447,314.145,154.573,314.289z M157.072,316.531c2.384,3.6,4.786,6.023,7.31,7.401
		c-0.119,0.448-0.188,0.916-0.188,1.401c0,0.603,0.102,1.182,0.282,1.724c-2.092,0.357-4.847,0.969-8.101,2.018l-0.786-5.367
		L157.072,316.531z M155.422,329.39c-0.356,0.121-0.718,0.247-1.084,0.378l0.667-3.229L155.422,329.39z M176.828,284.015
		c0.45-0.362,0.922-0.79,1.277-1.234l11.045,0.322l-4.32,1.431L176.828,284.015z M209.922,263.122
		c-0.057-0.003-0.112-0.012-0.17-0.009c-0.383,0.019-0.729,0.159-1.009,0.38v-0.005c-0.024,0.019-0.051,0.032-0.076,0.05
		l-1.439,0.477c-0.482,0.006-0.966-0.121-1.389-0.395v0.004c-0.299-0.194-0.656-0.303-1.039-0.287
		c-0.978,0.045-1.734,0.873-1.691,1.851c0.003,0.063,0.017,0.122,0.027,0.184l-0.038,0.013c0.004-0.065,0.014-0.129,0.011-0.196
		c-0.044-0.978-0.871-1.736-1.847-1.692c-0.383,0.017-0.73,0.155-1.01,0.375l0-0.004c-0.842,0.655-2.009,0.705-2.905,0.123l0,0.005
		c-0.011-0.007-0.026-0.01-0.037-0.017l56.232-44.454c5.38,7.632,9.89,15.918,13.378,24.719L209.922,263.122z M196.003,263.747
		c-0.537,0.117-0.974,0.477-1.207,0.954l-0.32,0.253c-0.273-0.673-0.939-1.138-1.705-1.107c-0.383,0.016-0.73,0.154-1.011,0.373
		v-0.005c-0.845,0.652-2.012,0.697-2.905,0.112v0.004c-0.135-0.09-0.285-0.155-0.441-0.206
		c17.056-16.995,38.403-36.368,58.185-53.525c2.236,2.61,4.362,5.316,6.369,8.113L196.003,263.747z M165.509,270.803
		c-0.286-0.152-0.584-0.284-0.878-0.423c0.023-0.673,0.021-1.947-0.242-2.956c0.594-0.117,1.217-0.019,1.757,0.293L165.509,270.803z
		 M158.6,268.631c-0.046-0.159-0.104-0.35-0.174-0.564c0.123,0.03,0.244,0.065,0.378,0.068c0.006,0,0.011-0.001,0.017-0.001
		l0.08,0.544C158.8,268.663,158.701,268.644,158.6,268.631z M157.822,264.907v-0.005c-0.268,0.175-0.559,0.29-0.857,0.372
		c-0.263-0.255-0.551-0.416-0.862-0.416c-0.296,0-0.572,0.145-0.825,0.379c-0.177-0.055-0.355-0.103-0.523-0.191l0,0.006
		c-0.051-0.029-0.113-0.036-0.167-0.059l2.208-10.688l1.517,10.366C158.143,264.726,157.979,264.805,157.822,264.907z
		 M153.17,268.393l-0.142-0.263c0.058,0.034,0.115,0.07,0.176,0.097L153.17,268.393z M149.919,265.682
		c-0.225,0.073-0.42,0.188-0.594,0.323c-0.186-0.039-0.369-0.043-0.54,0.013c-0.444,0.144-0.727,0.617-0.909,1.209
		c-0.168,0.083-0.343,0.143-0.524,0.194l-1.555-10.626l4.753,8.818C150.344,265.603,150.132,265.618,149.919,265.682z
		 M142.182,269.383c-0.173,0.126-0.291,0.309-0.37,0.527c-0.313,0.251-0.52,0.583-0.616,0.932l-0.003-0.004
		c-0.124,0.444-0.355,0.829-0.64,1.165l-5.633-10.449l8.763,7.799C143.101,269.156,142.557,269.11,142.182,269.383z M141.23,274.737
		c-0.014-0.005-0.03-0.01-0.043-0.015c0.003-0.017,0.005-0.034,0.008-0.05L141.23,274.737z M136.942,274.623
		c-0.249,0.343-0.232,0.826-0.078,1.35c-0.395,0.133-0.757,0.404-0.995,0.816c-0.113,0.2-0.178,0.41-0.213,0.621l-7.497-6.673
		l9.102,3.617C137.137,274.426,137.024,274.51,136.942,274.623z M133.656,282.051c-0.095,0.883,0.466,1.688,1.306,1.869
		c0.118,0.025,0.235,0.039,0.35,0.043c0.407,0.332,0.797,0.609,1.076,0.798c-0.027,0.143-0.042,0.289-0.066,0.433
		c-0.181-0.599-0.676-1.106-1.36-1.273c-0.883-0.217-1.783,0.339-2.03,1.265l-10.11-4.018l10.717,0.313
		C133.531,281.665,133.575,281.856,133.656,282.051z M134.904,298.141l0.004-0.003c-0.098,0.357-0.077,0.749,0.065,1.132
		c0.368,0.927,1.363,1.35,2.221,1.025c-0.004,0.008-0.008,0.016-0.012,0.024l-11.024,3.652l8.793-6.951
		C134.997,297.389,135,297.765,134.904,298.141z M140.408,302.607c0.42-0.119,0.792-0.245,1.059-0.342
		c0.296,0.315,0.6,0.62,0.915,0.915c-0.113,0.312-0.266,0.763-0.4,1.27c-0.123-0.081-0.253-0.157-0.39-0.2l0.004-0.002
		c-0.652-0.221-1.144-0.731-1.368-1.349L140.408,302.607z M139.218,305.891l0.003-0.004c0.011,0.371,0.095,0.726,0.365,1.084
		c0.252,0.334,0.571,0.549,0.907,0.661l-6.214,4.913l4.737-7.678C139.141,305.187,139.215,305.531,139.218,305.891z
		 M145.199,306.979l-0.094,0.456c-0.042-0.107-0.09-0.21-0.151-0.305C145.037,307.08,145.118,307.03,145.199,306.979z
		 M146.265,311.45l0.002-0.004c0.186,0.317,0.477,0.593,0.851,0.753c0.181,0.079,0.365,0.117,0.548,0.135l-4.293,6.959l1.837-8.891
		C145.632,310.66,146,311.007,146.265,311.45z M148.581,312.188c0.4-0.185,0.727-0.516,0.886-0.955
		c0.025-0.069,0.037-0.138,0.053-0.207c0.02-0.007,0.04-0.014,0.06-0.022c-0.041,0.074-0.082,0.148-0.113,0.23
		c-0.349,0.913,0.154,1.953,1.128,2.266c0.379,0.124,0.766,0.112,1.11-0.001l-0.001,0.006c0.458-0.148,0.933-0.164,1.383-0.072
		l1.5,10.247l-1.341,6.49c-2.541,0.956-5.308,2.164-8.242,3.693c-2.239,1.167-4.009,2.286-5.337,3.368l3.29-15.925L148.581,312.188z
		 M138.338,340.191c-0.063,0.037-0.127,0.074-0.193,0.108c0.075-0.129,0.159-0.259,0.251-0.389L138.338,340.191z M153.02,336.147
		l0.101-0.489c0.052-0.007,0.104-0.008,0.156-0.021c0.362-0.085,0.669-0.283,0.903-0.547l0.001,0.005
		c0.372-0.421,0.871-0.677,1.4-0.762C154.724,334.943,153.868,335.547,153.02,336.147z M170.386,302.655
		c0.029-0.029,0.054-0.061,0.082-0.09l0.319,0.592C170.658,302.991,170.521,302.823,170.386,302.655z M173.689,298.239
		c0.21-0.379,0.393-0.774,0.578-1.168c0.16,0.005,0.35,0.01,0.567,0.009l9.653,8.592l-9.062-3.601
		C175.655,300.931,174.312,299.038,173.689,298.239z M186.695,284.656l4.506-1.493l83.869,2.448l0.144,0.004
		c0.016,0.791,0.03,1.583,0.03,2.378c0,0.808-0.015,1.612-0.031,2.416L186.695,284.656z M280.1,262.656
		c0.339,0.325,0.802,0.518,1.308,0.495c0.271-0.013,0.514-0.104,0.738-0.226c1.604,8.109,2.453,16.49,2.453,25.069
		c0,1.011-0.015,2.018-0.038,3.023l-1.968-0.128c0.021-0.964,0.035-1.928,0.035-2.895
		C282.628,279.384,281.769,270.906,280.1,262.656z M281.451,259.633c-0.071-0.006-0.138-0.027-0.211-0.024
		c-0.71,0.035-1.297,0.485-1.551,1.101c-4.427-20.239-13.777-39.047-27.454-54.975c0.498-0.428,0.994-0.854,1.489-1.278
		C267.089,220.056,276.777,238.893,281.451,259.633z M240.126,203.622c-19.713,17.234-40.665,36.382-57.284,53.03l41.06-66.554
		C229.704,194.127,235.135,198.653,240.126,203.622z M180.664,258.846c-1.673,1.693-3.303,3.361-4.873,4.992l-1.591,1.257
		c-0.756,0.3-1.627,0.223-2.323-0.25v0.004c-0.293-0.201-0.647-0.318-1.029-0.31c-0.975,0.018-1.752,0.823-1.738,1.803
		c0.012,0.83,0.599,1.513,1.375,1.69l-1.521,1.202c-0.761,0.146-1.655,0.658-2.357,1.135l0.47-2.273
		c0.095,0.015,0.185,0.044,0.284,0.042c0.982-0.012,1.766-0.819,1.75-1.797c-0.013-0.814-0.575-1.485-1.323-1.682l1.998-9.67
		l43.941-71.225c3.298,1.83,6.5,3.81,9.598,5.934L180.664,258.846z M170.37,252.159l16.378-79.282
		c9.185,2.445,17.939,5.956,26.115,10.403L170.37,252.159z M168.853,254.619l-6.199,10.048c-0.091-0.015-0.177-0.044-0.272-0.045
		c-0.97-0.001-1.765,0.784-1.774,1.765c-0.004,0.392,0.125,0.752,0.339,1.047l-0.017,0.028c-0.439,0.504-0.809,1.021-1.042,1.366
		c-0.086-0.016-0.174-0.025-0.261-0.04l-0.115-0.786c0.639-0.263,1.091-0.885,1.096-1.615c0.007-0.929-0.695-1.687-1.592-1.779
		l-1.802-12.314l16.95-82.05c3.943,0.601,7.823,1.397,11.629,2.376L168.853,254.619z M156.915,250.263l-11.837-80.865
		c3.64-0.336,7.325-0.517,11.051-0.517c5.888,0,11.675,0.436,17.336,1.266L156.915,250.263z M144.377,169.461l12.122,82.814
		l-2.6,12.587c-0.09,0-0.176-0.016-0.268-0.004c-0.868,0.129-1.458,0.812-1.516,1.58l-6.739-12.501l-12.126-82.842
		C136.904,170.381,140.614,169.831,144.377,169.461z M132.279,171.281l11.726,80.11l-38.406-71.245
		C114.006,176.192,122.944,173.186,132.279,171.281z M104.702,180.566l39.721,73.684l1.945,13.287
		c-0.079-0.003-0.155,0.012-0.234,0.002l0.002,0.004c-0.372-0.054-0.762,0.026-1.127,0.218c-0.443,0.251-0.732,0.642-0.858,1.068
		l-10.205-9.084l-39.639-73.532C97.667,184.166,101.136,182.28,104.702,180.566z M93.711,186.587l38.702,71.794l-60.862-54.172
		C78.198,197.5,85.636,191.576,93.711,186.587z M71.06,204.712l62.327,55.477l6.634,12.307c-0.308,0.225-0.645,0.415-1.03,0.517
		l0.003,0.003c-0.349,0.088-0.677,0.291-0.932,0.594l-12.061-4.793l-62.494-55.625C65.891,210.246,68.411,207.417,71.06,204.712z
		 M62.886,213.963l60.429,53.787l-75.218-29.891C52.088,229.294,57.065,221.279,62.886,213.963z M47.678,238.755l77.794,30.915
		l10.142,9.027c-0.086,0.596-0.352,1.142-0.753,1.595c-0.399,0.115-0.743,0.276-0.982,0.496l-12.965-0.378l-42.707-16.971
		c-0.059-1.824-0.434-3.247-1.64-3.826c-2.86-1.375-5.615-1.693-7.127,0.342l-26.071-10.36
		C44.632,245.896,46.072,242.28,47.678,238.755z M43.145,250.261l25.922,10.301c-0.054,0.104-0.11,0.203-0.159,0.315
		c-1.031,2.369-2.1,9.373-2.897,17.93l-28.57-0.834C38.245,268.37,40.19,259.086,43.145,250.261z M65.08,292.034
		c-0.409,8.507-0.372,15.774,0.204,19.001l-24.156,8.002c-2.407-8.908-3.811-18.224-4.067-27.822L65.08,292.034z M65.511,312.002
		c0.948,3.048,4.007,3.242,7.374,2.153c1.672-0.541,2.118-2.716,2.362-5.378l45.622-15.113l12.602,0.368
		c0.006,0.06,0.005,0.119,0.017,0.18c0.043,0.235,0.142,0.44,0.263,0.627c-0.19,0.356-0.276,0.707-0.172,1.026
		c0.106,0.326,0.391,0.562,0.766,0.74l-10.136,8.013l-79.211,26.24c-1.371-3.543-2.579-7.166-3.611-10.863L65.511,312.002z
		 M122.6,305.888l-63.916,50.528c-5.413-7.686-9.944-16.035-13.437-24.904L122.6,305.888z M124.549,305.243l12.093-4.006
		c-0.11,0.416-0.075,0.879,0.154,1.306c0.186,0.359,0.478,0.623,0.81,0.782l-0.003,0.003c0.315,0.156,0.589,0.367,0.823,0.612
		l-6.414,10.396L66.38,366.22c-2.577-2.953-5.013-6.031-7.293-9.228L124.549,305.243z M130.493,316.797l-42.479,68.855
		c-7.708-5.392-14.748-11.672-20.977-18.691L130.493,316.797z M132.76,315.005l8.957-7.081c-0.064,0.579,0.178,1.208,0.732,1.625
		c0.341,0.258,0.736,0.376,1.111,0.379l-0.003,0.004c0.348,0.002,0.678,0.074,0.995,0.178l-2.258,10.932L98.417,392.16
		c-3.295-1.833-6.495-3.817-9.59-5.944L132.76,315.005z M141.878,323.052l-3.086,14.94c-1.242,1.187-1.924,2.329-2.069,3.443
		c-0.174,0.086-0.315,0.202-0.405,0.358c-0.287,0.497,0.017,1.232,0.468,1.92c-0.58,0.173-1.081,0.677-1.219,1.408
		c-0.049,0.25-0.042,0.494,0.002,0.722c-0.352,0.28-0.591,0.598-0.591,0.95c0,0.506,0.489,0.942,1.107,1.292
		c-0.022,0.488-0.134,0.972-0.368,1.423h0.005c-0.176,0.346-0.263,0.703-0.188,1.178c0.062,0.379,0.227,0.705,0.436,0.964
		l-10.622,51.418c-9.263-2.48-18.085-6.047-26.318-10.563L141.878,323.052z M136.588,352.132c0.113,0.049,0.227,0.084,0.343,0.102
		c0.177,0.058,0.377,0.092,0.591,0.109c-0.215,0.232-0.359,0.527-0.382,0.865c-0.039,0.501,0.176,1.079,0.611,1.496
		c0.338,0.329,0.75,0.5,1.138,0.536l-0.003,0.004c1.161,0.119,2.17,0.674,2.767,1.635l0.002-0.005
		c0.194,0.319,0.497,0.589,0.881,0.745c0.921,0.374,1.886-0.044,2.253-0.857c0.012,0.003,0.025,0.004,0.037,0.006
		c-0.193,0.877,0.339,1.783,1.27,2.038c0.386,0.105,0.774,0.076,1.115-0.053l-0.001,0.004c0.046-0.017,0.093-0.026,0.139-0.041
		l-9.7,46.955c-3.94-0.616-7.817-1.427-11.62-2.421L136.588,352.132z M148.384,358.588c0.648,0.047,1.27,0.322,1.746,0.804v-0.005
		c0.253,0.262,0.587,0.446,0.975,0.516c0.994,0.173,1.913-0.498,2.053-1.466c0.141-0.968-0.512-1.864-1.447-2.026
		c-0.368-0.064-0.727-0.002-1.043,0.147l0.001-0.004c-0.603,0.289-1.285,0.292-1.875,0.051l0.234-1.131
		c0.355,0.114,0.688,0.134,0.952-0.018c0.792-0.458,0.59-2.185,0.365-3.296c1.111,0.225,2.837,0.427,3.295-0.365
		c0.457-0.793-0.581-2.187-1.331-3.036c1.074-0.361,2.671-1.049,2.671-1.964c-0.001-0.834-1.327-1.479-2.375-1.86
		c1.435-1.013,3.001-2.131,4.609-3.309l2.318,15.838c-0.205,0.039-0.401,0.102-0.577,0.207l0-0.004
		c-0.913,0.538-2.076,0.42-2.855-0.297l0,0.005c-0.26-0.237-0.588-0.405-0.961-0.452c-0.95-0.119-1.833,0.547-1.98,1.515
		c-0.148,0.967,0.537,1.875,1.529,2.003c0.388,0.047,0.76-0.031,1.076-0.205l0,0.006c0.948-0.512,2.109-0.393,2.93,0.305l0-0.006
		c0.273,0.231,0.619,0.39,1.006,0.42c0.117,0.01,0.231,0.006,0.343-0.006l6.686,45.677c-3.493,0.31-7.027,0.477-10.599,0.477
		c-5.945,0-11.788-0.444-17.503-1.289L148.384,358.588z M167.715,406.543l-6.732-45.988c0.356-0.296,0.596-0.73,0.63-1.226
		c0.052-0.776-0.399-1.462-1.066-1.753l-2.432-16.615c3.669-2.711,7.435-5.649,10.169-8.179l3.69,25.207
		c-0.023-0.001-0.043-0.011-0.066-0.012c-0.969-0.016-1.776,0.758-1.801,1.736c-0.024,0.979,0.757,1.793,1.743,1.809
		c0.222,0.003,0.429-0.044,0.625-0.116l6.37,43.519C175.19,405.634,171.479,406.178,167.715,406.543z M179.535,404.793
		l-6.401-43.727c0.845-0.452,1.88-0.4,2.677,0.163v-0.004c0.291,0.207,0.645,0.332,1.031,0.332c0.985-0.003,1.777-0.803,1.768-1.781
		c-0.009-0.978-0.803-1.767-1.774-1.764c-0.381,0-0.732,0.125-1.021,0.332v-0.003c-0.868,0.616-2.035,0.608-2.893-0.023l0,0.006
		c-0.062-0.046-0.137-0.071-0.205-0.109l-3.809-26.024c0.523-0.503,1-0.986,1.42-1.444c0.337-0.042,0.666-0.111,0.981-0.211
		l14.858,27.563c-0.261-0.139-0.556-0.221-0.871-0.213c-0.383,0.01-0.729,0.143-1.014,0.357v-0.004
		c-0.853,0.639-2.02,0.663-2.896,0.059v0.004c-0.293-0.203-0.646-0.323-1.027-0.316c-0.971,0.012-1.755,0.811-1.749,1.789
		c0.006,0.979,0.81,1.766,1.795,1.754c0.385-0.006,0.737-0.135,1.025-0.348v0.005c0.865-0.63,2.031-0.655,2.92-0.058l0-0.004
		c0.296,0.199,0.653,0.316,1.039,0.307c0.908-0.025,1.627-0.728,1.708-1.606l0.058,0.108c0.071,0.323,0.232,0.608,0.451,0.837
		l18.935,35.126C198.036,399.886,188.987,402.902,179.535,404.793z M207.18,395.599l-18.487-34.294
		c0.083,0.009,0.167,0.02,0.253,0.017c0.385-0.014,0.734-0.149,1.017-0.367v0.003c0.851-0.65,2.016-0.698,2.916-0.116l0-0.005
		c0.299,0.193,0.659,0.302,1.043,0.285c0.982-0.045,1.738-0.876,1.689-1.854c-0.048-0.977-0.876-1.732-1.85-1.688
		c-0.381,0.018-0.727,0.158-1.007,0.377l-0.002-0.004c-0.84,0.655-2.006,0.703-2.896,0.115v0.006
		c-0.297-0.197-0.652-0.309-1.034-0.296c-0.664,0.023-1.223,0.415-1.508,0.97l-15.349-28.473c1.859-0.871,3.149-2.753,3.149-4.942
		c0-0.638-0.115-1.247-0.316-1.816c1.842-1.615,2.853-4.285,2.269-7.923l0.816,0.726l22.452,41.649
		c-0.667,0.188-1.398,0.101-2.009-0.287l0,0.004c-0.3-0.191-0.658-0.297-1.039-0.277c-0.973,0.051-1.724,0.881-1.677,1.859
		c0.047,0.978,0.881,1.732,1.861,1.68c0.384-0.019,0.731-0.162,1.011-0.385v0.004c0.838-0.664,2.003-0.729,2.912-0.164l0-0.004
		c0.101,0.063,0.216,0.101,0.329,0.143l15.874,29.446C214.229,392.024,210.752,393.897,207.18,395.599z M218.439,389.469
		l-15.572-28.886c0.758-0.239,1.286-0.966,1.234-1.794c-0.062-0.977-0.901-1.719-1.875-1.657c-0.382,0.021-0.725,0.168-1.002,0.392
		v-0.006c-0.002,0.002-0.005,0.003-0.007,0.005l-21.175-39.281l42.116,37.487c-0.698,0.286-1.165,0.993-1.097,1.785
		c0.083,0.975,0.943,1.698,1.92,1.613c0.383-0.035,0.724-0.19,0.994-0.423l0,0.005c0.286-0.243,0.616-0.41,0.962-0.506
		l15.529,13.822C233.852,378.665,226.458,384.527,218.439,389.469z M241.159,371.317l-14.66-13.049
		c0.129,0.049,0.256,0.107,0.379,0.178l-0.001-0.005c0.308,0.18,0.671,0.271,1.054,0.236c0.977-0.092,1.692-0.957,1.6-1.93
		c-0.092-0.975-0.956-1.69-1.928-1.6c-0.381,0.035-0.72,0.192-0.989,0.426l-0.001-0.004c-0.785,0.675-1.9,0.788-2.807,0.301
		l-45.135-40.174l-7.091-13.154c1.135,0.341,2.726,0.671,3.471,0.134l10.969,4.359l52.932,47.115
		c-0.632,0.324-1.035,1.009-0.958,1.759c0.1,0.973,0.971,1.681,1.946,1.578c0.381-0.039,0.72-0.201,0.987-0.435l0.001,0.004
		c0.231-0.204,0.495-0.354,0.772-0.459l7.016,6.245C246.331,365.786,243.809,368.614,241.159,371.317z M264.476,337.459
		l-78.08-31.028l-10.549-9.389c1.197-0.09,2.522-0.374,2.784-1.18c0.046-0.142,0.046-0.292,0.026-0.445l13.875,0.902l27.656,10.99
		c0.083,1.094,0.283,2.103,0.667,2.322c0.459,0.263,3.059,0.209,5.427,0.099l42.527,16.9
		C267.537,330.325,266.09,333.938,264.476,337.459z M269.125,325.694l-40.491-16.091c1.026-0.063,1.741-0.116,1.741-0.116
		s0.075-0.481,0.141-1.137l43.341-2.167C272.825,312.886,271.229,319.405,269.125,325.694z M230.493,305.346
		c-0.095-0.402-0.253-0.682-0.514-0.715c-1.135-0.144-6.646,0.877-7.146,0.127s-2.276-0.973-2.526-0.598
		c-0.104,0.156-0.177,1.048-0.165,2.068l-24.414-9.702l78.729,5.117c-0.058,0.504-0.11,1.011-0.174,1.513L230.493,305.346z
		 M281.844,302.123l1.964,0.128c-0.016,0.144-0.033,0.288-0.049,0.432l-1.987,0.099
		C281.796,302.563,281.819,302.343,281.844,302.123z M339.609,336.903c-1.666-2.439-3.006-5.109-3.953-7.879
		c0.276-0.272,0.521-0.538,0.721-0.766c0.405,0.142,0.814,0.276,1.227,0.4c0.117,1.272,0.487,3.629,1.629,3.873
		c1.146,0.243,2.446-1.771,3.068-2.883c0.422,0.053,0.847,0.098,1.275,0.133c0.266,0.856,0.767,2.209,1.449,2.944v4.717
		C343.183,337.395,341.375,337.213,339.609,336.903z M378.428,317.878l-4.643-2.681c-0.413-0.745-1.038-1.486-1.494-1.98
		c0.184-0.389,0.362-0.782,0.529-1.18c1.278,0.016,3.656-0.107,4.017-1.216c0.361-1.113-1.499-2.612-2.542-3.349
		c0.098-0.416,0.188-0.836,0.267-1.259c1.252-0.249,3.563-0.864,3.685-2.026c0.122-1.166-2.018-2.248-3.189-2.75
		c0.005-0.215,0.016-0.428,0.016-0.643c0-0.214-0.012-0.426-0.016-0.639c1.171-0.503,3.311-1.585,3.189-2.751
		c-0.025-0.241-0.153-0.455-0.337-0.651c1.319-1.802,2.471-3.709,3.419-5.712c0.855,3.106,1.321,6.374,1.321,9.752
		C382.651,306.964,381.12,312.775,378.428,317.878z M361.579,260.553c-0.947,0.087-1.876-0.308-2.477-1.068l-0.002,0.005
		c-0.222-0.292-0.542-0.514-0.927-0.628c-0.991-0.284-1.985,0.3-2.203,1.254c-0.218,0.954,0.335,1.898,1.224,2.153
		c0.208,0.062,0.417,0.066,0.622,0.045c-0.231,0.26-0.439,0.515-0.615,0.741c-0.683-0.203-1.374-0.386-2.073-0.552
		c-0.046-0.336-0.112-0.731-0.203-1.14c0.498-0.22,0.9-0.666,1.044-1.249c0.234-0.949-0.388-1.921-1.405-2.109
		c-0.089-0.018-0.174-0.004-0.261-0.008c0.133-0.37,0.218-0.763,0.218-1.179c0-1.933-1.567-3.5-3.5-3.5
		c-5.138,0-10.972,0.382-16.867,1.951l-11.188-37.418c4.103-1.702,10.261-4.305,19.585-8.263
		c26.763-11.357,68.089-28.894,95.719-38.704L361.579,260.553z M444.04,164.141l-3.181,3.719
		c-27.647,9.572-71.24,28.072-99.088,39.89c-7.477,3.173-14.389,6.106-19.381,8.175l-0.648-2.168L444.04,164.141z M296.924,169.228
		l9.73,31.761c-4.742-9.084-10.745-19.527-16.49-26.6C292.686,172.42,294.956,170.686,296.924,169.228z M279.977,168.282
		c0.451,0.125,0.92,0.324,1.402,0.579c-2.521,2.026-5.217,4.218-8.054,6.551l-1-1.342l2.876-2.347
		c1.527-0.323,2.674-1.677,2.674-3.3c0-0.031-0.008-0.059-0.009-0.09C278.492,168.089,279.178,168.061,279.977,168.282z
		 M257.387,186.256c0.449,0.448,0.89,0.904,1.333,1.358c-0.844,0.715-1.695,1.438-2.551,2.167c-0.46-0.469-0.922-0.936-1.388-1.399
		L257.387,186.256z M156.129,416.463c-70.951,0-128.469-57.518-128.469-128.469c0-70.951,57.518-128.469,128.469-128.469
		c32.624,0,62.401,12.167,85.059,32.202l-1.544,1.26c-23.099-20.361-52.449-31.491-83.515-31.491
		c-33.789,0-65.555,13.158-89.448,37.051c-23.892,23.893-37.05,55.658-37.05,89.447c0,33.789,13.158,65.556,37.05,89.447
		c23.893,23.893,55.659,37.051,89.448,37.051c33.789,0,65.556-13.158,89.448-37.051c7.106-7.106,13.254-14.912,18.397-23.257
		c0.363,0.3,0.841,0.46,1.345,0.398c0.372-0.046,0.699-0.21,0.959-0.444C243.807,391.48,202.887,416.463,156.129,416.463z
		 M267.85,351.454c-0.623,0.187-1.309,0.131-1.908-0.192l0.001,0.005c-0.057-0.031-0.124-0.042-0.185-0.067
		c8.068-13.941,13.371-29.299,15.625-45.394l1.994-0.1C281.11,322.154,275.732,337.608,267.85,351.454z M313.662,304.191
		l0.052,0.003c0.134,1.157,2.435,1.769,3.683,2.018c0.08,0.423,0.169,0.842,0.267,1.258c-1.043,0.736-2.904,2.236-2.542,3.349
		c0.361,1.109,2.739,1.232,4.018,1.216c0.167,0.398,0.344,0.79,0.528,1.179c-0.456,0.494-1.082,1.237-1.495,1.982l-4.642,2.68
		c-2.161-4.096-3.573-8.648-4.045-13.477L313.662,304.191z M341.595,340.141l0.001,0.004c-0.065-0.032-0.14-0.042-0.209-0.066
		c0.033-0.061,0.065-0.12,0.095-0.178c0.706,0.08,1.416,0.144,2.133,0.186c0.011,0.034,0.02,0.065,0.032,0.1
		C343,340.458,342.255,340.458,341.595,340.141z M369.468,333.168c-0.315,0.18-0.548,0.443-0.698,0.756l-0.002-0.004
		c-0.195,0.407-0.512,0.723-0.886,0.936c-0.055-0.441-0.133-0.861-0.21-1.211c0.597-0.395,1.184-0.802,1.758-1.228
		c0.27,0.17,0.591,0.36,0.937,0.542C370.058,332.948,369.747,333.012,369.468,333.168z M375.343,329.24l-0.003-0.004
		c-0.149,0.904-0.862,1.605-1.741,1.77c-0.151-0.597-0.367-1.182-0.554-1.636c0.517-0.49,1.021-0.994,1.511-1.511
		c0.358,0.147,0.796,0.311,1.26,0.449c-0.004,0.004-0.01,0.007-0.014,0.012C375.55,328.579,375.398,328.895,375.343,329.24z
		 M378.841,325.227l0.004,0.002c-0.193,0.061-0.37,0.162-0.534,0.284c-0.228-0.47-0.486-0.913-0.709-1.267
		c0.426-0.573,0.833-1.161,1.228-1.758c0.439,0.095,0.989,0.193,1.549,0.244c0,0.058-0.013,0.116-0.007,0.174l-0.004-0.002
		C380.477,323.937,379.832,324.92,378.841,325.227z M383.772,316.418c-0.073,0.674-0.439,1.303-1.042,1.674l0.004,0.002
		c-0.296,0.184-0.537,0.445-0.683,0.779c-0.058,0.136-0.091,0.276-0.112,0.418c-0.256-0.334-0.518-0.641-0.747-0.893
		c0.32-0.638,0.625-1.285,0.91-1.942C382.58,316.474,383.179,316.475,383.772,316.418z M383.717,289.571
		c0.231-0.179,0.491-0.392,0.756-0.628c-0.171,0.36-0.229,0.77-0.128,1.172c0.09,0.355,0.295,0.651,0.554,0.879h-0.004
		c0.284,0.242,0.49,0.545,0.62,0.875c-0.446-0.104-0.88-0.176-1.246-0.226C384.103,290.946,383.92,290.254,383.717,289.571z
		 M383.411,285.143c-0.471-0.028-0.927-0.023-1.307-0.008c-0.286-0.658-0.591-1.305-0.911-1.944
		c0.139-0.153,0.289-0.325,0.443-0.512c0.16,0.241,0.365,0.441,0.609,0.578l-0.004,0.001
		C382.952,283.64,383.377,284.37,383.411,285.143z M379.622,278.548l0.004-0.003c-0.006,0.133,0.013,0.266,0.034,0.399
		c-0.302,0.047-0.582,0.102-0.831,0.156c-0.1-0.152-0.199-0.304-0.301-0.454l0.925-1.081
		C379.579,277.869,379.645,278.202,379.622,278.548z M512.523,124.92c-3.97,4.641-9.398,11.039-15.794,18.576
		c-31.326,36.922-82.82,97.611-103.999,118.545l124.537-145.605l0.493,1.445C516.132,120.381,514.389,122.739,512.523,124.92z
		 M525.35,103.47l-2.301-6.748c1.257-1.715,2.502-3.367,3.733-4.919c0.323,1.666,0.708,3.378,1.144,5.126
		C527.121,99.143,526.265,101.329,525.35,103.47z M485.95,287.994c0-3.137,0.124-6.245,0.363-9.321l83.391,2.434l15.847,6.297
		l-15.893,5.265l-83.679-2.443C485.964,289.483,485.95,288.741,485.95,287.994z M596.315,287.848l-0.39-0.347l0.419-0.331
		c-0.015,0.207-0.031,0.413-0.031,0.623C596.312,287.811,596.315,287.829,596.315,287.848z M606.163,279.41
		c0-0.001-0.001-0.001-0.001-0.002l0.531-0.42l0.325,0.603C606.738,279.517,606.453,279.457,606.163,279.41z M605.748,278.84
		c-0.309-0.427-0.62-0.86-0.936-1.31l0.584-0.946l0.958,1.777L605.748,278.84z M596.335,286.281l-0.942,0.745l-1.507-1.341
		l1.728-0.572C595.858,285.512,596.097,285.899,596.335,286.281z M594.605,287.649l-2.188,1.73l-4.401-1.749l4.786-1.586
		L594.605,287.649z M595.138,288.123l1.277,1.136l-0.846,1.371l-2.398-0.953L595.138,288.123z M596.779,290.551
		c0.077,0.225,0.16,0.446,0.255,0.662l-0.533-0.212L596.779,290.551z M597.218,292.042l-0.294,1.425l-1.908-0.056l1.112-1.802
		L597.218,292.042z M597.816,292.615c0.219,0.317,0.463,0.614,0.722,0.898l-0.903-0.026L597.816,292.615z M599.252,294.523
		l0.202,1.377l-2.486,0.823l0.466-2.254L599.252,294.523z M600.32,295c0.222,0.139,0.451,0.268,0.687,0.386l-0.601,0.199L600.32,295
		z M601.588,295.932l0.788,1.461l-1.528,1.208l-0.338-2.312L601.588,295.932z M602.389,295.938c0.469,0.139,0.955,0.239,1.454,0.296
		l-0.908,0.717L602.389,295.938z M604.808,296.731l0.914,0.814l-1.317,2.135l-0.994-1.844L604.808,296.731z M605.744,296.24
		c0.296-0.032,0.586-0.081,0.872-0.143l-0.366,0.593L605.744,296.24z M607.438,296.103l1.644,0.653l-0.428,2.073l-1.87-1.665
		L607.438,296.103z M608.128,295.622c0.469-0.199,0.915-0.443,1.336-0.719l-0.239,1.156L608.128,295.622z M610.484,294.851
		l1.186,0.035l0.333,2.276l-1.845-0.733L610.484,294.851z M610.75,293.87c0.235-0.23,0.458-0.473,0.665-0.729l0.11,0.751
		L610.75,293.87z M612.027,292.474l1.641-0.544l1.109,2.057l-2.54-0.074L612.027,292.474z M612.398,291.612
		c0.186-0.369,0.348-0.751,0.48-1.149l0.453,0.84L612.398,291.612z M613.623,289.763l1.018-0.805l1.565,1.393l-1.923,0.637
		L613.623,289.763z M613.248,288.799c0.039-0.33,0.065-0.665,0.065-1.006c0-0.006-0.001-0.013-0.001-0.019l0.58,0.516
		L613.248,288.799z M613.246,286.775c-0.003-0.023-0.008-0.046-0.011-0.069l0.795-1.289l2.326,0.924l-1.906,1.507L613.246,286.775z
		 M613.039,285.687c-0.066-0.257-0.142-0.509-0.231-0.756l0.56,0.223L613.039,285.687z M612.758,283.848l0.305-1.474l1.985,0.058
		l-1.152,1.868L612.758,283.848z M611.901,283.107c-0.181-0.273-0.377-0.535-0.588-0.785l0.745,0.022L611.901,283.107z
		 M610.622,281.6c-0.07-0.066-0.142-0.131-0.214-0.195l-0.167-1.138l2.412-0.799l-0.45,2.178L610.622,281.6z M609.605,280.775
		c-0.101-0.069-0.206-0.13-0.31-0.194l0.269-0.089L609.605,280.775z M608.291,279.872l-0.811-1.505l1.589-1.256l0.35,2.388
		L608.291,279.872z M607.141,277.739l-1.146-2.126l2.307-3.739l0.649,4.434L607.141,277.739z M605.454,274.608l-2.832-5.254
		l3.109-15.049l2.349,16.047L605.454,274.608z M604.854,275.579l-0.656,1.063c-0.767-1.115-1.552-2.295-2.352-3.535l0.464-2.247
		L604.854,275.579z M593.207,281.092l-4.634-0.135l-11.481-10.219l13.17,5.233C591.279,277.77,592.262,279.48,593.207,281.092z
		 M593.628,281.806c0.498,0.843,0.984,1.656,1.458,2.44l-2.053,0.68l-3.645-3.244L593.628,281.806z M591.95,285.285l-5.363,1.776
		l-14.832-5.894l16.097,0.47L591.95,285.285z M586.979,287.973l4.802,1.908l-4.19,3.312l-15.046-0.439L586.979,287.973z
		 M592.535,290.181l2.659,1.057l-1.32,2.14l-5.191-0.152L592.535,290.181z M593.275,294.349l-2.79,4.523l-15.393,5.099l12.385-9.791
		L593.275,294.349z M594.416,294.382l2.305,0.067l-0.523,2.529l-4.253,1.409L594.416,294.382z M596.034,297.772l-1.144,5.539
		l-11.679,9.233l8.16-13.227L596.034,297.772z M596.803,297.517l2.753-0.912l0.396,2.704l-4.206,3.325L596.803,297.517z
		 M600.117,300.439l0.732,5.004l-8.545,13.851l3.13-15.154L600.117,300.439z M601.013,299.731l1.839-1.454l1.128,2.092l-2.323,3.765
		L601.013,299.731z M604.365,301.083l2.763,5.126l-3.024,14.639l-2.288-15.633L604.365,301.083z M604.791,300.393l1.465-2.374
		l2.167,1.928l-1.073,5.192L604.791,300.393z M609.275,300.706l3.734,3.324l2.333,15.935l-7.262-13.472L609.275,300.706z
		 M609.506,299.588l0.508-2.462l2.107,0.837l0.665,4.544L609.506,299.588z M612.875,298.263l5.355,2.128l7.215,13.384
		l-11.842-10.541L612.875,298.263z M612.757,297.461l-0.374-2.555l2.936,0.086l2.392,4.438L612.757,297.461z M616.46,295.026
		l5.168,0.151l11.792,10.496l-14.279-5.674L616.46,295.026z M615.919,294.021l-1.297-2.406l2.19-0.725l3.668,3.265L615.919,294.021z
		 M617.582,290.634l5.224-1.731l14.445,5.74l-15.678-0.458L617.582,290.634z M616.977,290.096l-1.776-1.581l2.217-1.753l4.374,1.738
		L616.977,290.096z M618.313,286.055l4.304-3.403l15.466,0.451l-14.832,4.913L618.313,286.055z M617.252,285.633l-2.694-1.071
		l1.3-2.108l5.222,0.152L617.252,285.633z M616.283,281.765l2.714-4.399l14.996-4.968l-12.057,9.531L616.283,281.765z
		 M615.472,281.742l-2.266-0.066l0.53-2.566l4.223-1.399L615.472,281.742z M613.967,277.991l1.174-5.682l12.005-9.491l-8.38,13.583
		L613.967,277.991z M612.884,278.35l-2.789,0.924l-0.39-2.667l4.23-3.344L612.884,278.35z M609.587,275.805l-0.712-4.861
		l8.326-13.496l-3.046,14.746L609.587,275.805z M608.653,269.422l-2.507-17.128l9.881-47.829c1.369-0.575,2.831-1.169,4.48-1.672
		c2.432-0.74,5.464-0.627,8.123-0.662l-10.843,52.486L608.653,269.422z M605.849,250.263l-6.679-45.628
		c2.701,1.14,5.057,2.158,7.782,2.158h0.889c2.596,0,4.857-0.924,7.401-1.998L605.849,250.263z M605.433,252.275l-3.33,16.118
		l-7.794-14.457l-7.582-51.798c2.516,0.017,5.297-0.033,7.557,0.655c1.509,0.46,2.86,0.996,4.128,1.525L605.433,252.275z
		 M601.792,269.899l-0.489,2.366c-1.827-2.866-3.732-6.035-5.692-9.435l-0.883-6.034L601.792,269.899z M594.268,260.477
		c-9.955-17.589-21.15-40.734-30.654-61.399l29.743,55.173L594.268,260.477z M558.89,215.244l-15.649-29.029
		c0.433-0.264,0.873-0.52,1.31-0.779C548.964,194.772,553.851,204.951,558.89,215.244z M542.644,186.588l25.3,46.932
		c4.151,8.274,8.272,16.333,12.186,23.779l-59.645-53.089C527.132,197.5,534.569,191.576,542.644,186.588z M519.993,204.712
		l61.071,54.359c2.964,5.612,5.799,10.847,8.425,15.53l-14.555-5.784l-62.494-55.625
		C514.824,210.247,517.345,207.417,519.993,204.712z M511.82,213.963l60.429,53.787l-75.217-29.891
		C501.022,229.294,505.999,221.28,511.82,213.963z M496.612,238.755l77.794,30.915l12.63,11.242l-17.188-0.502l-77.545-30.815
		C493.565,245.896,495.005,242.28,496.612,238.755z M492.079,250.261l75.717,30.089l-81.421-2.377
		C487.179,268.37,489.124,259.086,492.079,250.261z M566.914,293.579l-76.852,25.459c-2.407-8.908-3.811-18.224-4.067-27.822
		L566.914,293.579z M569.802,293.663l16.583,0.484l-13.242,10.469l-79.211,26.24c-1.371-3.543-2.578-7.166-3.611-10.863
		L569.802,293.663z M571.533,305.888l-63.916,50.528c-5.413-7.686-9.944-16.035-13.437-24.904L571.533,305.888z M573.482,305.243
		l16.429-5.442l-8.968,14.536l-65.63,51.884c-2.577-2.952-5.013-6.031-7.292-9.228L573.482,305.243z M579.426,316.797
		l-42.479,68.854c-7.707-5.392-14.748-11.672-20.976-18.69L579.426,316.797z M581.693,315.004l12.885-10.187l-3.351,16.223
		l-43.876,71.12c-3.296-1.833-6.496-3.817-9.591-5.944L581.693,315.004z M590.812,323.052l-16.53,80.015
		c-9.263-2.48-18.085-6.047-26.318-10.563L590.812,323.052z M591.889,321.305l9.119-14.781l2.511,17.155l-16.938,81.992
		c-3.94-0.616-7.817-1.427-11.62-2.421L591.889,321.305z M603.938,326.539l11.724,80.091c-3.493,0.31-7.026,0.477-10.599,0.477
		c-5.945,0-11.789-0.444-17.503-1.289L603.938,326.539z M616.648,406.543l-12.125-82.834l3.335-16.145l7.78,14.433l12.139,82.929
		C624.124,405.634,620.412,406.178,616.648,406.543z M628.468,404.793l-11.855-80.988l38.863,72.092
		C646.97,399.887,637.92,402.902,628.468,404.793z M656.113,395.599l-39.797-73.825l-2.491-17.017l12.991,11.563l39.713,73.668
		C663.162,392.024,659.686,393.897,656.113,395.599z M667.373,389.469l-38.398-71.228l60.426,53.784
		C682.786,378.665,675.392,384.527,667.373,389.469z M690.093,371.317l-62.49-55.621l-7.945-14.737l15.294,6.078l62.675,55.786
		l0.021,0.019C695.264,365.786,692.742,368.614,690.093,371.317z M698.091,362.294l-61.228-54.498l76.164,30.267l0.084,0.034
		C709.069,346.778,704.012,354.895,698.091,362.294z M713.409,337.459l-78.079-31.028l-12.609-11.223l17.216,0.503l77.805,30.919
		C716.471,330.325,715.023,333.938,713.409,337.459z M718.059,325.693l-75.236-29.898l80.916,2.363
		C722.929,307.698,720.993,316.922,718.059,325.693z M640.138,294.728l-15.873-6.308l15.869-5.257l83.87,2.448l0.144,0.004
		c0.016,0.791,0.03,1.583,0.03,2.378c0,3.088-0.118,6.148-0.35,9.178L640.138,294.728z M642.082,282.518l77.918-25.811
		c2.46,9.026,3.89,18.471,4.138,28.207L642.082,282.518z M640.031,282.459l-16.558-0.483l13.263-10.485l79.471-26.326
		c1.37,3.544,2.577,7.168,3.608,10.865L640.031,282.459z M639.004,269.698l63.47-50.176c5.38,7.632,9.891,15.918,13.378,24.718
		L639.004,269.698z M636.26,270.607l-16.456,5.451l8.953-14.512l65.825-52.037c2.585,2.945,5.029,6.016,7.318,9.207L636.26,270.607z
		 M629.835,259.798l43.001-69.7c7.825,5.434,14.969,11.779,21.28,18.884L629.835,259.798z M628.224,261.072l-12.862,10.168
		l3.357-16.252l43.941-71.224c3.298,1.83,6.5,3.81,9.597,5.934L628.224,261.072z M619.304,252.157l10.34-50.051
		c2.47-0.088,4.469-0.439,5.085-1.979c1.333-3.333,1.333-6.444-1.778-7.556c-0.333-0.119-0.769-0.232-1.267-0.34l3.998-19.354
		c9.184,2.445,17.939,5.955,26.115,10.403L619.304,252.157z M630.714,192.043c-2.685-0.465-6.901-0.814-11.91-1.024l4.292-20.775
		c3.943,0.601,7.823,1.397,11.63,2.376L630.714,192.043z M618.094,190.99c-3.316-0.128-6.949-0.196-10.698-0.196
		c-3.572,0-7.038,0.062-10.226,0.179l-3.158-21.574c3.64-0.336,7.325-0.517,11.051-0.517c5.888,0,11.675,0.436,17.336,1.266
		L618.094,190.99z M593.311,169.461l3.153,21.539c-4.548,0.18-8.471,0.475-11.24,0.865l-3.04-20.77
		C585.837,170.381,589.548,169.831,593.311,169.461z M581.212,171.281l3.035,20.731c-1.023,0.171-1.842,0.357-2.406,0.559
		c-3.111,1.111-3.111,4.222-1.778,7.556c0.664,1.66,2.928,1.942,5.664,1.998l7.211,49.267l-35.355-65.584
		c-0.9-2.003-1.775-3.961-2.62-5.862C563.244,176.09,572.036,173.154,581.212,171.281z M551.947,173.123
		c-0.263-0.599-0.522-1.188-0.777-1.771c0.614-0.284,1.229-0.564,1.848-0.839l0.713,1.792
		C553.133,172.572,552.54,172.849,551.947,173.123z M542.735,144.656l1.494,3.757c-0.308,0.132-0.614,0.269-0.921,0.403l0.338-1.523
		l-1.219-2.488L542.735,144.656z M544.712,156.389c0.759-0.342,1.524-0.672,2.29-1.002l1.677,4.216
		c-0.729,0.321-1.456,0.646-2.179,0.979C545.847,159.058,545.247,157.651,544.712,156.389z M605.063,416.463
		c-70.951,0-128.469-57.518-128.469-128.469c0-47.428,25.705-88.849,63.94-111.104c0.272,0.583,0.549,1.173,0.826,1.765
		c-9.285,5.43-17.938,12.083-25.745,19.891c-23.892,23.893-37.05,55.658-37.05,89.447c0,33.789,13.158,65.556,37.05,89.447
		c23.893,23.893,55.659,37.051,89.448,37.051c33.789,0,65.556-13.158,89.448-37.051c23.893-23.892,37.051-55.658,37.051-89.447
		c0-33.789-13.158-65.555-37.051-89.447c-23.893-23.893-55.659-37.051-89.448-37.051c-15.916,0-31.383,2.922-45.791,8.508
		l-0.714-1.796c14.422-5.603,30.103-8.683,46.505-8.683c70.952,0,128.47,57.518,128.47,128.469
		C733.533,358.945,676.015,416.463,605.063,416.463z"/>
	<rect x="579.229" y="88.461" width="2" height="31.917"/>
	<rect x="520.201" y="130.074" transform="matrix(0.9465 -0.3228 0.3228 0.9465 -14.4017 177.7989)" width="17.417" height="4.5"/>
	<circle cx="371.979" cy="373.293" r="2.062"/>
	<path d="M243.688,103.251c7.292,0.497,11.517,1.195,14.425,1.835c2.44,4.748,6.572,7.669,12.185,8.605
		c0.812,2.431,3.102,4.186,5.806,4.186c2.007,0,3.784-0.97,4.901-2.462l7.706,25.755l9.274-3.507l-9.425-31.498
		c4.396-2.456,8.461-8.443,11.85-13.437c0.211-0.31,0.418-0.615,0.623-0.916c6.086-2.733,10.14-1.779,21.487-4.726
		c12.833-3.334,5.167-11.167-7.833-13.167s-30.667,3.833-46.667,5.333s-20.339-1.721-38-2.166c-5.976-0.151-10.333,6-10.333,10.833
		S221.688,101.751,243.688,103.251z M276.104,115.001c-1.794,0-3.25-1.456-3.25-3.25c0-1.794,1.456-3.25,3.25-3.25
		c1.795,0,3.25,1.456,3.25,3.25C279.354,113.546,277.899,115.001,276.104,115.001z M276.369,105.64
		c0.553-0.114,1.084-0.237,1.601-0.367l0.217,0.725C277.615,105.791,277.006,105.667,276.369,105.64z M287.97,104.19l-0.843-2.818
		c3.741-2.389,6.458-5.184,10.073-7.491C294.455,97.85,291.194,102.198,287.97,104.19z M273.747,106.096
		c0.002,0,0.005-0.001,0.007-0.001c-2.096,0.871-3.597,2.873-3.755,5.245c-4.019-0.644-6.813-2.485-8.729-5.483
		C264.587,106.715,266.438,107.143,273.747,106.096z"/>
	<circle cx="276.104" cy="111.751" r="1.916"/>
	<polygon points="33.731,186.418 22.312,184.46 14.812,216.793 17.916,217.76 	"/>
	<path d="M306.884,262.025c0.382-0.015,0.73-0.154,1.011-0.373v0.004c0.846-0.652,2.011-0.698,2.904-0.113v-0.005
		c0.298,0.196,0.654,0.308,1.037,0.293c0.977-0.037,1.739-0.86,1.703-1.839c-0.037-0.979-0.859-1.74-1.838-1.703
		c-0.383,0.015-0.732,0.152-1.013,0.371l0-0.006c-0.846,0.653-2.013,0.698-2.908,0.115v0.005c-0.298-0.195-0.656-0.306-1.039-0.291
		c-0.978,0.039-1.739,0.865-1.699,1.844C305.082,261.304,305.907,262.064,306.884,262.025z"/>
	<path d="M269.204,260.188c-0.383,0.019-0.729,0.161-1.009,0.382l0-0.004c-0.839,0.66-2.005,0.717-2.906,0.142v0.005
		c-0.299-0.193-0.658-0.299-1.041-0.281c-0.977,0.049-1.73,0.88-1.682,1.858c0.048,0.977,0.88,1.73,1.857,1.683
		c0.383-0.019,0.729-0.161,1.008-0.382v0.005c0.84-0.662,2.006-0.719,2.905-0.144l-0.001-0.005c0.3,0.193,0.658,0.301,1.042,0.282
		c0.977-0.048,1.73-0.88,1.683-1.856C271.013,260.895,270.181,260.142,269.204,260.188z"/>
	<path d="M235.228,261.881c-0.383,0.02-0.729,0.161-1.008,0.383v-0.004c-0.839,0.662-2.005,0.719-2.905,0.143l0,0.006
		c-0.3-0.192-0.658-0.3-1.041-0.281c-0.977,0.048-1.731,0.881-1.682,1.857c0.048,0.978,0.879,1.732,1.858,1.683
		c0.383-0.018,0.728-0.16,1.007-0.382l0.001,0.005c0.84-0.661,2.005-0.72,2.906-0.145v-0.004c0.3,0.191,0.658,0.3,1.041,0.28
		c0.977-0.049,1.73-0.881,1.681-1.859C237.037,262.586,236.205,261.832,235.228,261.881z"/>
	<path d="M221.953,266.083c0.384-0.017,0.729-0.16,1.009-0.38v0.004c0.84-0.66,2.006-0.718,2.906-0.143l0-0.004
		c0.3,0.193,0.659,0.301,1.042,0.281c0.977-0.049,1.731-0.88,1.683-1.857c-0.048-0.977-0.879-1.73-1.857-1.684
		c-0.383,0.019-0.729,0.161-1.008,0.383l0-0.005c-0.839,0.661-2.005,0.717-2.904,0.142v0.004c-0.3-0.192-0.658-0.3-1.041-0.281
		c-0.977,0.048-1.731,0.879-1.684,1.856C220.145,265.377,220.976,266.131,221.953,266.083z"/>
	<path d="M163.277,361.211c0.387,0.025,0.75-0.082,1.053-0.273v0.004c0.909-0.57,2.074-0.52,2.928,0.133l0-0.006
		c0.285,0.217,0.636,0.354,1.022,0.367c0.987,0.031,1.805-0.744,1.827-1.723c0.022-0.979-0.745-1.788-1.714-1.82
		c-0.38-0.011-0.733,0.1-1.028,0.297l0-0.004c-0.887,0.586-2.054,0.535-2.883-0.129l0,0.004c-0.276-0.223-0.618-0.365-0.997-0.389
		c-0.964-0.055-1.801,0.68-1.872,1.657C161.542,360.305,162.288,361.154,163.277,361.211z"/>
	<path d="M205.986,360.443c0.383-0.025,0.727-0.174,1.004-0.398v0.005c0.829-0.679,1.993-0.759,2.908-0.204l0-0.005
		c0.304,0.187,0.667,0.284,1.05,0.257c0.978-0.07,1.711-0.923,1.637-1.898c-0.074-0.977-0.923-1.708-1.896-1.637
		c-0.381,0.029-0.723,0.178-0.997,0.404l0-0.004c-0.822,0.68-1.987,0.762-2.896,0.201l0.001,0.006
		c-0.303-0.188-0.663-0.288-1.044-0.264c-0.974,0.064-1.713,0.906-1.651,1.883C204.163,359.767,205.007,360.508,205.986,360.443z"/>
	<path d="M219.147,355.898c-0.381,0.03-0.721,0.184-0.993,0.414v-0.004c-0.815,0.689-1.979,0.782-2.894,0.234v0.006
		c-0.305-0.186-0.665-0.282-1.046-0.251c-0.974,0.075-1.703,0.925-1.629,1.901c0.073,0.976,0.926,1.707,1.904,1.631
		c0.383-0.03,0.726-0.182,0.999-0.41v0.005c0.821-0.687,1.984-0.78,2.905-0.235v-0.006c0.306,0.183,0.669,0.278,1.052,0.246
		c0.978-0.082,1.701-0.941,1.617-1.916C220.977,356.539,220.121,355.816,219.147,355.898z"/>
	<path d="M231.465,358.342c0.382-0.037,0.722-0.193,0.992-0.43l0,0.004c0.807-0.7,1.969-0.815,2.898-0.287l0-0.004
		c0.31,0.178,0.673,0.267,1.056,0.227c0.975-0.098,1.684-0.969,1.584-1.941c-0.101-0.975-0.97-1.682-1.942-1.584
		c-0.381,0.039-0.718,0.197-0.986,0.434l0-0.006c-0.804,0.703-1.965,0.818-2.891,0.287l0.001,0.004
		c-0.308-0.178-0.671-0.268-1.051-0.231c-0.973,0.094-1.685,0.957-1.593,1.934C229.623,357.721,230.489,358.438,231.465,358.342z"/>
	<path d="M295.06,347.045c-0.38,0.053-0.711,0.225-0.968,0.472l-0.001-0.005c-0.775,0.736-1.931,0.898-2.879,0.404l0.001,0.006
		c-0.315-0.165-0.681-0.24-1.06-0.188c-0.969,0.135-1.646,1.031-1.511,1.999c0.134,0.971,1.029,1.648,1.999,1.512
		c0.379-0.052,0.712-0.226,0.971-0.471l0.001,0.005c0.777-0.732,1.933-0.897,2.883-0.406l-0.001-0.004
		c0.316,0.164,0.683,0.238,1.062,0.184c0.97-0.137,1.644-1.035,1.505-2.004C296.924,347.58,296.026,346.906,295.06,347.045z"/>
	<path d="M303.469,345.829c-0.379,0.056-0.71,0.229-0.967,0.478v-0.004c-0.772,0.738-1.927,0.904-2.877,0.418l0.001,0.004
		c-0.316-0.164-0.683-0.236-1.062-0.183c-0.968,0.14-1.639,1.038-1.501,2.007c0.139,0.969,1.037,1.643,2.006,1.502
		c0.38-0.055,0.711-0.229,0.969-0.476l0.001,0.005c0.773-0.738,1.929-0.905,2.881-0.42l-0.001-0.004
		c0.317,0.164,0.685,0.236,1.065,0.18c0.969-0.143,1.638-1.043,1.495-2.012C305.335,346.357,304.435,345.688,303.469,345.829z"/>
	<path d="M311.871,344.576c-0.378,0.057-0.708,0.234-0.965,0.481l0-0.004c-0.768,0.742-1.921,0.916-2.874,0.432l0.001,0.004
		c-0.318-0.162-0.685-0.231-1.062-0.178c-0.967,0.145-1.635,1.047-1.492,2.014c0.143,0.969,1.044,1.638,2.013,1.494
		c0.379-0.057,0.71-0.232,0.967-0.48l0,0.004c0.77-0.74,1.924-0.913,2.879-0.432l-0.001-0.004c0.318,0.162,0.686,0.232,1.065,0.174
		c0.968-0.146,1.634-1.051,1.486-2.018C313.74,345.094,312.837,344.43,311.871,344.576z"/>
	<path d="M320.268,343.283c-0.378,0.061-0.708,0.237-0.961,0.486l-0.001-0.003c-0.765,0.745-1.918,0.923-2.872,0.442l0.001,0.007
		c-0.318-0.161-0.686-0.232-1.063-0.173c-0.967,0.148-1.631,1.051-1.483,2.02c0.147,0.967,1.052,1.633,2.02,1.485
		c0.38-0.061,0.709-0.237,0.965-0.485v0.004c0.768-0.744,1.921-0.924,2.877-0.445l-0.001-0.006c0.319,0.16,0.687,0.23,1.066,0.17
		c0.968-0.15,1.629-1.059,1.477-2.025C322.14,343.793,321.233,343.133,320.268,343.283z"/>
	<path d="M328.659,341.951c-0.378,0.062-0.707,0.24-0.96,0.492l0-0.007c-0.761,0.75-1.914,0.934-2.87,0.46l0.001,0.006
		c-0.319-0.161-0.687-0.228-1.065-0.169c-0.965,0.153-1.625,1.06-1.473,2.026c0.152,0.967,1.06,1.628,2.027,1.475
		c0.378-0.06,0.708-0.238,0.961-0.488l0.001,0.004c0.763-0.748,1.916-0.932,2.875-0.459l0-0.004
		c0.319,0.158,0.688,0.225,1.067,0.163c0.967-0.155,1.624-1.066,1.467-2.033C330.532,342.453,329.623,341.797,328.659,341.951z"/>
	<circle cx="523.146" cy="17.794" r="4.983"/>
</g>
</svg>
