<?xml version="1.0" encoding="utf-8"?>
<!-- Generator: Adobe Illustrator 17.0.2, SVG Export Plug-In . SVG Version: 6.00 Build 0)  -->
<!DOCTYPE svg PUBLIC "-//W3C//DTD SVG 1.1//EN" "http://www.w3.org/Graphics/SVG/1.1/DTD/svg11.dtd">
<svg version="1.1" id="Layer_1" xmlns="http://www.w3.org/2000/svg" xmlns:xlink="http://www.w3.org/1999/xlink" x="0px" y="0px"
	 width="754px" height="435px" viewBox="0 0 754 435" enable-background="new 0 0 754 435" xml:space="preserve">
<g>
	<polygon fill="#FFFFFF" points="277.224,102.777 288.711,141.169 297.985,137.662 286.497,99.27 	"/>
	<path fill="#FFFFFF" d="M230.02,77.085c17.661,0.446,22,3.667,38,2.167s33.667-7.333,46.667-5.333s20.666,9.833,7.833,13.166
		c-12.833,3.334-16.333,1.667-24,6c-7.667,4.334-10.879,11.022-24.773,13.011c-13.894,1.989-8.06-1.345-30.06-2.845
		s-24-10.5-24-15.333C219.687,83.085,224.044,76.934,230.02,77.085z"/>
	<path fill="#FFFFFF" d="M273.303,114c-8.852-0.364-14.669-4.952-16.825-13.269l2.42-0.627c1.878,7.244,5.771,11.16,13.519,11.478
		L273.303,114z"/>
	<path fill="#FFFFFF" d="M285.484,107.243l-0.261-1.983c4.681-0.615,9.797-8.152,13.532-13.656c0.936-1.379,1.82-2.682,2.626-3.778
		l1.611,1.185c-0.783,1.065-1.657,2.353-2.582,3.716C296.243,98.868,291.055,106.51,285.484,107.243z"/>
	<path fill="#FFFFFF" d="M276.104,105.626c-3.383,0-6.125,2.742-6.125,6.125c0,3.383,2.742,6.125,6.125,6.125
		s6.125-2.742,6.125-6.125C282.229,108.369,279.487,105.626,276.104,105.626z M276.104,115.001c-1.794,0-3.25-1.456-3.25-3.25
		c0-1.794,1.456-3.25,3.25-3.25c1.795,0,3.25,1.456,3.25,3.25C279.354,113.546,277.899,115.001,276.104,115.001z"/>
	<circle fill="#FFFFFF" cx="276.104" cy="111.751" r="1.916"/>
</g>
</svg>
