<?xml version="1.0" encoding="utf-8"?>
<!-- Generator: Adobe Illustrator 17.0.2, SVG Export Plug-In . SVG Version: 6.00 Build 0)  -->
<!DOCTYPE svg PUBLIC "-//W3C//DTD SVG 1.1//EN" "http://www.w3.org/Graphics/SVG/1.1/DTD/svg11.dtd">
<svg version="1.1" id="Layer_1" xmlns="http://www.w3.org/2000/svg" xmlns:xlink="http://www.w3.org/1999/xlink" x="0px" y="0px"
	 width="754px" height="435px" viewBox="0 0 754 435" enable-background="new 0 0 754 435" xml:space="preserve">
<g>
	<g>
		<g>
			<g>
				<polygon fill="#FFFFFF" points="88.469,386.796 87.628,386.277 213.244,182.665 214.085,183.184 213.825,183.604 				"/>
			</g>
			<g>
				<polygon fill="#FFFFFF" points="166.829,407.317 166.757,406.828 132.178,170.595 133.156,170.452 133.228,170.941 
					167.807,407.174 				"/>
			</g>
			<g>
				<polygon fill="#FFFFFF" points="241.025,372.522 240.656,372.193 62.319,213.458 62.976,212.719 241.683,371.783 				"/>
			</g>
			<g>
				<polygon fill="#FFFFFF" points="275.499,298.179 275.004,298.164 36.355,291.195 36.384,290.207 36.878,290.222 275.527,297.19 
									"/>
			</g>
			<g>
				<polygon fill="#FFFFFF" points="66.436,367.437 65.823,366.661 66.21,366.354 253.503,218.291 254.117,219.066 253.729,219.373 
									"/>
			</g>
			<g>
				<polygon fill="#FFFFFF" points="138.485,406.506 137.517,406.306 137.617,405.822 185.918,172.008 186.887,172.208 				"/>
			</g>
			<g>
				<polygon fill="#FFFFFF" points="217.92,390.59 217.686,390.154 104.395,179.996 105.265,179.527 105.499,179.962 218.79,390.12 
									"/>
			</g>
			<g>
				
					<rect x="38.805" y="281.74" transform="matrix(0.9293 0.3693 -0.3693 0.9293 115.4289 -38.5562)" fill="#FFFFFF" width="239.245" height="0.988"/>
			</g>
			<g>
				<polygon fill="#FFFFFF" points="40.788,320.191 40.478,319.253 40.947,319.098 267.586,244.02 267.896,244.958 267.427,245.113 
									"/>
			</g>
		</g>
		<g>
			<g>
				<polygon fill="#FFFFFF" points="125.915,403.799 125.227,403.656 125.298,403.312 173.57,169.641 174.258,169.783 
					174.187,170.126 				"/>
			</g>
			<g>
				<polygon fill="#FFFFFF" points="206.737,396.257 206.57,395.948 93.348,185.915 93.966,185.582 94.133,185.891 207.355,395.924 
									"/>
			</g>
			<g>
				<polygon fill="#FFFFFF" points="264.421,338.192 264.094,338.062 42.354,249.946 42.613,249.294 42.94,249.424 264.68,337.54 
									"/>
			</g>
			<g>
				<polygon fill="#FFFFFF" points="44.45,331.776 44.229,331.11 44.562,331 271.065,255.969 271.286,256.635 270.953,256.745 				
					"/>
			</g>
			<g>
				<polygon fill="#FFFFFF" points="98.653,393.115 98.056,392.746 98.24,392.447 223.523,189.376 224.121,189.746 223.936,190.044 
									"/>
			</g>
			<g>
				<polygon fill="#FFFFFF" points="178.909,405.364 178.858,405.017 144.299,168.925 144.994,168.823 145.045,169.17 
					179.604,405.263 				"/>
			</g>
			<g>
				
					<rect x="40.464" y="283.006" transform="matrix(0.747 0.6649 -0.6649 0.747 228.8659 -34.6411)" fill="#FFFFFF" width="238.959" height="0.702"/>
			</g>
			<g>
				<polygon fill="#FFFFFF" points="275.42,285.623 275.069,285.612 36.564,278.649 36.585,277.947 36.936,277.958 275.441,284.921 
									"/>
			</g>
			<g>
				
					<rect x="151.623" y="163.636" transform="matrix(0.6203 0.7844 -0.7844 0.6203 279.7787 -11.7008)" fill="#FFFFFF" width="0.702" height="238.957"/>
			</g>
		</g>
		<g>
			<g>
				<path fill="#FFFFFF" d="M157.629,148.043c-77.43,0-140.201,62.771-140.201,140.201c0,77.431,62.771,140.201,140.201,140.201
					c77.432,0,140.201-62.77,140.201-140.201C297.831,210.814,235.061,148.043,157.629,148.043z M157.629,416.713
					c-70.951,0-128.469-57.518-128.469-128.469c0-70.951,57.518-128.469,128.469-128.469c70.952,0,128.47,57.518,128.47,128.469
					C286.099,359.195,228.581,416.713,157.629,416.713z"/>
			</g>
			<g>
				<path fill="#FFFFFF" d="M245.578,198.547c-23.893-23.893-55.659-37.051-89.448-37.051c-33.789,0-65.555,13.158-89.448,37.051
					c-23.892,23.893-37.05,55.658-37.05,89.447c0,33.789,13.158,65.556,37.05,89.447c23.893,23.893,55.659,37.051,89.448,37.051
					c33.789,0,65.556-13.158,89.448-37.051c23.893-23.892,37.051-55.658,37.051-89.447
					C282.628,254.205,269.47,222.439,245.578,198.547z M156.129,407.107c-65.679,0-119.113-53.434-119.113-119.113
					S90.45,168.881,156.129,168.881c65.68,0,119.114,53.434,119.114,119.113S221.809,407.107,156.129,407.107z"/>
			</g>
		</g>
		<g>
			<circle fill="#FFFFFF" cx="155.879" cy="287.793" r="8.5"/>
		</g>
	</g>
	<g>
		<g>
			<g>
				<polygon fill="#FFFFFF" points="537.402,386.796 536.562,386.277 536.82,385.856 662.177,182.665 663.018,183.184 
					662.759,183.604 				"/>
			</g>
			<g>
				<polygon fill="#FFFFFF" points="615.763,407.317 615.69,406.828 581.111,170.595 582.089,170.452 582.161,170.941 
					616.74,407.174 				"/>
			</g>
			<g>
				<polygon fill="#FFFFFF" points="689.959,372.522 689.59,372.193 511.252,213.458 511.909,212.719 690.616,371.783 				"/>
			</g>
			<g>
				<polygon fill="#FFFFFF" points="724.432,298.179 723.938,298.164 485.288,291.195 485.317,290.207 485.812,290.222 
					724.461,297.19 				"/>
			</g>
			<g>
				<polygon fill="#FFFFFF" points="515.369,367.437 514.756,366.661 515.144,366.354 702.437,218.291 703.05,219.066 
					702.662,219.373 				"/>
			</g>
			<g>
				<polygon fill="#FFFFFF" points="587.418,406.506 586.45,406.306 586.55,405.822 634.853,172.008 635.82,172.208 
					635.721,172.692 				"/>
			</g>
			<g>
				<polygon fill="#FFFFFF" points="666.854,390.59 666.619,390.154 553.327,179.996 554.197,179.527 554.432,179.962 
					667.724,390.12 				"/>
			</g>
			<g>
				<polygon fill="#FFFFFF" points="718.345,326.87 717.886,326.688 496.012,238.517 496.377,237.599 496.836,237.781 
					718.71,325.952 				"/>
			</g>
			<g>
				<polygon fill="#FFFFFF" points="489.722,320.191 489.41,319.253 489.88,319.098 716.519,244.02 716.83,244.958 716.36,245.113 
									"/>
			</g>
		</g>
		<g>
			<g>
				<polygon fill="#FFFFFF" points="574.848,403.799 574.16,403.656 574.231,403.312 622.504,169.641 623.191,169.783 
					623.12,170.126 				"/>
			</g>
			<g>
				<polygon fill="#FFFFFF" points="655.67,396.257 655.504,395.948 542.281,185.915 542.899,185.582 543.066,185.891 
					656.288,395.924 				"/>
			</g>
			<g>
				<polygon fill="#FFFFFF" points="713.354,338.192 713.027,338.062 491.287,249.946 491.547,249.294 491.873,249.424 
					713.613,337.54 				"/>
			</g>
			<g>
				
					<rect x="606.34" y="174.394" transform="matrix(0.3146 0.9492 -0.9492 0.3146 694.8068 -374.4611)" fill="#FFFFFF" width="0.702" height="238.958"/>
			</g>
			<g>
				<polygon fill="#FFFFFF" points="547.587,393.115 546.989,392.746 547.174,392.447 672.456,189.376 673.054,189.746 
					672.869,190.044 				"/>
			</g>
			<g>
				<polygon fill="#FFFFFF" points="627.842,405.364 627.791,405.017 593.232,168.925 593.928,168.823 593.979,169.17 
					628.537,405.263 				"/>
			</g>
			<g>
				<polygon fill="#FFFFFF" points="697.891,363.057 697.628,362.823 519.396,204.181 519.863,203.657 520.126,203.89 
					698.357,362.531 				"/>
			</g>
			<g>
				<polygon fill="#FFFFFF" points="724.354,285.623 724.003,285.612 485.498,278.649 485.519,277.947 485.869,277.958 
					724.374,284.921 				"/>
			</g>
			<g>
				
					<rect x="600.557" y="163.636" transform="matrix(0.6203 0.7844 -0.7844 0.6203 450.2498 -363.837)" fill="#FFFFFF" width="0.702" height="238.957"/>
			</g>
		</g>
		<g>
			<g>
				<path fill="#FFFFFF" d="M605.063,147.793c-77.43,0-140.201,62.771-140.201,140.201c0,77.431,62.771,140.201,140.201,140.201
					c77.432,0,140.201-62.77,140.201-140.201C745.264,210.564,682.495,147.793,605.063,147.793z M605.063,416.463
					c-70.951,0-128.469-57.518-128.469-128.469c0-70.951,57.518-128.469,128.469-128.469c70.952,0,128.47,57.518,128.47,128.469
					C733.533,358.945,676.015,416.463,605.063,416.463z"/>
			</g>
			<g>
				<path fill="#FFFFFF" d="M694.511,198.547c-23.893-23.893-55.659-37.051-89.448-37.051c-33.789,0-65.555,13.158-89.448,37.051
					c-23.892,23.893-37.05,55.658-37.05,89.447c0,33.789,13.158,65.556,37.05,89.447c23.893,23.893,55.659,37.051,89.448,37.051
					c33.789,0,65.556-13.158,89.448-37.051c23.893-23.892,37.051-55.658,37.051-89.447
					C731.562,254.205,718.404,222.439,694.511,198.547z M605.063,407.107c-65.679,0-119.113-53.434-119.113-119.113
					s53.434-119.113,119.113-119.113c65.68,0,119.114,53.434,119.114,119.113S670.743,407.107,605.063,407.107z"/>
			</g>
		</g>
		<g>
			<circle fill="#FFFFFF" cx="604.812" cy="287.793" r="8.5"/>
		</g>
	</g>
</g>
<g>
	<g>
		<path fill="#FFFFFF" d="M607.396,190.793c11.778,0,22.445,0.667,25.556,1.778c3.111,1.111,3.111,4.222,1.778,7.556
			c-1.333,3.333-9.111,1.11-14.223,2.666c-5.111,1.557-8.444,4-12.667,4h-0.889c-4.222,0-7.556-2.443-12.667-4
			c-5.111-1.556-12.889,0.667-14.223-2.666c-1.333-3.334-1.333-6.444,1.778-7.556C584.951,191.46,595.618,190.793,607.396,190.793
			L607.396,190.793z"/>
	</g>
	<g>
		<path fill="#FFFFFF" d="M65.414,286.256c0.793-11.752,2.177-22.35,3.495-25.379c1.319-3.029,4.422-2.82,7.658-1.265
			c3.236,1.555,0.495,9.165,1.703,14.37c1.208,5.203,3.422,8.693,3.138,12.905l-0.06,0.887c-0.284,4.213-2.947,7.375-4.844,12.37
			c-1.896,4.994-0.203,12.904-3.619,14.01c-3.416,1.105-6.519,0.896-7.418-2.281C64.567,308.693,64.62,298.006,65.414,286.256
			L65.414,286.256z"/>
	</g>
</g>
</svg>
