<?xml version="1.0" encoding="utf-8"?>
<!-- Generator: Adobe Illustrator 17.0.0, SVG Export Plug-In . SVG Version: 6.00 Build 0)  -->
<!DOCTYPE svg PUBLIC "-//W3C//DTD SVG 1.1//EN" "http://www.w3.org/Graphics/SVG/1.1/DTD/svg11.dtd">
<svg version="1.1" id="Layer_1" xmlns="http://www.w3.org/2000/svg" xmlns:xlink="http://www.w3.org/1999/xlink" x="0px" y="0px"
	 width="340px" height="185px" viewBox="0 0 340 185" enable-background="new 0 0 340 185" xml:space="preserve">
<g>
	<path fill="#FFFFFF" d="M72.407,83.883c-5.062,1.376-12.931,2.973-19.041,2.973c-23.665,0-44.141-16.181-44.141-39.297
		S29.811,8.262,53.089,8.262c8.036,0,15.962,1.926,19.428,3.027l6.607-2.806l1.76,30.711H80.61
		C79.452,26.479,72.848,8.647,54.962,8.647c-19.648,0-21.521,21.63-21.521,38.911c0,15.961,2.367,38.91,20.696,38.91
		c2.475,0,4.842-0.384,7.045-1.045v-16.18c0-13.32,0-19.209-10.787-19.209V49.76h40.836v0.274c-7.649,0-8.42,4.789-8.477,15.466
		v21.134L72.407,83.883z"/>
	<path fill="#FFFFFF" d="M115.208,50.861c0.056,11.502,6,22.895,20.366,22.895c8.694,0,15.135-3.688,18.987-10.347l0.164,0.11
		c-5.172,13.098-15.081,23.336-30.82,23.336c-17.942,0-29.391-12.328-29.391-29.94s15.191-29.391,33.133-29.391
		c18.163,0,28.179,9.357,24.657,23.336H115.208z M115.208,50.475h17.612c1.763-6.824,1.873-22.565-6.935-22.565
		C117.905,27.91,115.208,42.826,115.208,50.475z"/>
	<path fill="#FFFFFF" d="M154.711,28.296h2.311c9.028,0,16.346-1.157,20.97-5.008c3.302-4.183,5.062-10.512,5.062-17.007h0.387
		v22.015h12.107v0.386h-12.107v38.91c0,5.889,0.384,12.109,6.604,12.109c2.751,0,5.449-1.212,7.87-3.193l0.167,0.22
		c-5.011,4.404-12.604,10.128-21.631,10.128c-9.906,0-13.375-6.935-13.375-15.522V28.681h-8.364V28.296z"/>
	<path fill="#FFFFFF" d="M38.946,102.576c19.154,0,43.26,0.11,43.26,17.832c0,14.53-21.134,16.29-32.142,16.62v0.11
		c11.666,0.11,37.204,2.972,37.204,20.473c0,13.759-13.429,22.015-35.334,22.015H7.575v-0.274c11.886,0,11.886-6.661,11.886-19.538
		v-37.427c0-13.318,0-19.538-11.886-19.538v-0.274H38.946z M45.22,137.028c11.448,0,14.861-5.613,14.861-17.281
		c0-10.457-2.2-16.897-15.081-16.897h-2.861v34.179H45.22z M42.138,165.978c0,10.457,0.33,13.375,7.375,13.375
		c10.457,0,13.539-7.321,13.539-21.741c0-12.437-2.641-20.307-17.281-20.307h-3.633V165.978z"/>
	<path fill="#FFFFFF" d="M86.04,179.627v-0.274c8.584,0,9.576-2.698,9.576-14.476V138.46c0-8.036-1.706-11.174-11.061-8.641
		l-0.056-0.277l31.481-8.474v43.808c0,11.779,0.991,14.476,9.576,14.476v0.274H86.04z M117.631,104.446
		c0,6.604-5.285,11.999-11.889,11.999c-6.494,0-11.886-5.395-11.886-11.999c0-6.494,5.392-11.776,11.886-11.776
		C112.346,92.67,117.631,97.842,117.631,104.446z"/>
	<path fill="#FFFFFF" d="M169.137,121.837h27.848v0.277c-12.163,0.11-18.713,5.282-27.408,13.429l-11.999,11.282
		c25.261-12.383,32.636,6.44,36.986,17.171c5.172,12.77,6.604,15.578,12.217,15.358v0.274c-5.613,0.33-10.126,0.771-15.739,0.771
		c-13.869,0-15.632-2.203-19.595-15.191c-2.147-6.935-4.293-22.784-14.42-17.832v19.705c0,6.935,0.11,12.273,6.056,12.273v0.274
		h-35.995v-0.274c8.584,0,9.576-2.698,9.576-14.476v-54.816c0-8.09-1.706-11.118-11.061-8.641l-0.056-0.277l31.481-8.474v54.101
		l12.109-11.448c6.878-6.44,10.237-13.208,0-13.208V121.837z"/>
	<path fill="#FFFFFF" d="M221.403,144.404c0.056,11.502,6,22.897,20.366,22.897c8.694,0,15.135-3.689,18.987-10.349l0.164,0.11
		c-5.172,13.101-15.081,23.337-30.82,23.337c-17.942,0-29.391-12.33-29.391-29.941s15.191-29.388,33.133-29.388
		c18.163,0,28.179,9.355,24.657,23.335H221.403z M221.403,144.019h17.612c1.763-6.824,1.873-22.566-6.935-22.566
		C224.1,121.453,221.403,136.367,221.403,144.019z"/>
	<path fill="#FFFFFF" d="M304.22,122.388l-0.167-12.327c-0.11-7.375-1.54-11.118-11.008-8.641l-0.11-0.277l31.481-8.474v72.978
		c0,7.375,0.717,12.714,9.632,10.293l0.056,0.274c-9.028,2.808-15.465,4.183-19.979,4.183c-8.09,0-10.293-4.073-9.963-11.779
		c-5.008,7.816-10.347,11.779-17.612,11.779c-11.666,0-21.795-10.567-21.795-26.199c0-17.502,12.55-33.131,31.701-33.131
		C299.155,121.069,301.853,121.617,304.22,122.388z M304.053,134.387c0-8.917-0.441-12.88-6.824-12.88
		c-8.036,0-10.898,9.028-10.898,29.391c0,7.375,0,24.987,8.807,24.987c3.246,0,6.11-3.412,8.915-7.596V134.387z"/>
</g>
</svg>
